<?xml version="1.0" standalone="no"?>
<!DOCTYPE svg PUBLIC "-//W3C//DTD SVG 1.1//EN" "http://www.w3.org/Graphics/SVG/1.1/DTD/svg11.dtd" >
<svg xmlns="http://www.w3.org/2000/svg" xmlns:xlink="http://www.w3.org/1999/xlink" version="1.1">
<metadata>
Created by FontForge 20170731 at Sat Jan 28 00:14:28 2023
 By Aleksey,,,
Copyright (c) 2021 by Panco Sassano. Digitized by Ale Paul for Sudtipos. All rights reserved.
</metadata>
<defs>
<font id="Balneario-ScriptCaps" horiz-adv-x="1624" >
  <font-face 
    font-family="Balneario Script Caps"
    font-weight="400"
    font-variant="small-caps"
    font-stretch="normal"
    units-per-em="2048"
    panose-1="0 0 5 0 0 0 0 0 0 0"
    ascent="1638"
    descent="-410"
    x-height="1579"
    cap-height="1599"
    bbox="-1303 -786 2402 2404"
    underline-thickness="102"
    underline-position="-307"
    unicode-range="U+0020-FB02"
  />
<missing-glyph horiz-adv-x="1024" 
d="M190 1638h650v-2048h-650v2048zM682 1434v67h-338v-67h133v-76h-135v-68h340v68h-135v76h135zM547 1094v143h-205v-213h340v70h-135zM410 1167h67v-73h-67v73zM682 901v68h-340v-68h135v-76h-135v-67h205v143h135zM682 641v205h-68v-135h-272v-70h340zM682 365v231h-205
v-115h70v47h67v-96h-204v164h-68v-231h340zM682 10v232h-340v-232h340zM410 174h204v-96h-204v96zM682 -104v67h-340v-67h143l-143 -97v-67h340v67h-209l143 97h66z" />
    <glyph glyph-name="fi" unicode="fi" horiz-adv-x="2041" 
d="M1226 1517q9 -69 9 -139q0 -250 -145 -250q-200 0 -416 -2q37 -37 37 -92v-166q79 4 315 4q9 -30 16 -75q9 -61 9 -101q0 -145 -90 -145h-250l-2 -277q0 -186 -2 -266q-23 -7 -84 -11q-70 -5 -138 -5q-131 0 -219 30t-88 103q0 254 17 537q18 301 36 462q-90 -2 -149 -2
q0 96 19 229q19 136 69 175q52 52 282 72q234 20 756 20q11 -50 18 -101zM1694 -16q-146 0 -234 33q-92 35 -92 120q-2 161 13 539q14 357 20 473l16 422q34 9 106 19q66 9 134 9q262 0 262 -165q6 -598 20 -1432q-147 -18 -245 -18z" />
    <glyph glyph-name="fl" unicode="fl" horiz-adv-x="2441" 
d="M1226 1517q9 -69 9 -139q0 -250 -145 -250q-200 0 -416 -2q37 -37 37 -92v-166q79 4 315 4q9 -30 16 -75q9 -61 9 -101q0 -145 -90 -145h-250l-2 -277q0 -186 -2 -266q-23 -7 -84 -11q-70 -5 -138 -5q-131 0 -219 30t-88 103q0 254 17 537q18 301 36 462q-90 -2 -149 -2
q0 96 19 229q19 136 69 175q52 52 282 72q234 20 756 20q11 -50 18 -101zM2392 408q10 -73 10 -154q0 -117 -30 -192q-30 -74 -107 -74q-88 -2 -227 -2q-288 0 -365 18q-68 17 -142 69q-69 49 -117 104q-46 53 -46 79l2 1006q2 204 2 319q84 14 207 14q148 0 251 -41
q101 -40 101 -145q2 -312 -55 -928q9 0 52 4t79 7q280 24 367 22q8 -31 18 -106z" />
    <glyph glyph-name=".notdef" horiz-adv-x="1024" 
d="M190 1638h650v-2048h-650v2048zM682 1434v67h-338v-67h133v-76h-135v-68h340v68h-135v76h135zM547 1094v143h-205v-213h340v70h-135zM410 1167h67v-73h-67v73zM682 901v68h-340v-68h135v-76h-135v-67h205v143h135zM682 641v205h-68v-135h-272v-70h340zM682 365v231h-205
v-115h70v47h67v-96h-204v164h-68v-231h340zM682 10v232h-340v-232h340zM410 174h204v-96h-204v96zM682 -104v67h-340v-67h143l-143 -97v-67h340v67h-209l143 97h66z" />
    <glyph glyph-name=".null" horiz-adv-x="0" 
 />
    <glyph glyph-name="nonmarkingreturn" horiz-adv-x="682" 
 />
    <glyph glyph-name="space" unicode=" " horiz-adv-x="778" 
 />
    <glyph glyph-name="exclam" unicode="!" horiz-adv-x="782" 
d="M627 1604q-93 43 -254 43q-95 0 -223 -19v-1014q0 -77 66 -119t181 -42q96 0 199 26q55 295 90 578q35 286 35 426q0 78 -94 121zM208 4q88 -31 228 -31q66 0 154 9q14 57 22 128q9 79 9 113q0 60 -73 95q-71 34 -196 34q-102 0 -202 -20q-12 -51 -19 -113
q-8 -74 -8 -131q0 -54 85 -84z" />
    <glyph glyph-name="quotedbl" unicode="&#x22;" horiz-adv-x="1087" 
d="M445 1587q-78 29 -205 29q-83 0 -179 -12q0 -68 22 -299q19 -196 40 -363q0 -90 123 -90q63 0 141 22q135 483 135 633q0 51 -77 80zM956 1587q-70 29 -194 29q-80 0 -174 -12q5 -187 39 -662q0 -90 123 -90q63 0 141 22q135 483 135 633q0 51 -70 80z" />
    <glyph glyph-name="numbersign" unicode="#" horiz-adv-x="1630" 
d="M1522 666q26 -82 26 -158q0 -68 -24 -106q-24 -37 -70 -37h-65l12 -402q-125 -29 -240 -29q-111 0 -177 32q-64 31 -64 87q0 95 6 316q-111 0 -213 2v-408q-125 -29 -240 -29q-111 0 -177 32q-65 32 -65 87q3 103 13 320q-54 2 -129 2q-33 67 -33 139t35 107
q15 15 141 30l14 242q-68 2 -157 2q-33 66 -33 137q0 72 35 107q23 23 168 35l16 393q106 28 207 28q90 0 142 -27t52 -81l5 -297h245l13 377q105 28 204 28q90 0 143 -27q52 -27 52 -81l4 -301l154 -2q26 -82 26 -158q0 -66 -24 -103q-24 -38 -70 -38h-80l6 -217zM934 672
q5 176 8 217q-119 0 -233 2q2 -90 2 -221q98 2 223 2z" />
    <glyph glyph-name="dollar" unicode="$" horiz-adv-x="1290" 
d="M733 841q148 -99 361 -210q155 -82 155 -94q0 -119 -43 -230q-44 -114 -112 -182q-101 -103 -265 -148l2 -309q-102 -16 -180 -16q-129 0 -210 38q-79 37 -79 103q0 83 29 176q-207 39 -293 125q-27 27 -42 70q-15 44 -15 92q0 122 76 256q80 -40 189 -65t204 -25
q78 0 121 15t43 42q0 11 -36 33q-34 21 -116 63q-196 99 -321 189t-125 182q0 209 108 368q108 158 297 232v307q105 17 176 17q131 0 212 -38q79 -37 79 -106q0 -65 -18 -137q148 -23 262 -78q35 -172 35 -303q0 -70 -13 -128q-12 -54 -32 -74q-62 -62 -191 -62
q-106 0 -213 43v209q-86 -27 -136 -77t-50 -111q0 -72 141 -167z" />
    <glyph glyph-name="percent" unicode="%" horiz-adv-x="1595" 
d="M1332 1465q81 -48 81 -117q0 -38 -29 -84q-161 -244 -485 -723q-270 -400 -416 -621q-138 46 -221 126q-82 79 -82 165q0 41 23 82q78 144 413 592q-92 -27 -190 -27q-173 0 -279 100t-106 263q0 105 43 187q45 85 119 130q77 47 172 47q138 0 223 -88q86 -89 86 -227
q0 -112 -66 -174q95 27 185 93q85 62 188 181q62 81 121 154q138 -10 220 -59zM403 1083q-18 33 -12 66q29 7 48 42q20 35 20 79q0 45 -24 78q-23 32 -54 32q-37 0 -63 -42q-25 -41 -25 -105q0 -120 110 -150zM1399 582q70 -43 113 -117q42 -73 42 -162q0 -146 -86 -237
t-227 -91t-227 91t-86 237q0 89 42 162q43 74 113 117q71 43 158 43t158 -43zM1304 216q25 37 25 95q0 63 -23 99t-65 36q-41 0 -64 -36q-24 -38 -24 -99q0 -54 26 -94q25 -39 62 -39t63 38z" />
    <glyph glyph-name="ampersand" unicode="&#x26;" horiz-adv-x="1714" 
d="M1683 332q0 -147 -47 -236q-46 -88 -129 -88q-219 0 -477 129q-120 -74 -256 -119q-129 -43 -246 -43q-225 0 -356 125t-131 342q0 18 60 65q48 37 188 136q33 21 57 39q28 21 43 31q-139 217 -139 415q0 130 72 244q74 117 189 184q120 70 249 70q99 0 209 -64
q109 -64 184 -161q74 -97 74 -182q0 -61 -110 -215q-112 -157 -271 -320q88 -66 201 -111q165 174 229 408q98 -45 162 -119q63 -74 63 -145q0 -102 -86 -236q123 -12 258 -12q10 -79 10 -137zM695 1225q-56 -71 -56 -164q0 -55 12 -105q78 94 126 187q46 89 52 162
q-76 -7 -134 -80zM713 348q-64 54 -121 111q-116 -104 -137 -162q129 1 258 51z" />
    <glyph glyph-name="quotesingle" unicode="'" horiz-adv-x="583" 
d="M445 1587q-78 29 -205 29q-83 0 -179 -12q0 -199 62 -662q0 -90 123 -90q63 0 141 22q135 483 135 633q0 51 -77 80z" />
    <glyph glyph-name="parenleft" unicode="(" horiz-adv-x="968" 
d="M720 1799q-72 36 -142 36q-96 0 -164 -68q-142 -142 -227 -405q-85 -262 -85 -563q0 -197 42 -398q42 -200 117 -364t167 -256q57 -57 150 -57q83 0 182 48q98 48 188 136q-155 152 -253 400q-99 250 -99 487q0 247 74 504t186 397q-61 66 -136 103z" />
    <glyph glyph-name="parenright" unicode=")" horiz-adv-x="921" 
d="M225 -222q93 -44 170 -44q84 0 133 49q135 135 213 391q78 257 78 567q0 203 -43 405q-44 205 -118 370q-75 167 -169 258q-55 55 -139 55q-73 0 -152 -42q-79 -41 -151 -120q125 -135 207 -394q82 -258 82 -521q0 -224 -84 -464q-85 -242 -211 -386q93 -81 184 -124z
" />
    <glyph glyph-name="asterisk" unicode="*" horiz-adv-x="1034" 
d="M971 1298q0 -82 -78 -188l-195 80q44 -52 75 -110q30 -57 30 -91q0 -54 -55 -85q-56 -32 -144 -32q-13 0 -55 5l-29 206q-23 -65 -55 -117q-33 -55 -64 -73q-21 -12 -45 -12q-47 0 -96 46q-50 47 -84 126l176 143q-49 -10 -125 -10q-88 0 -121 20q-43 28 -43 86
q0 82 78 189l197 -82q-47 55 -76 110q-31 59 -31 95q0 53 54 84q53 30 141 30q21 0 57 -4l31 -207q23 68 55 120q33 55 64 73q23 12 45 12q47 0 96 -46q50 -46 84 -126l-178 -145q49 10 125 10q89 0 123 -21q43 -24 43 -86z" />
    <glyph glyph-name="plus" unicode="+" horiz-adv-x="1298" 
d="M1237 664q0 -117 -35 -185q-34 -67 -98 -67h-227l10 -361q-121 -28 -240 -28q-114 0 -177 31q-64 31 -64 87q0 109 8 269l-342 -2q-11 86 -11 143q0 85 16 155q15 66 42 93q41 35 319 47q4 40 4 69q1 16 5.5 74t6.5 88q4 64 11 148q116 28 205 28q90 0 142 -28t52 -80
l2 -287q140 2 348 2q23 -115 23 -196z" />
    <glyph glyph-name="comma" unicode="," horiz-adv-x="634" 
d="M573 238q0 -107 -35 -225q-35 -120 -94 -206q-56 -83 -114 -83q-48 0 -105 20q-62 22 -106 53l6 236q-64 44 -64 108q0 53 13 139q12 78 30 142q112 39 213 39q143 0 211 -68q45 -45 45 -155z" />
    <glyph glyph-name="hyphen" unicode="-" horiz-adv-x="972" 
d="M174 530q418 5 608 5q63 0 97 62t34 171q0 80 -22 184h-229q-224 0 -365 -12t-178 -49q-27 -27 -42 -89q-16 -67 -16 -143q0 -51 11 -131q52 0 102 2z" />
    <glyph glyph-name="period" unicode="." horiz-adv-x="669" 
d="M184 -14q57 -17 125 -17q115 0 246 45q53 126 53 234q0 100 -45 145q-68 68 -213 68q-102 0 -225 -39q-64 -154 -64 -268q0 -84 35 -119q32 -33 88 -49z" />
    <glyph glyph-name="slash" unicode="/" horiz-adv-x="1161" 
d="M973 1591q86 -26 137 -77q49 -49 49 -115q0 -78 -207 -489q-209 -414 -526 -967q-175 24 -291 88q-115 64 -115 137t216 487q219 419 540 961q110 2 197 -25z" />
    <glyph glyph-name="zero" unicode="0" horiz-adv-x="1521" 
d="M385 58q-158 95 -241 277q-83 183 -83 435q0 238 91 432q91 193 249 301q160 109 361 109q199 0 359 -109q159 -108 249 -300t90 -433q0 -255 -82 -435q-84 -184 -239 -277q-158 -95 -377 -95t-377 95zM613 1085q-50 -102 -50 -297q0 -169 50 -257q50 -87 149 -87t148 87
q51 90 51 257q0 192 -52 296q-51 102 -147 102q-99 0 -149 -101z" />
    <glyph glyph-name="one" unicode="1" horiz-adv-x="909" 
d="M336 1556q108 9 127 9q157 0 250 -46q94 -46 94 -124l-4 -1387q-156 -24 -279 -24q-135 0 -210 28q-76 28 -76 82q0 113 47 780q-71 16 -137 50t-107 75z" />
    <glyph glyph-name="two" unicode="2" horiz-adv-x="1212" 
d="M514 775q-185 -177 -473 -361q0 -74 53 -194q51 -114 111 -173q33 -33 211 -45t608 -12q61 0 95 62t34 171q0 111 -33 242q-125 0 -442 -16q224 161 360 324q133 160 133 276q0 131 -84 259t-216 210q-130 81 -267 81q-354 0 -483 -129q-35 -35 -35 -112q0 -61 25 -144
q23 -75 71 -161q80 42 180 68q106 28 183 28q153 0 153 -102q0 -95 -184 -272z" />
    <glyph glyph-name="three" unicode="3" horiz-adv-x="1216" 
d="M1107 654q69 -98 69 -197q0 -141 -78 -254t-216 -177q-139 -65 -311 -65q-150 0 -279 43q-130 44 -202 115q-47 47 -47 133q0 60 26 132q25 70 72 138q59 -50 162 -85q101 -34 199 -34q107 0 171 34t64 89q0 99 -274 99q-34 0 -55 60t-21 159q0 31 4 90q133 12 217 52
q86 41 86 87q0 43 -45 66q-44 22 -131 22q-81 0 -171 -20q-96 -21 -169 -54q-48 69 -73 136q-25 66 -25 127q0 75 43 118q64 65 194 102q135 38 291 38q137 0 265 -73q125 -72 203 -192q77 -119 77 -249q0 -58 -61 -131q-64 -76 -162 -148q107 -63 177 -161z" />
    <glyph glyph-name="four" unicode="4" horiz-adv-x="1280" 
d="M1208 14q-120 -22 -245 -22q-133 0 -212 33t-79 90q0 86 14 247q-141 4 -274 20q-127 15 -146 34q-50 48 -140 175q-85 121 -85 148q0 44 95 282q85 213 247 566q211 -21 339 -81t128 -134q0 -19 -10 -39q-45 -99 -144 -275q-90 -159 -192 -321q159 16 233 17
q30 186 45 254q91 8 123 8q134 0 216 -38q81 -38 81 -101q0 -445 6 -863z" />
    <glyph glyph-name="five" unicode="5" horiz-adv-x="1212" 
d="M913 916q124 -59 191 -163t67 -243q0 -147 -76 -268q-76 -120 -211 -190q-132 -68 -298 -68q-154 0 -286 44q-129 43 -210 124q-47 47 -47 127q0 59 27 128q28 71 77 132q67 -49 171 -81q105 -32 196 -32q90 0 149 32q58 31 58 81q0 40 -53 69t-131 29q-37 0 -81 -6
q-43 -6 -73 -17q-133 78 -217 166t-84 148q0 52 26 193q24 132 56 260q30 122 47 139q62 61 811 61q25 -128 25 -225q0 -120 -35 -193q-34 -71 -99 -71h-67q-153 0 -332 4l-6 -129q83 8 123 8q158 0 282 -59z" />
    <glyph glyph-name="six" unicode="6" horiz-adv-x="1337" 
d="M1048 904q102 -53 161 -151t59 -221q0 -162 -79 -289q-81 -130 -218 -201q-141 -73 -316 -73t-309 88q-135 89 -210 247q-75 159 -75 362q0 257 104 470q103 212 282 333q179 122 397 122q68 0 124 -49t92 -137q35 -87 40 -199q-204 -1 -358 -95q-151 -92 -207 -245
q46 45 116 68q72 24 162 24q131 0 235 -54zM808 443q46 42 46 102q0 51 -51 87t-127 36q-94 0 -166 -33q11 -114 58 -173q49 -61 126 -61q68 0 114 42z" />
    <glyph glyph-name="seven" unicode="7" horiz-adv-x="1196" 
d="M963 1457q87 -93 149 -214q64 -125 64 -207q-173 -170 -319 -459q-147 -292 -208 -581q-151 0 -273 33q-123 33 -191 91t-68 132q0 165 142 376q140 208 386 416l-565 3q-39 123 -39 237q0 129 49 178q103 86 649 86h80q59 0 144 -91z" />
    <glyph glyph-name="eight" unicode="8" horiz-adv-x="1267" 
d="M1156 627q71 -86 71 -189q0 -144 -76 -251t-214 -167q-136 -59 -323 -59q-164 0 -296 62q-130 61 -203 172q-74 112 -74 249q0 112 74 216q73 104 186 153q-154 145 -154 309q0 146 61 257q59 108 173 169q113 60 262 60q145 0 259 -60t177 -165q64 -107 64 -240
q0 -97 -51 -189q-51 -91 -131 -153q125 -89 195 -174zM570 1224q-29 -26 -29 -71q0 -40 33 -79q35 -41 100 -87q78 89 78 164q0 46 -29 73t-76 27t-77 -27zM690 390q31 31 31 77q0 31 -34 62q-40 37 -103 79q-37 -36 -56 -69q-20 -36 -20 -70q0 -47 29 -78t73 -31
q50 0 80 30z" />
    <glyph glyph-name="nine" unicode="9" horiz-adv-x="1318" 
d="M970 1512q135 -86 212 -244q75 -154 75 -359q0 -257 -108 -474q-107 -216 -295 -345q-185 -127 -405 -127q-125 0 -202 92t-77 240q0 29 2 53q214 2 373 90q159 89 227 236q-98 -88 -266 -88q-132 0 -235 55q-102 55 -161 154q-59 100 -59 221q0 175 76 306
q77 133 213 205q137 72 317 72q177 0 313 -87zM514 941q46 -38 117 -38q43 0 89 10q49 11 89 27q-10 116 -57 181t-123 65q-67 0 -113 -42q-47 -42 -47 -104t45 -99z" />
    <glyph glyph-name="colon" unicode=":" horiz-adv-x="712" 
d="M205 721q54 -16 125 -16q118 0 248 45q53 126 53 233q0 100 -45 145q-68 68 -215 68q-102 0 -224 -39q-65 -145 -65 -268q0 -84 35 -119q33 -32 88 -49zM205 -14q57 -17 125 -17q118 0 248 45q53 126 53 234q0 100 -45 145q-68 68 -215 68q-102 0 -224 -39
q-65 -145 -65 -268q0 -84 35 -119q33 -33 88 -49z" />
    <glyph glyph-name="semicolon" unicode=";" horiz-adv-x="712" 
d="M330 705q-71 0 -125 16q-55 17 -88 49q-35 35 -35 119q0 123 65 268q122 39 224 39q147 0 215 -68q45 -45 45 -145q0 -107 -53 -233q-130 -45 -248 -45zM373 461q143 0 211 -68q45 -45 45 -155q0 -103 -36 -225t-93 -206q-56 -83 -115 -83q-47 0 -104 20q-64 22 -107 53
l6 236q-63 43 -63 108q0 59 12 139q11 71 31 142q112 39 213 39z" />
    <glyph glyph-name="less" unicode="&#x3c;" horiz-adv-x="1077" 
d="M489 643l519 -313q-39 -142 -122 -238q-82 -94 -171 -94q-71 0 -186 83q-114 82 -247 229q-141 155 -262 329q118 186 249 333q131 148 248 229q119 83 200 83q84 0 168 -89t131 -226z" />
    <glyph glyph-name="equal" unicode="=" horiz-adv-x="1298" 
d="M393 750l711 4q64 0 98 67q35 68 35 185q0 81 -23 196q-99 0 -223 4l-282 2q-287 0 -414 -14q-138 -15 -176 -53q-27 -28 -42 -95q-16 -70 -16 -155q0 -57 11 -143zM1104 113q64 0 98 67q35 68 35 185q0 83 -23 198h-79q-273 4 -408 4q-294 0 -427 -14q-144 -15 -181 -51
q-27 -28 -42 -95q-16 -70 -16 -155q0 -57 11 -143z" />
    <glyph glyph-name="greater" unicode="&#x3e;" horiz-adv-x="1075" 
d="M561 1201q119 -83 248 -230q128 -146 246 -332q-119 -175 -259 -329q-131 -144 -248 -229q-115 -83 -186 -83q-91 0 -173 94q-81 93 -119 238l518 313l-527 326q46 136 132 226q84 89 167 89q82 0 201 -83z" />
    <glyph glyph-name="question" unicode="?" horiz-adv-x="1148" 
d="M667 564q13 52 40 79q28 32 139 123q133 108 195 176q67 73 67 143q0 111 -84 235t-210 207q-127 83 -236 83q-150 0 -292 -39t-198 -96q-45 -45 -45 -140q0 -116 70 -258q57 29 144 47q93 19 175 19q129 0 208 -22q75 -21 75 -60q0 -27 -60 -63q-63 -38 -172 -93
q-80 -39 -134 -68q-48 -26 -73 -51q-40 -40 -60 -96q-19 -54 -19 -135q0 -51 74 -81q75 -30 202 -30q65 0 184 15q-4 50 10 105zM280 8q75 -28 207 -28q79 0 174 12q16 60 23 121q8 67 8 110q0 60 -64 91q-66 32 -179 32q-97 0 -218 -24q-13 -42 -20 -108q-8 -70 -8 -126
q0 -51 77 -80z" />
    <glyph glyph-name="at" unicode="@" horiz-adv-x="2332" 
d="M1810 1715q213 -108 337 -292t124 -405q0 -201 -77 -358q-76 -156 -216 -243t-315 -87q-116 0 -203 68q-88 69 -123 180q-85 -110 -182 -171q-98 -61 -190 -61q-129 0 -210 84t-81 219q0 157 69 304q68 145 183 237q112 90 233 90q80 0 159 -31q76 -30 120 -80q0 1 1.5 6
t2.5 8q2 7 6 15q12 29 78 29q40 0 104 -16q59 -15 115 -42q-48 -118 -83 -249q-34 -126 -34 -195q0 -44 19 -69q17 -23 51 -23q70 0 127 51q56 50 91 140q34 87 34 196q0 140 -78 249q-78 110 -217 171q-138 61 -316 61q-260 0 -468 -113q-209 -113 -329 -312
q-120 -198 -120 -441q0 -261 145 -405t404 -144q125 0 266 33t231 84q82 -122 82 -215q0 -65 -47 -94q-109 -59 -257 -94q-150 -36 -290 -36q-277 0 -480 103q-201 102 -308 295t-107 459q0 352 162 625q162 274 453 425q292 152 665 152q256 0 469 -108zM1197 733
q93 96 161 217q-141 66 -199 66q-74 -38 -123 -122q-49 -85 -49 -179q0 -35 15 -56q14 -20 45 -20q59 0 150 94z" />
    <glyph glyph-name="A" unicode="A" horiz-adv-x="1550" 
d="M1362 903q78 -360 168 -883q-2 0 -90 -15t-219 -15q-227 0 -248 92l-31 170h-371l-43 -246q-51 -12 -149 -12q-131 0 -221 34q-92 35 -92 115q0 43 14 107h-47q-13 93 -13 145q0 114 54 162q44 21 80 31q80 323 177 602q97 280 165 348q76 76 307 76q111 0 233 -17
q124 -17 156 -30q93 -308 170 -664zM870 664l-92 538q-57 -196 -129 -547q73 4 221 9z" />
    <glyph glyph-name="B" unicode="B" horiz-adv-x="1632" 
d="M1525 713q66 -74 66 -166q0 -127 -80 -258q-81 -133 -245 -220q-167 -89 -410 -89q-241 0 -395 77q-157 78 -227 189q-70 110 -70 207v65q0 272 29 524q-28 -14 -43 -22q-25 43 -46 124q-22 84 -22 159q0 106 53 151q85 87 288 130q201 42 449 42q233 0 373 -82
q142 -83 201 -195t59 -219q0 -75 -42 -156q-43 -83 -113 -143q110 -46 175 -118zM968 458q48 19 73 49q26 31 26 56q0 31 -32 49q-33 19 -87 19q-62 0 -92 67q-31 70 -31 187q64 17 138 65q75 49 75 115q0 59 -58 92q-59 33 -169 33q-79 0 -158 -10q43 -39 45 -97
q0 -113 -10 -264q-8 -205 -8 -254q0 -58 46 -92q47 -35 134 -35q59 0 108 20z" />
    <glyph glyph-name="C" unicode="C" horiz-adv-x="1372" 
d="M1304 444q39 -77 39 -155q0 -96 -75 -162q-76 -67 -200 -103t-265 -36q-208 0 -377 86q-167 85 -266 258q-99 172 -99 418q0 265 125 465q125 201 322 306q196 105 405 105q219 0 349 -63q41 -208 41 -355q0 -107 -20 -172q-20 -63 -70 -94q-51 -31 -142 -31
q-63 0 -131 14q-70 14 -98 27q7 151 8 246q-127 -21 -206 -130t-79 -267q0 -139 83 -231q82 -91 220 -91q200 0 367 76q27 -28 69 -111z" />
    <glyph glyph-name="D" unicode="D" horiz-adv-x="1675" 
d="M1210 1522q184 -105 294 -281t110 -383q0 -252 -95 -450q-94 -196 -292 -311q-195 -113 -490 -113q-153 0 -285 64q-133 64 -213 170q-79 104 -79 218q-2 212 33 611l-54 -27q-21 39 -39 126t-18 142q0 182 213 260t520 78q212 0 395 -104zM1036 540q78 98 78 289
q0 142 -83 242q-82 98 -255 98q-48 0 -117 -4q35 -35 35 -82q0 -101 -10 -241q-8 -187 -8 -236q0 -78 39 -121t110 -43q133 0 211 98z" />
    <glyph glyph-name="E" unicode="E" horiz-adv-x="1374" 
d="M1210 530q90 -180 90 -309q0 -141 -151 -201q-149 -59 -391 -59q-159 0 -309 59q-156 61 -261 203q-106 143 -106 375q0 292 84 526q-38 -2 -80 -2q0 91 22 234q21 137 66 170q52 52 320 72q272 20 813 20q6 -24 19 -100q11 -66 11 -142q0 -112 -33 -178
q-35 -70 -118 -70h-137h-426q-32 -120 -41 -167q81 7 188 8q152 2 246 2q14 -32 19 -73q5 -45 5 -103q0 -146 -90 -146h-389q18 -100 86 -148t172 -48q231 0 391 77z" />
    <glyph glyph-name="F" unicode="F" horiz-adv-x="1245" 
d="M1226 1517q9 -69 9 -139q0 -250 -145 -250q-200 0 -416 -2q37 -37 37 -92v-166q79 4 315 4q9 -30 16 -75q9 -61 9 -101q0 -145 -90 -145h-250l-2 -277q0 -186 -2 -266q-23 -7 -84 -11q-70 -5 -138 -5q-131 0 -219 30t-88 103q0 254 17 537q18 301 36 462q-90 -2 -149 -2
q0 96 19 229q19 136 69 175q52 52 282 72q234 20 756 20q11 -50 18 -101z" />
    <glyph glyph-name="G" unicode="G" horiz-adv-x="1609" 
d="M1420 862q70 -69 119 -153q50 -86 50 -127q0 -88 -77 -231q-77 -144 -244 -254q-168 -111 -424 -111q-245 0 -421 97q-178 98 -269 265q-93 171 -93 381q0 276 114 481t317 315q202 109 462 109q109 0 214 -23q116 -25 157 -40q23 -57 45 -140q23 -87 23 -163
q0 -52 -15 -92q-16 -43 -43 -66q-67 -57 -250 -57q-102 0 -182 14q0 59 4 139q-143 -24 -226 -138q-83 -115 -83 -286q0 -145 81 -235t216 -90q84 0 165 31q79 30 154 94h-393q-22 103 -22 153q0 73 37 117q36 42 138 60t322 18q54 0 124 -68z" />
    <glyph glyph-name="H" unicode="H" horiz-adv-x="1613" 
d="M1511 16q-137 -18 -241 -18q-295 0 -295 154l4 270h-289l-8 -406q-105 -16 -219 -16q-141 0 -234 37q-94 37 -94 127l4 110q0 1 1.5 24t2.5 37q0 6 1.5 36.5t2.5 50.5h-71q-21 144 -21 215q0 104 29 133q17 19 84 35l43 780q108 21 221 21q275 0 275 -156q0 -56 -2 -236
q0 -43 -2 -137t-3 -145q-2 -36 -2 -84q109 4 195 4l98 2l27 731q32 11 91 20q60 9 124 9q116 0 197 -38q79 -37 79 -126z" />
    <glyph glyph-name="I" unicode="I" horiz-adv-x="796" 
d="M449 -16q-146 0 -234 33q-92 35 -92 120q-2 161 13 539q14 357 20 473l16 422q34 9 106 19q66 9 134 9q262 0 262 -165q6 -598 20 -1432q-147 -18 -245 -18z" />
    <glyph glyph-name="J" unicode="J" horiz-adv-x="1443" 
d="M1218 1538q113 -62 216 -160q0 -500 -78 -808q-78 -307 -244 -454t-434 -147q-193 0 -334 69q-140 69 -217 198q-76 128 -76 305q0 93 37 171q38 80 99 124q63 45 139 45q64 0 136 -21q75 -22 120 -51q-14 -36 -25 -92q-10 -53 -10 -105q0 -84 39 -128t112 -44
q121 0 181 167q59 164 65 528l-688 -2q-10 49 -10 120q0 86 19 153t57 105q35 36 252 63q229 28 452 28q75 0 192 -64z" />
    <glyph glyph-name="K" unicode="K" horiz-adv-x="1542" 
d="M1532 377q-6 -80 -51 -173q-46 -95 -129 -160q-85 -67 -201 -67q-94 0 -231 145q-141 149 -240 322q0 -109 4 -237l2 -205q-159 -29 -268 -29q-128 0 -212 38q-83 38 -83 126q0 446 43 1434q146 24 240 24q258 0 258 -161q0 -186 6 -482l389 637q79 -24 162 -69
q94 -51 161 -115q70 -67 70 -133q0 -41 -50 -109q-39 -54 -153 -184q-128 -147 -243 -264q274 -191 526 -338z" />
    <glyph glyph-name="L" unicode="L" horiz-adv-x="1196" 
d="M1147 408q10 -73 10 -154q0 -115 -31 -192q-30 -74 -106 -74q-88 -2 -227 -2q-289 0 -365 18q-68 17 -142 69q-69 49 -117 104q-46 53 -46 79l2 1006q2 204 2 319q84 14 207 14q148 0 251 -41q101 -40 101 -145q2 -312 -55 -928q9 0 52 4t79 7q280 24 366 22
q10 -39 19 -106z" />
    <glyph glyph-name="M" unicode="M" horiz-adv-x="2136" 
d="M1988 961q68 -440 138 -969q-21 -11 -73 -18q-49 -7 -116 -7q-117 0 -222 29q-103 28 -150 90q-76 134 -97 934q-90 -344 -198 -987q-36 -13 -90 -23t-119 -10q-167 0 -234 84q-75 116 -194 852q-27 -233 -66 -653q-25 -276 -28 -297q-63 -9 -142 -9q-151 0 -265 51
q-112 50 -112 183q-6 129 104 618q107 477 179 752q88 8 203 8q148 0 253 -16q107 -16 134 -51q74 -100 188 -568q112 347 215 627q73 4 166 4q160 0 269 -14q117 -15 143 -51q34 -46 114 -559z" />
    <glyph glyph-name="N" unicode="N" horiz-adv-x="1679" 
d="M1577 819l-2 -719v-94q-119 -35 -225 -35q-211 0 -340 129q-85 85 -191 264q-107 181 -201 377l19 -755q-75 -11 -176 -11q-140 0 -240 38q-98 37 -98 137q-2 136 18 626q22 546 37 785q132 22 225 22q186 0 269 -82q66 -66 187 -268q110 -184 245 -449l2 791
q111 18 205 18q260 0 260 -153q6 -224 6 -621z" />
    <glyph glyph-name="O" unicode="O" 
d="M416 73q-168 104 -261 292q-94 191 -94 436q0 205 92 394q91 187 263 305t401 118q230 0 400 -116q169 -115 258 -302q88 -185 88 -393q0 -233 -100 -427q-99 -191 -273 -301q-175 -110 -389 -110q-216 0 -385 104zM984 544q67 94 67 251q0 199 -69 298t-175 99
q-107 0 -171 -98q-65 -100 -65 -299q0 -159 64 -252q63 -92 172 -92q111 0 177 93z" />
    <glyph glyph-name="P" unicode="P" horiz-adv-x="1527" 
d="M1430 730q-88 -163 -274 -277q-189 -116 -458 -123l-4 -330q-118 -27 -248 -27q-120 0 -200 33t-80 111q-2 277 9 493q12 246 30 420q-12 -5 -35 -18q-42 64 -65 137t-23 141q0 94 45 137q92 89 271 140t450 51q218 0 369 -94q150 -94 226 -230q75 -135 75 -254
q0 -147 -88 -310zM940 847q84 87 84 183q0 65 -62 108q-64 44 -182 44q-51 0 -131 -11q51 -41 51 -108v-340q157 38 240 124z" />
    <glyph glyph-name="Q" unicode="Q" horiz-adv-x="1593" 
d="M1389 -16q0 -85 -40 -174q-40 -90 -92 -146q-398 182 -845 250q16 73 57 145q-174 72 -291 234t-117 416q0 280 95 487q94 205 268 313q176 109 407 109q232 0 390 -116q157 -115 234 -311t77 -435q0 -178 -81 -337q-81 -160 -216 -278q154 -38 154 -157zM639 1089
q-66 -103 -66 -305q0 -165 59 -260q58 -94 175 -94t180 105q64 107 64 270q0 198 -66 293q-66 94 -174 94q-106 0 -172 -103z" />
    <glyph glyph-name="R" unicode="R" horiz-adv-x="1562" 
d="M1542 371q-34 -118 -92 -206q-59 -91 -132 -142q-73 -52 -147 -52q-105 0 -223 129q-120 131 -205 336l-47 -2q-2 -208 -2 -438q-118 -16 -211 -16q-148 0 -231 35q-86 36 -86 98q0 189 13 430q14 261 34 489l-43 -22q-43 68 -66 142q-22 70 -22 136q0 92 45 137
q96 96 280 145q188 50 437 50q197 0 350 -74q152 -74 236 -207q83 -132 83 -307q0 -150 -92 -277q-91 -126 -254 -210zM700 1059q0 -154 -2 -324q149 33 241 113q91 79 91 184q0 68 -65 108t-179 40q-75 0 -153 -15q67 -40 67 -106z" />
    <glyph glyph-name="S" unicode="S" horiz-adv-x="1290" 
d="M734 860q139 -94 364 -213q69 -37 106 -58q45 -25 45 -32q0 -180 -79 -313q-80 -134 -223 -204q-145 -71 -337 -71q-166 0 -305 40q-140 40 -207 104q-57 57 -57 163q0 122 76 256q76 -38 189 -64t204 -26q75 0 121 16q43 15 43 42q0 9 -35 30q-37 23 -113 62
q-200 103 -323 192q-125 90 -125 183q0 188 90 338q90 149 252 232q163 83 366 83q94 0 210 -26q115 -26 196 -64q35 -172 35 -301q0 -69 -13 -128q-12 -55 -32 -75q-61 -61 -193 -61q-99 0 -211 41v208q-89 -28 -136 -75q-50 -50 -50 -111q0 -72 142 -168z" />
    <glyph glyph-name="T" unicode="T" horiz-adv-x="1148" 
d="M1118 1382q0 -124 -39 -196t-108 -72h-183q31 -39 31 -86l-4 -1026q-126 -22 -223 -22q-148 0 -230 41q-83 41 -83 118q0 137 12 410q9 214 31 563l-281 -2q-4 135 17 251q21 112 61 152q51 51 271 72t702 21q26 -114 26 -224z" />
    <glyph glyph-name="U" unicode="U" horiz-adv-x="1546" 
d="M280 132q-178 164 -178 456q0 256 18 536q18 287 46 457q115 23 225 23q126 0 198 -33q73 -33 73 -94q0 -72 -11 -250q-18 -347 -18 -539q0 -106 41 -167q40 -60 112 -60q76 0 119 62t43 173q0 546 -14 871q108 41 211 41q69 0 131 -20q59 -19 96 -56q42 -42 67 -291
q25 -246 25 -620q0 -190 -86 -339q-85 -148 -242 -231q-155 -82 -360 -82q-320 0 -496 163z" />
    <glyph glyph-name="V" unicode="V" horiz-adv-x="1501" 
d="M872 1004q-66 -288 -137 -500q-80 493 -125 934q-7 77 -91 118t-220 41q-117 0 -258 -30q17 -232 79 -576q59 -329 131 -594q71 -259 114 -303q53 -53 158 -83q101 -29 237 -29q122 0 246 24q175 356 302 758q128 406 152 672q7 78 -104 127t-297 49q-40 0 -70 -2
q-49 -307 -117 -606z" />
    <glyph glyph-name="W" unicode="W" horiz-adv-x="2301" 
d="M1858 1606q185 0 299 -50q111 -49 104 -127q-23 -264 -154 -671q-129 -403 -303 -752q-106 -20 -229 -20q-128 0 -225 25q-98 25 -146 73q-16 16 -45 120q-30 111 -59 259q-79 -239 -180 -457q-102 -24 -203 -24q-113 0 -204 28q-92 28 -148 84q-44 44 -113 303
q-72 271 -130 594q-60 335 -81 576q141 30 258 30q138 0 222 -41t91 -118q55 -497 127 -942q65 205 118 472q56 284 85 552q69 14 150 14q134 0 219 -50q84 -50 92 -136q23 -223 57 -428q37 -223 78 -422q71 214 137 503q68 301 113 603q32 2 70 2z" />
    <glyph glyph-name="X" unicode="X" horiz-adv-x="1492" 
d="M1450 270q-101 -138 -209 -214q-105 -74 -192 -74q-89 0 -138 73q-97 140 -194 381q-102 -207 -219 -477q-187 44 -299 134q-111 89 -111 196q0 47 21 88q41 83 125 195q91 121 198 235l-156 225q-161 233 -235 340q99 120 203 184t190 64q109 0 172 -90
q105 -154 189 -414q122 258 200 510q211 -38 332 -119q123 -83 123 -180q0 -33 -20 -76q-48 -93 -155 -242q-106 -147 -222 -284q143 -174 397 -455z" />
    <glyph glyph-name="Y" unicode="Y" horiz-adv-x="1505" 
d="M1348 1029q-132 -268 -351 -589q5 -172 15 -385l2 -55q-138 -23 -236 -23q-154 0 -243 43q-91 44 -91 119q0 96 27 369q-92 124 -209 410q-122 298 -221 636q148 35 260 35q133 0 219 -42t101 -117l137 -584q64 170 124 355q68 211 122 403q30 2 67 2q184 0 299 -50
t115 -129q0 -119 -137 -398z" />
    <glyph glyph-name="Z" unicode="Z" horiz-adv-x="1368" 
d="M1276 510q20 -90 20 -182q0 -148 -57 -236t-158 -88h-632q-95 0 -180 51q-83 50 -145 144q-61 92 -83 209q35 86 225 261q181 166 488 421l-633 -15q-19 105 -19 185q0 143 52 232q51 87 141 87h647q87 0 178 -73t149 -186t58 -224q-250 -285 -575 -615z" />
    <glyph glyph-name="bracketleft" unicode="[" horiz-adv-x="1030" 
d="M1010 -33q0 -123 -48 -195q-49 -73 -135 -73q-169 0 -372 37q-212 39 -353 92q0 874 29 1370q29 488 84 543q42 42 239 80q192 37 382 37q73 0 114 -62t41 -168q0 -86 -28 -192h-381l24 -1299h383q21 -89 21 -170z" />
    <glyph glyph-name="backslash" unicode="\" horiz-adv-x="1218" 
d="M1044 -6q-83 -47 -157 -47q-93 0 -156 63q-89 89 -287 494q-206 420 -424 952q66 79 140 123q73 43 141 43q72 0 123 -51q78 -78 295 -482q209 -389 479 -960q-72 -89 -154 -135z" />
    <glyph glyph-name="bracketright" unicode="]" horiz-adv-x="1036" 
d="M973 414q0 -530 -66 -596q-28 -28 -142 -55q-125 -29 -268 -46q-153 -18 -282 -18q-75 0 -115 64q-41 65 -41 176q0 82 29 198h381v1299h-381q-22 94 -22 168q0 116 48 185t134 69q151 0 340 -29q183 -28 315 -74q70 -791 70 -1341z" />
    <glyph glyph-name="underscore" unicode="_" horiz-adv-x="1386" 
d="M453 -180l739 4q64 0 98 62q35 64 35 171q0 81 -22 185h-68q-295 4 -451 4q-308 0 -467 -15q-160 -15 -196 -51q-29 -28 -44 -88q-16 -66 -16 -143q0 -51 11 -131z" />
    <glyph glyph-name="a" unicode="a" horiz-adv-x="1550" 
d="M1362 903q78 -360 168 -883q-2 0 -90 -15t-219 -15q-227 0 -248 92l-31 170h-371l-43 -246q-51 -12 -149 -12q-131 0 -221 34q-92 35 -92 115q0 43 14 107h-47q-13 93 -13 145q0 114 54 162q44 21 80 31q80 323 177 602q97 280 165 348q76 76 307 76q111 0 233 -17
q124 -17 156 -30q93 -308 170 -664zM870 664l-92 538q-57 -196 -129 -547q73 4 221 9z" />
    <glyph glyph-name="b" unicode="b" horiz-adv-x="1632" 
d="M1525 713q66 -74 66 -166q0 -127 -80 -258q-81 -133 -245 -220q-167 -89 -410 -89q-241 0 -395 77q-157 78 -227 189q-70 110 -70 207v65q0 272 29 524q-28 -14 -43 -22q-25 43 -46 124q-22 84 -22 159q0 106 53 151q85 87 288 130q201 42 449 42q233 0 373 -82
q142 -83 201 -195t59 -219q0 -75 -42 -156q-43 -83 -113 -143q110 -46 175 -118zM968 458q48 19 73 49q26 31 26 56q0 31 -32 49q-33 19 -87 19q-62 0 -92 67q-31 70 -31 187q64 17 138 65q75 49 75 115q0 59 -58 92q-59 33 -169 33q-79 0 -158 -10q43 -39 45 -97
q0 -113 -10 -264q-8 -205 -8 -254q0 -58 46 -92q47 -35 134 -35q59 0 108 20z" />
    <glyph glyph-name="c" unicode="c" horiz-adv-x="1372" 
d="M1304 444q39 -77 39 -155q0 -96 -75 -162q-76 -67 -200 -103t-265 -36q-208 0 -377 86q-167 85 -266 258q-99 172 -99 418q0 265 125 465q125 201 322 306q196 105 405 105q219 0 349 -63q41 -208 41 -355q0 -107 -20 -172q-20 -63 -70 -94q-51 -31 -142 -31
q-63 0 -131 14q-70 14 -98 27q7 151 8 246q-127 -21 -206 -130t-79 -267q0 -139 83 -231q82 -91 220 -91q200 0 367 76q27 -28 69 -111z" />
    <glyph glyph-name="d" unicode="d" horiz-adv-x="1675" 
d="M1210 1522q184 -105 294 -281t110 -383q0 -252 -95 -450q-94 -196 -292 -311q-195 -113 -490 -113q-153 0 -285 64q-133 64 -213 170q-79 104 -79 218q-2 212 33 611l-54 -27q-21 39 -39 126t-18 142q0 182 213 260t520 78q212 0 395 -104zM1036 540q78 98 78 289
q0 142 -83 242q-82 98 -255 98q-48 0 -117 -4q35 -35 35 -82q0 -101 -10 -241q-8 -187 -8 -236q0 -78 39 -121t110 -43q133 0 211 98z" />
    <glyph glyph-name="e" unicode="e" horiz-adv-x="1374" 
d="M1210 530q90 -180 90 -309q0 -141 -151 -201q-149 -59 -391 -59q-159 0 -309 59q-156 61 -261 203q-106 143 -106 375q0 292 84 526q-38 -2 -80 -2q0 91 22 234q21 137 66 170q52 52 320 72q272 20 813 20q6 -24 19 -100q11 -66 11 -142q0 -112 -33 -178
q-35 -70 -118 -70h-137h-426q-32 -120 -41 -167q81 7 188 8q152 2 246 2q14 -32 19 -73q5 -45 5 -103q0 -146 -90 -146h-389q18 -100 86 -148t172 -48q231 0 391 77z" />
    <glyph glyph-name="f" unicode="f" horiz-adv-x="1245" 
d="M1226 1517q9 -69 9 -139q0 -250 -145 -250q-200 0 -416 -2q37 -37 37 -92v-166q79 4 315 4q9 -30 16 -75q9 -61 9 -101q0 -145 -90 -145h-250l-2 -277q0 -186 -2 -266q-23 -7 -84 -11q-70 -5 -138 -5q-131 0 -219 30t-88 103q0 254 17 537q18 301 36 462q-90 -2 -149 -2
q0 96 19 229q19 136 69 175q52 52 282 72q234 20 756 20q11 -50 18 -101z" />
    <glyph glyph-name="g" unicode="g" horiz-adv-x="1609" 
d="M1420 862q70 -69 119 -153q50 -86 50 -127q0 -88 -77 -231q-77 -144 -244 -254q-168 -111 -424 -111q-245 0 -421 97q-178 98 -269 265q-93 171 -93 381q0 276 114 481t317 315q202 109 462 109q109 0 214 -23q116 -25 157 -40q23 -57 45 -140q23 -87 23 -163
q0 -52 -15 -92q-16 -43 -43 -66q-67 -57 -250 -57q-102 0 -182 14q0 59 4 139q-143 -24 -226 -138q-83 -115 -83 -286q0 -145 81 -235t216 -90q84 0 165 31q79 30 154 94h-393q-22 103 -22 153q0 73 37 117q36 42 138 60t322 18q54 0 124 -68z" />
    <glyph glyph-name="h" unicode="h" horiz-adv-x="1613" 
d="M1511 16q-137 -18 -241 -18q-295 0 -295 154l4 270h-289l-8 -406q-105 -16 -219 -16q-141 0 -234 37q-94 37 -94 127l4 110q0 1 1.5 24t2.5 37q0 6 1.5 36.5t2.5 50.5h-71q-21 144 -21 215q0 104 29 133q17 19 84 35l43 780q108 21 221 21q275 0 275 -156q0 -56 -2 -236
q0 -43 -2 -137t-3 -145q-2 -36 -2 -84q109 4 195 4l98 2l27 731q32 11 91 20q60 9 124 9q116 0 197 -38q79 -37 79 -126z" />
    <glyph glyph-name="i" unicode="i" horiz-adv-x="796" 
d="M449 -16q-146 0 -234 33q-92 35 -92 120q-2 161 13 539q14 357 20 473l16 422q34 9 106 19q66 9 134 9q262 0 262 -165q6 -598 20 -1432q-147 -18 -245 -18z" />
    <glyph glyph-name="j" unicode="j" horiz-adv-x="1443" 
d="M1218 1538q113 -62 216 -160q0 -500 -78 -808q-78 -307 -244 -454t-434 -147q-193 0 -334 69q-140 69 -217 198q-76 128 -76 305q0 93 37 171q38 80 99 124q63 45 139 45q64 0 136 -21q75 -22 120 -51q-14 -36 -25 -92q-10 -53 -10 -105q0 -84 39 -128t112 -44
q121 0 181 167q59 164 65 528l-688 -2q-10 49 -10 120q0 86 19 153t57 105q35 36 252 63q229 28 452 28q75 0 192 -64z" />
    <glyph glyph-name="k" unicode="k" horiz-adv-x="1542" 
d="M1532 377q-6 -80 -51 -173q-46 -95 -129 -160q-85 -67 -201 -67q-94 0 -231 145q-141 149 -240 322q0 -109 4 -237l2 -205q-159 -29 -268 -29q-128 0 -212 38q-83 38 -83 126q0 446 43 1434q146 24 240 24q258 0 258 -161q0 -186 6 -482l389 637q79 -24 162 -69
q94 -51 161 -115q70 -67 70 -133q0 -41 -50 -109q-39 -54 -153 -184q-128 -147 -243 -264q274 -191 526 -338z" />
    <glyph glyph-name="l" unicode="l" horiz-adv-x="1196" 
d="M1147 408q10 -73 10 -154q0 -115 -31 -192q-30 -74 -106 -74q-88 -2 -227 -2q-289 0 -365 18q-68 17 -142 69q-69 49 -117 104q-46 53 -46 79l2 1006q2 204 2 319q84 14 207 14q148 0 251 -41q101 -40 101 -145q2 -312 -55 -928q9 0 52 4t79 7q280 24 366 22
q10 -39 19 -106z" />
    <glyph glyph-name="m" unicode="m" horiz-adv-x="2136" 
d="M1988 961q68 -440 138 -969q-21 -11 -73 -18q-49 -7 -116 -7q-117 0 -222 29q-103 28 -150 90q-76 134 -97 934q-90 -344 -198 -987q-36 -13 -90 -23t-119 -10q-167 0 -234 84q-75 116 -194 852q-27 -233 -66 -653q-25 -276 -28 -297q-63 -9 -142 -9q-151 0 -265 51
q-112 50 -112 183q-6 129 104 618q107 477 179 752q88 8 203 8q148 0 253 -16q107 -16 134 -51q74 -100 188 -568q112 347 215 627q73 4 166 4q160 0 269 -14q117 -15 143 -51q34 -46 114 -559z" />
    <glyph glyph-name="n" unicode="n" horiz-adv-x="1679" 
d="M1577 819l-2 -719v-94q-119 -35 -225 -35q-211 0 -340 129q-85 85 -191 264q-107 181 -201 377l19 -755q-75 -11 -176 -11q-140 0 -240 38q-98 37 -98 137q-2 136 18 626q22 546 37 785q132 22 225 22q186 0 269 -82q66 -66 187 -268q110 -184 245 -449l2 791
q111 18 205 18q260 0 260 -153q6 -224 6 -621z" />
    <glyph glyph-name="o" unicode="o" 
d="M416 73q-168 104 -261 292q-94 191 -94 436q0 205 92 394q91 187 263 305t401 118q230 0 400 -116q169 -115 258 -302q88 -185 88 -393q0 -233 -100 -427q-99 -191 -273 -301q-175 -110 -389 -110q-216 0 -385 104zM984 544q67 94 67 251q0 199 -69 298t-175 99
q-107 0 -171 -98q-65 -100 -65 -299q0 -159 64 -252q63 -92 172 -92q111 0 177 93z" />
    <glyph glyph-name="p" unicode="p" horiz-adv-x="1527" 
d="M1430 730q-88 -163 -274 -277q-189 -116 -458 -123l-4 -330q-118 -27 -248 -27q-120 0 -200 33t-80 111q-2 277 9 493q12 246 30 420q-12 -5 -35 -18q-42 64 -65 137t-23 141q0 94 45 137q92 89 271 140t450 51q218 0 369 -94q150 -94 226 -230q75 -135 75 -254
q0 -147 -88 -310zM940 847q84 87 84 183q0 65 -62 108q-64 44 -182 44q-51 0 -131 -11q51 -41 51 -108v-340q157 38 240 124z" />
    <glyph glyph-name="q" unicode="q" horiz-adv-x="1593" 
d="M1389 -16q0 -85 -40 -174q-40 -90 -92 -146q-398 182 -845 250q16 73 57 145q-174 72 -291 234t-117 416q0 280 95 487q94 205 268 313q176 109 407 109q232 0 390 -116q157 -115 234 -311t77 -435q0 -178 -81 -337q-81 -160 -216 -278q154 -38 154 -157zM639 1089
q-66 -103 -66 -305q0 -165 59 -260q58 -94 175 -94t180 105q64 107 64 270q0 198 -66 293q-66 94 -174 94q-106 0 -172 -103z" />
    <glyph glyph-name="r" unicode="r" horiz-adv-x="1562" 
d="M1542 371q-34 -118 -92 -206q-59 -91 -132 -142q-73 -52 -147 -52q-105 0 -223 129q-120 131 -205 336l-47 -2q-2 -208 -2 -438q-118 -16 -211 -16q-148 0 -231 35q-86 36 -86 98q0 189 13 430q14 261 34 489l-43 -22q-43 68 -66 142q-22 70 -22 136q0 92 45 137
q96 96 280 145q188 50 437 50q197 0 350 -74q152 -74 236 -207q83 -132 83 -307q0 -150 -92 -277q-91 -126 -254 -210zM700 1059q0 -154 -2 -324q149 33 241 113q91 79 91 184q0 68 -65 108t-179 40q-75 0 -153 -15q67 -40 67 -106z" />
    <glyph glyph-name="s" unicode="s" horiz-adv-x="1290" 
d="M734 860q139 -94 364 -213q69 -37 106 -58q45 -25 45 -32q0 -180 -79 -313q-80 -134 -223 -204q-145 -71 -337 -71q-166 0 -305 40q-140 40 -207 104q-57 57 -57 163q0 122 76 256q76 -38 189 -64t204 -26q75 0 121 16q43 15 43 42q0 9 -35 30q-37 23 -113 62
q-200 103 -323 192q-125 90 -125 183q0 188 90 338q90 149 252 232q163 83 366 83q94 0 210 -26q115 -26 196 -64q35 -172 35 -301q0 -69 -13 -128q-12 -55 -32 -75q-61 -61 -193 -61q-99 0 -211 41v208q-89 -28 -136 -75q-50 -50 -50 -111q0 -72 142 -168z" />
    <glyph glyph-name="t" unicode="t" horiz-adv-x="1148" 
d="M1118 1382q0 -124 -39 -196t-108 -72h-183q31 -39 31 -86l-4 -1026q-126 -22 -223 -22q-148 0 -230 41q-83 41 -83 118q0 137 12 410q9 214 31 563l-281 -2q-4 135 17 251q21 112 61 152q51 51 271 72t702 21q26 -114 26 -224z" />
    <glyph glyph-name="u" unicode="u" horiz-adv-x="1546" 
d="M280 132q-178 164 -178 456q0 256 18 536q18 287 46 457q115 23 225 23q126 0 198 -33q73 -33 73 -94q0 -72 -11 -250q-18 -347 -18 -539q0 -106 41 -167q40 -60 112 -60q76 0 119 62t43 173q0 546 -14 871q108 41 211 41q69 0 131 -20q59 -19 96 -56q42 -42 67 -291
q25 -246 25 -620q0 -190 -86 -339q-85 -148 -242 -231q-155 -82 -360 -82q-320 0 -496 163z" />
    <glyph glyph-name="v" unicode="v" horiz-adv-x="1501" 
d="M872 1004q-66 -288 -137 -500q-80 493 -125 934q-7 77 -91 118t-220 41q-117 0 -258 -30q17 -232 79 -576q59 -329 131 -594q71 -259 114 -303q53 -53 158 -83q101 -29 237 -29q122 0 246 24q175 356 302 758q128 406 152 672q7 78 -104 127t-297 49q-40 0 -70 -2
q-49 -307 -117 -606z" />
    <glyph glyph-name="w" unicode="w" horiz-adv-x="2301" 
d="M1858 1606q185 0 299 -50q111 -49 104 -127q-23 -264 -154 -671q-129 -403 -303 -752q-106 -20 -229 -20q-128 0 -225 25q-98 25 -146 73q-16 16 -45 120q-30 111 -59 259q-79 -239 -180 -457q-102 -24 -203 -24q-113 0 -204 28q-92 28 -148 84q-44 44 -113 303
q-72 271 -130 594q-60 335 -81 576q141 30 258 30q138 0 222 -41t91 -118q55 -497 127 -942q65 205 118 472q56 284 85 552q69 14 150 14q134 0 219 -50q84 -50 92 -136q23 -223 57 -428q37 -223 78 -422q71 214 137 503q68 301 113 603q32 2 70 2z" />
    <glyph glyph-name="x" unicode="x" horiz-adv-x="1492" 
d="M1450 270q-101 -138 -209 -214q-105 -74 -192 -74q-89 0 -138 73q-97 140 -194 381q-102 -207 -219 -477q-187 44 -299 134q-111 89 -111 196q0 47 21 88q41 83 125 195q91 121 198 235l-156 225q-161 233 -235 340q99 120 203 184t190 64q109 0 172 -90
q105 -154 189 -414q122 258 200 510q211 -38 332 -119q123 -83 123 -180q0 -33 -20 -76q-48 -93 -155 -242q-106 -147 -222 -284q143 -174 397 -455z" />
    <glyph glyph-name="y" unicode="y" horiz-adv-x="1505" 
d="M1348 1029q-132 -268 -351 -589q5 -172 15 -385l2 -55q-138 -23 -236 -23q-154 0 -243 43q-91 44 -91 119q0 96 27 369q-92 124 -209 410q-122 298 -221 636q148 35 260 35q133 0 219 -42t101 -117l137 -584q64 170 124 355q68 211 122 403q30 2 67 2q184 0 299 -50
t115 -129q0 -119 -137 -398z" />
    <glyph glyph-name="z" unicode="z" horiz-adv-x="1368" 
d="M1276 510q20 -90 20 -182q0 -148 -57 -236t-158 -88h-632q-95 0 -180 51q-83 50 -145 144q-61 92 -83 209q35 86 225 261q181 166 488 421l-633 -15q-19 105 -19 185q0 143 52 232q51 87 141 87h647q87 0 178 -73t149 -186t58 -224q-250 -285 -575 -615z" />
    <glyph glyph-name="braceleft" unicode="{" horiz-adv-x="1300" 
d="M1280 -29q0 -121 -48 -191q-48 -71 -134 -71q-301 0 -468 23q-163 22 -212 71q-55 57 -75 238q-19 180 -24 547q-47 -4 -83 -4q-64 0 -99 51q-35 52 -35 141q0 94 33 201q61 -4 94 -4q89 0 90 12q15 342 47 520q32 175 91 234q60 60 237 94q181 35 428 35q74 0 116 -63
t42 -169q0 -82 -29 -192h-381q-5 -246 -46 -412q-42 -167 -130 -272q154 -186 166 -615h397q23 -103 23 -174z" />
    <glyph glyph-name="bar" unicode="|" horiz-adv-x="604" 
d="M126 -210q66 -32 177 -32q115 0 240 29q-21 753 -21 1933q0 52 -52 80q-53 29 -144 29q-84 0 -205 -29q-60 -1650 -60 -1923q0 -55 65 -87z" />
    <glyph glyph-name="braceright" unicode="}" horiz-adv-x="1323" 
d="M1186 943q35 -53 35 -144q0 -93 -33 -199q-61 4 -96 4q-87 0 -91 -12q-15 -349 -46 -520q-32 -175 -91 -234q-60 -60 -237 -94q-181 -35 -428 -35q-73 0 -116 64q-42 63 -42 170q0 80 29 190h381q5 244 46 411q42 168 128 271q-152 191 -164 617h-398q-22 98 -22 174
q0 120 48 191t134 71q304 0 471 -22q160 -21 209 -70q56 -60 75 -241q18 -171 23 -544q47 4 84 4q67 0 101 -52z" />
    <glyph glyph-name="exclamdown" unicode="&#xa1;" horiz-adv-x="806" 
d="M289 1278q91 -31 233 -31q76 0 148 8q15 59 25 131q10 75 10 113q0 61 -71 94t-194 33q-104 0 -207 -20q-13 -40 -23 -114q-9 -69 -9 -128q0 -56 88 -86zM219 -4q95 -43 260 -43q113 0 215 16q-20 696 -20 1016q0 78 -68 120t-182 42q-92 0 -197 -27q-42 -272 -74 -576
q-30 -283 -30 -427q0 -77 96 -121z" />
    <glyph glyph-name="cent" unicode="&#xa2;" horiz-adv-x="1368" 
d="M1312 410q27 -69 27 -131q0 -75 -34 -121q-106 -149 -367 -178l2 -302q-102 -16 -180 -16q-129 0 -210 38q-79 37 -79 103q0 99 43 215q-212 78 -333 265q-120 186 -120 452q0 177 65 337q64 158 180 280q114 120 267 188v322q102 16 181 16q130 0 209 -38
q77 -37 77 -103q0 -61 -16 -131q125 -16 240 -58q41 -185 41 -334q0 -94 -17 -165t-47 -101q-53 -53 -176 -53q-103 0 -223 41l4 100l6 148q-128 -21 -208 -129q-79 -107 -79 -269q0 -143 84 -233t219 -90q96 0 199 22t168 56q50 -62 77 -131z" />
    <glyph glyph-name="sterling" unicode="&#xa3;" horiz-adv-x="1425" 
d="M1386 303q0 -140 -43 -223q-43 -84 -118 -84h-1194q-4 131 17 246q21 111 61 151q23 23 116 39l2 236q-74 -2 -157 -2q-4 25 -4 41q0 72 36 108q12 13 125 23l2 264q0 148 89 272q89 123 242 194q152 70 337 70q82 0 196 -24q106 -22 207 -64q35 -135 35 -258
q0 -136 -45 -180q-21 -21 -70 -33q-50 -12 -116 -12q-95 0 -217 25v155q-49 0 -79 -35q-30 -34 -30 -94q0 -138 -6 -252q196 4 348 4q15 -55 15 -100q0 -46 -16 -73q-15 -25 -42 -25q-147 0 -327 -2q-15 -109 -48 -197q276 12 668 12q16 -86 16 -182z" />
    <glyph glyph-name="yen" unicode="&#xa5;" horiz-adv-x="1503" 
d="M1307 682q16 -60 16 -102q0 -46 -15 -71q-15 -26 -42 -26h-250l-31 -47l2 -51q127 0 268 -4q17 -63 17 -102q0 -44 -16 -71q-15 -26 -42 -26l-219 2l9 -186q-138 -23 -236 -23q-155 0 -245 43q-91 43 -91 119q0 30 2 62l-256 8q-4 25 -4 41q0 71 37 108q12 12 68 16
q75 6 170 11q5 83 8 102q-128 2 -273 2q-4 25 -4 41q0 72 37 109q13 13 158 25q-94 175 -174 376q-72 180 -170 514q148 35 258 35q133 0 219 -42q85 -42 100 -118q18 -53 90 -376q38 -176 47 -209q57 146 122 344q71 217 126 416q30 2 68 2q182 0 297 -50t115 -129
q0 -89 -90 -290t-242 -453h166z" />
    <glyph glyph-name="section" unicode="&#xa7;" horiz-adv-x="1368" 
d="M726 983q120 -74 312 -172q142 -73 205 -110q64 -38 64 -60q0 -276 -85 -498t-234 -350q-148 -127 -331 -127q-176 0 -316 41q-137 40 -210 113q-68 68 -68 176q0 119 80 231q75 -38 190 -64q113 -26 204 -26q79 0 132 24q52 24 52 60q0 10 -36 31q-31 18 -120 61
q-208 103 -343 194q-130 88 -130 181q0 299 96 536q94 233 267 369q169 133 385 133q98 0 210 -25q111 -25 193 -65q35 -172 35 -303q0 -74 -12 -128t-33 -75q-61 -61 -191 -61q-106 0 -213 43v205q-91 -30 -153 -90t-62 -119q0 -55 112 -125zM973 477q0 53 -29 82
q-41 41 -188 131q-141 86 -346 195q-15 -29 -15 -68q0 -51 27 -78q43 -43 195 -136q146 -89 344 -193q12 34 12 67z" />
    <glyph glyph-name="copyright" unicode="&#xa9;" horiz-adv-x="1046" 
d="M783 1552q94 -53 148 -146t54 -206q0 -144 -66 -256q-65 -111 -186 -177q-119 -65 -266 -65q-114 0 -208 53q-93 52 -145 145q-53 94 -53 208q0 139 68 254t184 179q118 65 262 65q112 0 208 -54zM651 891q75 43 119 120q43 76 43 173q0 125 -67 201q-66 75 -179 75
q-147 0 -241 -94q-95 -95 -95 -244q0 -117 71 -196q70 -78 179 -78q94 0 170 43zM635 1108q27 -28 27 -68q0 -19 -13 -32q-49 -43 -133 -43q-72 0 -120 49q-48 50 -48 123q0 91 55 147q55 57 144 57q52 0 98 -14q10 -49 10 -84q0 -45 -14 -59q-13 -13 -45 -13q-24 0 -55 11
l2 57q-29 -5 -48 -27q-20 -23 -20 -51q0 -30 22 -50q20 -19 54 -19q48 0 84 16zM543 1274v-2v2z" />
    <glyph glyph-name="ordfeminine" unicode="&#xaa;" horiz-adv-x="792" 
d="M752 1010q0 -37 -19 -56t-57 -31t-78 -12q-50 0 -97 30t-71 75q-52 -49 -102 -76q-53 -29 -99 -29q-77 0 -133 53q-55 52 -55 126q0 110 79 179q78 68 206 68q60 0 104 -18l2 43q0 59 -121 59q-84 0 -153 -20q-23 46 -23 88q0 47 27 74q47 47 205 47q76 0 144 -28
q65 -27 104 -75q38 -47 38 -102q0 -45 -12 -135q-12 -82 -12 -115q0 -25 10 -39t27 -14q35 0 57 14q29 -58 29 -106zM357 1127q32 26 53 71q-48 16 -88 16q-42 0 -67 -16q-26 -17 -26 -45q0 -51 60 -51q37 0 68 25z" />
    <glyph glyph-name="guillemotleft" unicode="&#xab;" horiz-adv-x="1628" 
d="M403 731l471 -663q-80 -65 -156 -94q-80 -31 -159 -31q-119 0 -190 71q-31 31 -127 223q-94 189 -222 474q92 337 168 564q76 226 109 259q57 57 145 57q73 0 153 -41t153 -118zM1133 743l475 -651q-74 -62 -156 -93q-84 -32 -156 -32q-116 0 -190 74q-34 34 -132 221
q-94 179 -226 459q83 319 158 536q80 233 114 267q57 57 145 57q73 0 153 -41q77 -39 152 -119z" />
    <glyph glyph-name="registered" unicode="&#xae;" horiz-adv-x="1046" 
d="M785 1552q95 -54 147 -146q53 -94 53 -206q0 -144 -66 -256q-65 -111 -186 -177q-119 -65 -266 -65q-114 0 -208 53q-93 52 -145 145q-53 94 -53 208q0 140 68 255q68 114 185 178q119 65 264 65q111 0 207 -54zM653 891q75 43 119 120q43 76 43 173q0 126 -66 201
t-180 75q-147 0 -241 -94q-95 -95 -95 -244q0 -117 71 -196q70 -78 179 -78q94 0 170 43zM669 1159q-15 -30 -40 -55l76 -41q-16 -41 -41 -66q-26 -26 -54 -26q-30 0 -60 40q-29 39 -44 99l14 4q27 10 42 30q16 21 16 46q0 41 -56 41q-17 0 -33 -2l-2 -250q-20 -2 -41 -2
q-43 0 -66 10q-24 11 -24 31q0 71 25 188q-25 31 -25 68q0 30 50 53q51 23 116 23q70 0 116 -37t46 -94q0 -30 -15 -60z" />
    <glyph glyph-name="degree" unicode="&#xb0;" horiz-adv-x="770" 
d="M155 1038q-94 86 -94 238q0 138 89 233t235 95q150 0 237 -95t87 -233q0 -151 -93 -238q-92 -86 -231 -86q-136 0 -230 86zM312 1390q-29 -35 -29 -102q0 -62 28 -97q29 -36 74 -36q47 0 76 36q28 35 28 97q0 67 -29 102t-75 35q-44 0 -73 -35z" />
    <glyph glyph-name="plusminus" unicode="&#xb1;" horiz-adv-x="1298" 
d="M420 776l-328 -2q-10 73 -10 123q0 142 57 193q42 31 305 43l21 274q121 29 205 29q89 0 142 -29q52 -28 52 -80l4 -184q132 2 326 2q23 -104 23 -170q0 -94 -35 -146q-34 -51 -99 -51h-204l8 -278q-125 -29 -240 -29q-111 0 -177 32q-64 31 -64 87zM1217 213
q0 -89 -34 -133q-35 -45 -98 -45l-993 -4q-10 73 -10 116q0 128 59 177q38 35 165 47q128 12 394 12q127 0 400 -4h94q23 -103 23 -166z" />
    <glyph glyph-name="uni00B2" unicode="&#xb2;" horiz-adv-x="555" 
d="M238 1280q-74 -73 -197 -152q0 -28 21 -77q20 -47 47 -74q16 -16 89 -20q83 -5 255 -5q26 0 41 26q14 24 14 69q0 44 -16 104q-54 0 -183 -6q95 67 150 135q55 67 55 115q0 55 -36 109t-91 88t-111 34q-141 0 -202 -53q-15 -15 -15 -45q0 -54 41 -131q26 15 73 28t79 13
q63 0 63 -43q0 -39 -77 -115z" />
    <glyph glyph-name="uni00B3" unicode="&#xb3;" horiz-adv-x="559" 
d="M488 1188q30 -40 30 -82q0 -90 -72 -150q-71 -59 -182 -59q-64 0 -118 18q-52 17 -83 50q-20 20 -20 55q0 49 41 113q25 -19 69 -35q42 -15 83 -15q44 0 71 15t27 37q0 41 -115 41q-15 0 -22 23q-9 29 -9 63q0 21 2 43q58 6 91 22q34 16 34 37q0 37 -73 37q-28 0 -71 -8
q-40 -7 -71 -23q-43 55 -43 111q0 30 19 49q27 27 82 42q56 15 123 15q59 0 110 -29q54 -31 85 -80q32 -50 32 -106q0 -24 -27 -56q-30 -35 -67 -61q44 -26 74 -67z" />
    <glyph glyph-name="paragraph" unicode="&#xb6;" horiz-adv-x="1421" 
d="M1384 1278q17 -46 17 -96q0 -84 -45 -168h-139q23 -445 71 -1149q-130 -23 -250 -23q-132 0 -211 32q-77 31 -77 89q0 145 18 432q18 289 51 619h-162q-2 -215 -16 -403q-15 -199 -37 -296q-147 0 -273 70q-125 69 -197 189q-73 122 -73 264q0 190 83 338q82 147 233 228
q150 81 344 81q226 0 392 -35q162 -34 224 -96q30 -30 47 -76z" />
    <glyph glyph-name="periodcentered" unicode="&#xb7;" horiz-adv-x="669" 
d="M184 397q54 -16 125 -16q115 0 246 45q53 126 53 233q0 101 -45 146q-67 67 -213 67q-105 0 -225 -38q-64 -154 -64 -269q0 -84 35 -119q32 -32 88 -49z" />
    <glyph glyph-name="uni00B9" unicode="&#xb9;" horiz-adv-x="464" 
d="M164 1624q36 4 57 4q65 0 103 -19t38 -53l-2 -579q-69 -10 -116 -10q-55 0 -88 12t-33 33q0 70 20 327q-69 17 -102 54z" />
    <glyph glyph-name="ordmasculine" unicode="&#xba;" horiz-adv-x="745" 
d="M133 1005q-92 94 -92 259q0 90 41 170t117 128t174 48q97 0 174 -48q76 -48 117 -128t41 -170q0 -164 -93 -259q-92 -94 -239 -94q-148 0 -240 94zM303 1378q-24 -40 -24 -106q0 -53 24 -98q25 -46 70 -46q44 0 69 46q25 47 25 98q0 65 -26 106t-68 41q-46 0 -70 -41z
" />
    <glyph glyph-name="guillemotright" unicode="&#xbb;" horiz-adv-x="1593" 
d="M1383 1287q94 -210 190 -464q-87 -302 -178 -553q-85 -234 -121 -270q-57 -57 -146 -57q-72 0 -152 41t-153 118l367 703l-436 661q80 64 157 95q80 32 158 32q118 0 191 -73q34 -34 123 -233zM643 1275q92 -194 203 -462q-91 -312 -175 -538q-85 -230 -120 -265
q-57 -57 -145 -57q-73 0 -153 41q-78 40 -151 119l359 682l-441 647q74 62 156 93q84 32 156 32q116 0 190 -74q33 -33 121 -218z" />
    <glyph glyph-name="onequarter" unicode="&#xbc;" horiz-adv-x="1353" 
d="M1089 1651q72 -51 72 -131q0 -38 -127 -277q-113 -212 -420 -770l-266 -485q-112 21 -187 84t-75 141q0 69 230 487q231 420 585 1002q116 0 188 -51zM115 1339q-67 17 -105 54l125 231q36 4 55 4q65 0 103 -19q39 -19 39 -53l-2 -579q-69 -10 -117 -10q-55 0 -88 12
t-33 33q0 45 23 327zM1286 59q-59 -10 -102 -10q-56 0 -89 13q-34 13 -34 38q0 44 6 105q-64 1 -118 8q-50 6 -58 14q-17 17 -57 73q-37 52 -37 62q0 18 41 121q44 112 102 234q87 -7 143 -33q54 -25 54 -57q0 -6 -4 -17q-47 -97 -142 -248l99 7l18 106q22 2 47 2
q59 0 94 -15t35 -42z" />
    <glyph glyph-name="onehalf" unicode="&#xbd;" horiz-adv-x="1366" 
d="M1086 1651q73 -52 73 -131q0 -52 -227 -479q-234 -441 -586 -1053q-112 21 -187 84t-75 141q0 69 230 487q231 420 585 1002q115 0 187 -51zM113 1339q-70 17 -103 54l123 231q36 4 57 4q65 0 103 -19q39 -19 39 -53l-2 -579q-69 -10 -117 -10q-55 0 -88 12t-33 33
q0 57 21 327zM1296 246q17 -63 17 -105q0 -43 -15 -68q-15 -26 -41 -26q-172 0 -255 5q-73 4 -89 20q-26 26 -46 73q-21 49 -21 78q120 77 196 152q78 76 78 114q0 43 -63 43q-35 0 -79 -12q-47 -13 -73 -28q-41 77 -41 131q0 30 15 45q61 53 202 53q56 0 111 -34t91 -88
t36 -110q0 -47 -55 -114q-56 -67 -150 -135q129 6 182 6z" />
    <glyph glyph-name="threequarters" unicode="&#xbe;" horiz-adv-x="1439" 
d="M1211 1651q73 -52 73 -131q0 -52 -227 -479q-234 -441 -586 -1053q-112 21 -187 84t-75 141q0 61 200 419q206 369 615 1070q115 0 187 -51zM434 956q-71 -59 -182 -59q-64 0 -118 18q-52 17 -83 50q-20 20 -20 55q0 49 41 113q25 -20 68 -35q42 -15 83 -15q45 0 72 15
t27 37q0 41 -115 41q-16 0 -23 23q-8 26 -8 63q0 21 2 43q57 6 90 22q35 17 35 37q0 37 -74 37q-27 0 -70 -8q-40 -7 -71 -23q-43 55 -43 111q0 31 18 49q27 27 82 42t123 15q58 0 111 -30q55 -31 85 -79q32 -50 32 -106q0 -24 -27 -56q-28 -33 -68 -61q46 -27 75 -67
q30 -40 30 -82q0 -90 -72 -150zM1393 39q-59 -10 -103 -10q-56 0 -89 13q-34 13 -34 38q0 32 7 104q-54 1 -118 9q-51 6 -59 14q-17 17 -57 73q-37 52 -37 62q0 18 41 121q36 92 103 233q89 -7 143 -32q53 -24 53 -58q0 -5 -4 -16q-51 -104 -141 -248l98 6l18 107q22 2 48 2
q57 0 94 -16q35 -15 35 -42z" />
    <glyph glyph-name="questiondown" unicode="&#xbf;" horiz-adv-x="1138" 
d="M866 1581q-79 29 -211 29q-88 0 -170 -11q-13 -55 -20 -117q-8 -70 -8 -116q0 -58 63 -89q64 -32 176 -32q91 0 219 25q15 49 21 106q8 70 8 125q0 51 -78 80zM481 1023q-16 -54 -41 -77q-32 -36 -137 -121q-128 -101 -193 -174q-69 -77 -69 -147q0 -110 84 -235
q84 -124 209 -207q124 -82 235 -82q153 0 292 38q142 39 200 97q45 45 45 139q0 54 -19 125q-17 65 -53 133q-57 -29 -144 -47q-93 -19 -173 -19q-129 0 -208 22q-75 21 -75 60q0 26 61 64q51 32 173 92q100 51 134 70q48 27 70 49q42 42 61 97q19 56 19 136q0 52 -74 80
q-76 29 -202 29q-73 0 -184 -14q4 -54 -11 -108z" />
    <glyph glyph-name="Agrave" unicode="&#xc0;" horiz-adv-x="1550" 
d="M1362 903q78 -360 168 -883q-2 0 -90 -15t-219 -15q-227 0 -248 92l-31 170h-371l-43 -246q-51 -12 -149 -12q-131 0 -221 34q-92 35 -92 115q0 43 14 107h-47q-13 93 -13 145q0 114 54 162q44 21 80 31q80 323 177 602q97 280 165 348q76 76 307 76q111 0 233 -17
q124 -17 156 -30q93 -308 170 -664zM870 664l-92 538q-57 -196 -129 -547q73 4 221 9zM1077 1969q-52 90 -120 155t-117 65q-88 0 -183 -63q-93 -62 -151 -164l416 -285q90 11 148 49q58 39 58 91q0 63 -51 152z" />
    <glyph glyph-name="Aacute" unicode="&#xc1;" horiz-adv-x="1550" 
d="M1362 903q78 -360 168 -883q-2 0 -90 -15t-219 -15q-227 0 -248 92l-31 170h-371l-43 -246q-51 -12 -149 -12q-131 0 -221 34q-92 35 -92 115q0 43 14 107h-47q-13 93 -13 145q0 114 54 162q44 21 80 31q80 323 177 602q97 280 165 348q76 76 307 76q111 0 233 -17
q124 -17 156 -30q93 -308 170 -664zM870 664l-92 538q-57 -196 -129 -547q73 4 221 9zM602 1701q-67 30 -96 77l250 417q163 -6 268 -60q104 -53 104 -132q0 -51 -69 -131q-68 -78 -162 -140q-93 -61 -152 -61q-75 0 -143 30z" />
    <glyph glyph-name="Acircumflex" unicode="&#xc2;" horiz-adv-x="1550" 
d="M1362 903q78 -360 168 -883q-2 0 -90 -15t-219 -15q-227 0 -248 92l-31 170h-371l-43 -246q-51 -12 -149 -12q-131 0 -221 34q-92 35 -92 115q0 43 14 107h-47q-13 93 -13 145q0 114 54 162q44 21 80 31q80 323 177 602q97 280 165 348q76 76 307 76q111 0 233 -17
q124 -17 156 -30q93 -308 170 -664zM870 664l-92 538q-57 -196 -129 -547q73 4 221 9zM1038 2097q140 -82 314 -205q-29 -92 -102 -157q-72 -64 -146 -64q-58 0 -134 69q-79 71 -151 183l-254 -221q-86 23 -144 81q-56 56 -56 118q0 44 89 110q86 64 209 115q119 49 201 49
q40 0 174 -78z" />
    <glyph glyph-name="Atilde" unicode="&#xc3;" horiz-adv-x="1550" 
d="M1362 903q78 -360 168 -883q-2 0 -90 -15t-219 -15q-227 0 -248 92l-31 170h-371l-43 -246q-51 -12 -149 -12q-131 0 -221 34q-92 35 -92 115q0 43 14 107h-47q-13 93 -13 145q0 114 54 162q44 21 80 31q80 323 177 602q97 280 165 348q76 76 307 76q111 0 233 -17
q124 -17 156 -30q93 -308 170 -664zM870 664l-92 538q-57 -196 -129 -547q73 4 221 9zM1208 1845q0 -73 -24 -116t-72 -43q-289 0 -643 -13q-43 90 -43 168q0 57 27 84q42 42 216 61q171 19 517 19q22 -81 22 -160z" />
    <glyph glyph-name="Adieresis" unicode="&#xc4;" horiz-adv-x="1550" 
d="M1362 903q78 -360 168 -883q-2 0 -90 -15t-219 -15q-227 0 -248 92l-31 170h-371l-43 -246q-51 -12 -149 -12q-131 0 -221 34q-92 35 -92 115q0 43 14 107h-47q-13 93 -13 145q0 114 54 162q44 21 80 31q80 323 177 602q97 280 165 348q76 76 307 76q111 0 233 -17
q124 -17 156 -30q93 -308 170 -664zM870 664l-92 538q-57 -196 -129 -547q73 4 221 9zM352 1782q73 -53 183 -53q37 0 75 35q41 38 64 91q24 55 24 109q0 81 -65 127q-67 47 -178 47q-43 0 -84 -32q-42 -33 -66 -83q-24 -51 -24 -106q0 -83 71 -135zM1006 1782
q73 -53 182 -53q38 0 76 35q39 36 63 91q25 58 25 109q0 82 -66 128q-65 46 -180 46q-42 0 -83 -32t-65 -83t-24 -106q0 -83 72 -135z" />
    <glyph glyph-name="Aring" unicode="&#xc5;" horiz-adv-x="1550" 
d="M1362 903q78 -360 168 -883q-2 0 -90 -15t-219 -15q-227 0 -248 92l-31 170h-371l-43 -246q-51 -12 -149 -12q-131 0 -221 34q-92 35 -92 115q0 43 14 107h-47q-13 93 -13 145q0 114 54 162q44 21 80 31q80 323 177 602q97 280 165 348q76 76 307 76q111 0 233 -17
q124 -17 156 -30q93 -308 170 -664zM870 664l-92 538q-57 -196 -129 -547q73 4 221 9zM989 2218q62 -38 97 -98q36 -62 36 -135q0 -150 -89 -231t-251 -81q-113 0 -193 74q-79 73 -79 182q0 149 94 237q95 89 252 89q72 0 133 -37zM884 1892q29 29 29 84q0 49 -19 72
q-20 25 -58 25q-49 0 -79 -33t-30 -90q0 -41 21 -65q20 -23 53 -23q53 0 83 30z" />
    <glyph glyph-name="AE" unicode="&#xc6;" horiz-adv-x="2097" 
d="M2039 370q21 -75 21 -139q0 -96 -45 -141q-60 -60 -194 -94q-137 -35 -308 -35q-169 0 -303 74q-133 73 -225 215h-424q-21 -143 -31 -246q-66 -10 -153 -10q-146 0 -230 40q-86 41 -86 109q0 32 11 107h-39q-13 65 -13 119q0 61 14 112q13 49 40 76q19 19 71 37
q78 304 182 600q103 293 154 344q57 57 236 57q138 0 336 -39q98 29 322 41q245 13 655 13q28 -128 28 -226q0 -122 -39 -193t-108 -71l-664 -4l-2 -151q74 10 223 10l308 -2q18 -83 18 -152q0 -83 -27 -133q-27 -49 -73 -49h-400q82 -190 316 -190q92 0 191 20
q103 21 175 51q45 -84 63 -150zM834 668q-29 176 -29 366q0 110 10 250q-98 -226 -182 -625q153 9 201 9z" />
    <glyph glyph-name="Ccedilla" unicode="&#xc7;" horiz-adv-x="1372" 
d="M1206 82q-137 -80 -336 -92q-33 -25 -52 -52q-21 -30 -21 -55q58 -34 98 -90q39 -55 39 -104q0 -96 -77 -158q-76 -61 -198 -61q-44 0 -113 9q-77 10 -130 23q-19 65 -19 111q0 55 22 86t64 31q71 0 103 19t32 61q0 22 -17 42t-44 35q0 68 47 121q-244 57 -394 247
q-149 190 -149 495q0 265 125 465q125 201 322 306q196 105 405 105q219 0 349 -63q41 -208 41 -355q0 -107 -20 -172q-20 -63 -70 -94q-51 -31 -142 -31q-63 0 -131 14q-70 14 -98 27q7 151 8 246q-127 -21 -206 -130t-79 -267q0 -139 83 -231q82 -91 220 -91q200 0 367 76
q27 -28 69 -111q39 -77 39 -155q0 -127 -137 -207z" />
    <glyph glyph-name="Egrave" unicode="&#xc8;" horiz-adv-x="1374" 
d="M1210 530q90 -180 90 -309q0 -141 -151 -201q-149 -59 -391 -59q-159 0 -309 59q-156 61 -261 203q-106 143 -106 375q0 292 84 526q-38 -2 -80 -2q0 91 22 234q21 137 66 170q52 52 320 72q272 20 813 20q6 -24 19 -100q11 -66 11 -142q0 -112 -33 -178
q-35 -70 -118 -70h-137h-426q-32 -120 -41 -167q81 7 188 8q152 2 246 2q14 -32 19 -73q5 -45 5 -103q0 -146 -90 -146h-389q18 -100 86 -148t172 -48q231 0 391 77zM1010 2010q-52 90 -120 155t-118 65q-88 0 -182 -63q-95 -63 -152 -164l416 -285q90 11 148 49
q59 39 59 91q0 64 -51 152z" />
    <glyph glyph-name="Eacute" unicode="&#xc9;" horiz-adv-x="1374" 
d="M1210 530q90 -180 90 -309q0 -141 -151 -201q-149 -59 -391 -59q-159 0 -309 59q-156 61 -261 203q-106 143 -106 375q0 292 84 526q-38 -2 -80 -2q0 91 22 234q21 137 66 170q52 52 320 72q272 20 813 20q6 -24 19 -100q11 -66 11 -142q0 -112 -33 -178
q-35 -70 -118 -70h-137h-426q-32 -120 -41 -167q81 7 188 8q152 2 246 2q14 -32 19 -73q5 -45 5 -103q0 -146 -90 -146h-389q18 -100 86 -148t172 -48q231 0 391 77zM535 1742q-68 30 -97 77l250 417q163 -6 268 -60t105 -132q0 -50 -70 -131q-68 -78 -162 -140
q-93 -61 -151 -61q-76 0 -143 30z" />
    <glyph glyph-name="Ecircumflex" unicode="&#xca;" horiz-adv-x="1374" 
d="M1210 530q90 -180 90 -309q0 -141 -151 -201q-149 -59 -391 -59q-159 0 -309 59q-156 61 -261 203q-106 143 -106 375q0 292 84 526q-38 -2 -80 -2q0 91 22 234q21 137 66 170q52 52 320 72q272 20 813 20q6 -24 19 -100q11 -66 11 -142q0 -112 -33 -178
q-35 -70 -118 -70h-137h-426q-32 -120 -41 -167q81 7 188 8q152 2 246 2q14 -32 19 -73q5 -45 5 -103q0 -146 -90 -146h-389q18 -100 86 -148t172 -48q231 0 391 77zM971 2138q135 -79 313 -205q-30 -93 -101 -157q-72 -64 -147 -64q-58 0 -134 69t-150 183l-254 -221
q-88 24 -145 81q-56 56 -56 118q0 44 89 110q86 64 209 115q119 49 202 49q41 0 174 -78z" />
    <glyph glyph-name="Edieresis" unicode="&#xcb;" horiz-adv-x="1374" 
d="M1210 530q90 -180 90 -309q0 -141 -151 -201q-149 -59 -391 -59q-159 0 -309 59q-156 61 -261 203q-106 143 -106 375q0 292 84 526q-38 -2 -80 -2q0 91 22 234q21 137 66 170q52 52 320 72q272 20 813 20q6 -24 19 -100q11 -66 11 -142q0 -112 -33 -178
q-35 -70 -118 -70h-137h-426q-32 -120 -41 -167q81 7 188 8q152 2 246 2q14 -32 19 -73q5 -45 5 -103q0 -146 -90 -146h-389q18 -100 86 -148t172 -48q231 0 391 77zM285 1823q74 -54 182 -54q37 0 76 36t63 91q25 58 25 109q0 81 -66 127q-67 47 -178 47q-43 0 -84 -32
t-65 -83q-25 -53 -25 -106q0 -82 72 -135zM938 1823q74 -54 182 -54q37 0 76 36q41 38 64 91q24 56 24 109q0 82 -65 128t-181 46q-42 0 -83 -32q-39 -31 -64 -83q-25 -53 -25 -106q0 -82 72 -135z" />
    <glyph glyph-name="Igrave" unicode="&#xcc;" horiz-adv-x="796" 
d="M449 -16q-146 0 -234 33q-92 35 -92 120q-2 161 13 539q14 357 20 473l16 422q34 9 106 19q66 9 134 9q262 0 262 -165q6 -598 20 -1432q-147 -18 -245 -18zM680 1979q-52 90 -120 155q-69 66 -118 66q-86 0 -182 -64q-93 -62 -151 -164l415 -284q92 11 149 49
q58 39 58 90q0 63 -51 152z" />
    <glyph glyph-name="Iacute" unicode="&#xcd;" horiz-adv-x="796" 
d="M449 -16q-146 0 -234 33q-92 35 -92 120q-2 161 13 539q14 357 20 473l16 422q34 9 106 19q66 9 134 9q262 0 262 -165q6 -598 20 -1432q-147 -18 -245 -18zM205 1711q-67 30 -96 77l249 418q162 -6 269 -61q104 -53 104 -132q0 -51 -69 -131q-68 -78 -162 -140
q-93 -61 -152 -61q-76 0 -143 30z" />
    <glyph glyph-name="Icircumflex" unicode="&#xce;" horiz-adv-x="796" 
d="M449 -16q-146 0 -234 33q-92 35 -92 120q-2 161 13 539q14 357 20 473l16 422q34 9 106 19q66 9 134 9q262 0 262 -165q6 -598 20 -1432q-147 -18 -245 -18zM641 2107q143 -83 313 -204q-30 -95 -101 -158q-72 -64 -146 -64q-59 0 -135 69t-150 183l-254 -221
q-86 23 -144 81q-57 57 -57 118q0 44 89 110q86 64 209 115q119 49 202 49q41 0 174 -78z" />
    <glyph glyph-name="Idieresis" unicode="&#xcf;" horiz-adv-x="796" 
d="M449 -16q-146 0 -234 33q-92 35 -92 120q-2 161 13 539q14 357 20 473l16 422q34 9 106 19q66 9 134 9q262 0 262 -165q6 -598 20 -1432q-147 -18 -245 -18zM-45 1792q73 -53 182 -53q37 0 76 36t63 91q25 58 25 108q0 81 -65 127q-67 47 -179 47q-44 0 -84 -31
q-41 -32 -65 -83q-25 -53 -25 -107q0 -83 72 -135zM608 1792q73 -53 183 -53q36 0 75 36q41 38 64 91q24 56 24 108q0 82 -65 128t-180 46q-43 0 -83 -31q-41 -32 -65 -83t-24 -107q0 -83 71 -135z" />
    <glyph glyph-name="Eth" unicode="&#xd0;" horiz-adv-x="1675" 
d="M1210 1522q184 -105 294 -281t110 -383q0 -252 -95 -450q-94 -196 -292 -311q-195 -113 -490 -113q-153 0 -285 64q-133 64 -213 170q-79 104 -79 218q0 138 4 203l-180 4q-33 51 -33 111q0 59 35 94t194 47l13 152l-54 -27q-21 39 -39 126t-18 142q0 182 213 260t520 78
q212 0 395 -104zM1036 540q78 98 78 289q0 142 -83 242q-82 98 -255 98q-48 0 -117 -4q35 -35 35 -82q0 -82 -6 -184l148 -6q26 -81 26 -137q0 -57 -24 -90t-70 -33h-92v-27q0 -78 39 -121t110 -43q133 0 211 98z" />
    <glyph glyph-name="Ntilde" unicode="&#xd1;" horiz-adv-x="1679" 
d="M1577 819l-2 -719v-94q-119 -35 -225 -35q-211 0 -340 129q-85 85 -191 264q-107 181 -201 377l19 -755q-75 -11 -176 -11q-140 0 -240 38q-98 37 -98 137q-2 136 18 626q22 546 37 785q132 22 225 22q186 0 269 -82q66 -66 187 -268q110 -184 245 -449l2 791
q111 18 205 18q260 0 260 -153q6 -224 6 -621zM1292 1886q0 -74 -24 -117t-72 -43q-316 0 -643 -12q-43 90 -43 168q0 57 27 84q41 40 216 60q180 20 517 20q22 -81 22 -160z" />
    <glyph glyph-name="Ograve" unicode="&#xd2;" 
d="M416 73q-168 104 -261 292q-94 191 -94 436q0 205 92 394q91 187 263 305t401 118q230 0 400 -116q169 -115 258 -302q88 -185 88 -393q0 -233 -100 -427q-99 -191 -273 -301q-175 -110 -389 -110q-216 0 -385 104zM984 544q67 94 67 251q0 199 -69 298t-175 99
q-107 0 -171 -98q-65 -100 -65 -299q0 -159 64 -252q63 -92 172 -92q111 0 177 93zM1114 1990q-50 87 -120 154q-69 66 -117 66q-87 0 -183 -64q-93 -62 -151 -164l415 -284q92 11 149 49q58 39 58 90q0 65 -51 153z" />
    <glyph glyph-name="Oacute" unicode="&#xd3;" 
d="M416 73q-168 104 -261 292q-94 191 -94 436q0 205 92 394q91 187 263 305t401 118q230 0 400 -116q169 -115 258 -302q88 -185 88 -393q0 -233 -100 -427q-99 -191 -273 -301q-175 -110 -389 -110q-216 0 -385 104zM984 544q67 94 67 251q0 199 -69 298t-175 99
q-107 0 -171 -98q-65 -100 -65 -299q0 -159 64 -252q63 -92 172 -92q111 0 177 93zM639 1721q-67 30 -96 77l250 418q163 -6 268 -60q104 -53 104 -133q0 -51 -69 -131q-68 -78 -162 -140q-91 -60 -152 -60q-78 0 -143 29z" />
    <glyph glyph-name="Ocircumflex" unicode="&#xd4;" 
d="M416 73q-168 104 -261 292q-94 191 -94 436q0 205 92 394q91 187 263 305t401 118q230 0 400 -116q169 -115 258 -302q88 -185 88 -393q0 -233 -100 -427q-99 -191 -273 -301q-175 -110 -389 -110q-216 0 -385 104zM984 544q67 94 67 251q0 199 -69 298t-175 99
q-107 0 -171 -98q-65 -100 -65 -299q0 -159 64 -252q63 -92 172 -92q111 0 177 93zM1075 2118q140 -82 314 -205q-30 -93 -102 -158q-71 -63 -146 -63q-59 0 -134 68q-77 70 -151 184l-254 -222q-86 23 -144 81q-57 57 -57 118q0 45 89 111q83 62 209 114q119 49 202 49
q42 0 174 -77z" />
    <glyph glyph-name="Otilde" unicode="&#xd5;" 
d="M416 73q-168 104 -261 292q-94 191 -94 436q0 205 92 394q91 187 263 305t401 118q230 0 400 -116q169 -115 258 -302q88 -185 88 -393q0 -233 -100 -427q-99 -191 -273 -301q-175 -110 -389 -110q-216 0 -385 104zM984 544q67 94 67 251q0 199 -69 298t-175 99
q-107 0 -171 -98q-65 -100 -65 -299q0 -159 64 -252q63 -92 172 -92q111 0 177 93zM1245 1866q0 -74 -24 -117t-72 -43q-316 0 -643 -12q-43 90 -43 168q0 58 26 84q40 40 217 60q171 19 517 19q22 -81 22 -159z" />
    <glyph glyph-name="Odieresis" unicode="&#xd6;" 
d="M416 73q-168 104 -261 292q-94 191 -94 436q0 205 92 394q91 187 263 305t401 118q230 0 400 -116q169 -115 258 -302q88 -185 88 -393q0 -233 -100 -427q-99 -191 -273 -301q-175 -110 -389 -110q-216 0 -385 104zM984 544q67 94 67 251q0 199 -69 298t-175 99
q-107 0 -171 -98q-65 -100 -65 -299q0 -159 64 -252q63 -92 172 -92q111 0 177 93zM389 1802q73 -53 182 -53q37 0 76 36q41 38 64 91q24 56 24 109q0 80 -65 126q-68 48 -178 48q-43 0 -84 -32q-42 -33 -66 -83q-25 -53 -25 -107q0 -83 72 -135zM1042 1802q73 -53 183 -53
q36 0 75 36q41 38 64 91q25 58 25 109q0 81 -66 128q-65 46 -180 46q-42 0 -83 -32t-65 -83t-24 -107q0 -83 71 -135z" />
    <glyph glyph-name="multiply" unicode="&#xd7;" horiz-adv-x="1304" 
d="M1150 766q-90 -96 -245 -197q170 -225 301 -362q-30 -96 -119 -159q-87 -62 -192 -62q-47 0 -137 77q-100 85 -207 205l-178 -303q-133 16 -223 100q-89 83 -89 195q0 70 69 150t185 151q-196 274 -196 373q0 83 47 148q46 64 130 99q78 33 187 31q78 -143 230 -372
l225 383q132 -30 219 -115q86 -84 86 -180q0 -63 -93 -162z" />
    <glyph glyph-name="Oslash" unicode="&#xd8;" 
d="M1484 414q-81 -180 -219 -291q-143 -115 -321 -148l2 -192q-70 -25 -125 -25q-67 0 -106 33t-39 92v88q-184 27 -324 138q-139 110 -215 287q-76 176 -76 399q0 211 85 385q85 175 236 288q152 114 337 138l6 190q55 19 96 19q49 0 77 -23t28 -66v-122q180 -26 327 -139
q145 -111 228 -285q82 -173 82 -381q0 -211 -79 -385zM585 599q38 -82 103 -122q4 194 19 684q-76 -39 -118 -136t-42 -239q0 -105 38 -187zM1039 606q38 81 38 180q0 130 -39 224t-108 139l8 -666q64 44 101 123z" />
    <glyph glyph-name="Ugrave" unicode="&#xd9;" horiz-adv-x="1546" 
d="M280 132q-178 164 -178 456q0 256 18 536q18 287 46 457q115 23 225 23q126 0 198 -33q73 -33 73 -94q0 -72 -11 -250q-18 -347 -18 -539q0 -106 41 -167q40 -60 112 -60q76 0 119 62t43 173q0 546 -14 871q108 41 211 41q69 0 131 -20q59 -19 96 -56q42 -42 67 -291
q25 -246 25 -620q0 -190 -86 -339q-85 -148 -242 -231q-155 -82 -360 -82q-320 0 -496 163zM1044 1979q-53 92 -119 155q-69 66 -118 66q-86 0 -182 -64q-95 -63 -152 -164l416 -284q90 11 148 49q59 39 59 90q0 62 -52 152z" />
    <glyph glyph-name="Uacute" unicode="&#xda;" horiz-adv-x="1546" 
d="M280 132q-178 164 -178 456q0 256 18 536q18 287 46 457q115 23 225 23q126 0 198 -33q73 -33 73 -94q0 -72 -11 -250q-18 -347 -18 -539q0 -106 41 -167q40 -60 112 -60q76 0 119 62t43 173q0 546 -14 871q108 41 211 41q69 0 131 -20q59 -19 96 -56q42 -42 67 -291
q25 -246 25 -620q0 -190 -86 -339q-85 -148 -242 -231q-155 -82 -360 -82q-320 0 -496 163zM569 1711q-67 30 -96 77l250 418q161 -6 268 -61q105 -54 105 -132q0 -50 -70 -131q-68 -78 -162 -140q-93 -61 -151 -61q-77 0 -144 30z" />
    <glyph glyph-name="Ucircumflex" unicode="&#xdb;" horiz-adv-x="1546" 
d="M280 132q-178 164 -178 456q0 256 18 536q18 287 46 457q115 23 225 23q126 0 198 -33q73 -33 73 -94q0 -72 -11 -250q-18 -347 -18 -539q0 -106 41 -167q40 -60 112 -60q76 0 119 62t43 173q0 546 -14 871q108 41 211 41q69 0 131 -20q59 -19 96 -56q42 -42 67 -291
q25 -246 25 -620q0 -190 -86 -339q-85 -148 -242 -231q-155 -82 -360 -82q-320 0 -496 163zM1006 2107q143 -83 313 -204q-30 -95 -101 -158q-72 -64 -147 -64q-57 0 -134 69q-79 71 -151 183l-254 -221q-86 23 -144 81q-56 56 -56 118q0 44 89 110q86 64 209 115
q119 49 201 49q41 0 175 -78z" />
    <glyph glyph-name="Udieresis" unicode="&#xdc;" horiz-adv-x="1546" 
d="M280 132q-178 164 -178 456q0 256 18 536q18 287 46 457q115 23 225 23q126 0 198 -33q73 -33 73 -94q0 -72 -11 -250q-18 -347 -18 -539q0 -106 41 -167q40 -60 112 -60q76 0 119 62t43 173q0 546 -14 871q108 41 211 41q69 0 131 -20q59 -19 96 -56q42 -42 67 -291
q25 -246 25 -620q0 -190 -86 -339q-85 -148 -242 -231q-155 -82 -360 -82q-320 0 -496 163zM319 1792q73 -53 183 -53q37 0 76 36t63 91q25 58 25 108q0 80 -66 127q-67 47 -178 47q-44 0 -84 -31q-42 -33 -66 -83q-24 -51 -24 -107q0 -83 71 -135zM973 1792q73 -53 182 -53
q37 0 76 36t63 91q25 58 25 108q0 82 -66 128q-65 46 -180 46q-43 0 -83 -31q-39 -31 -64 -83q-25 -53 -25 -107q0 -83 72 -135z" />
    <glyph glyph-name="Yacute" unicode="&#xdd;" horiz-adv-x="1505" 
d="M1348 1029q-132 -268 -351 -589q5 -172 15 -385l2 -55q-138 -23 -236 -23q-154 0 -243 43q-91 44 -91 119q0 96 27 369q-92 124 -209 410q-122 298 -221 636q148 35 260 35q133 0 219 -42t101 -117l137 -584q64 170 124 355q68 211 122 403q30 2 67 2q184 0 299 -50
t115 -129q0 -119 -137 -398zM580 1721q-68 30 -97 77l250 418q163 -6 268 -60t105 -133q0 -50 -70 -131q-68 -78 -162 -140q-91 -60 -151 -60q-78 0 -143 29z" />
    <glyph glyph-name="Thorn" unicode="&#xde;" horiz-adv-x="1531" 
d="M1381 541q-88 -157 -265 -261q-175 -103 -424 -114l2 -164q-147 -18 -245 -18q-146 0 -234 33q-92 35 -92 120q-2 149 22 735q-35 62 -54 129q-19 66 -19 127q0 91 45 136q47 40 45 39l10 268q34 9 106 19q66 9 134 9q112 0 182 -33q74 -35 80 -116q84 4 149 4
q207 0 354 -81t220 -214t73 -289q0 -171 -89 -329zM913 684q84 84 84 170q0 72 -61 118t-178 46q-29 0 -80 -4l8 -451q143 37 227 121z" />
    <glyph glyph-name="germandbls" unicode="&#xdf;" horiz-adv-x="1634" 
d="M1507 688q86 -89 86 -205q0 -155 -75 -267q-77 -115 -216 -174q-141 -60 -331 -60q-88 0 -137 68q-50 70 -50 186q0 92 29 194q100 0 160 36q59 35 59 97q0 60 -114 60q-52 0 -82 49q-31 51 -31 133q0 35 6 78q82 18 135 71t53 115q0 54 -38 83q-39 30 -109 30
q-92 0 -145 -73q-54 -74 -54 -200v-893q-126 -22 -223 -22q-143 0 -224 40q-83 41 -83 113q0 362 17 570q18 218 56 365q37 143 107 249q88 133 242 213t323 80q183 0 319 -59q139 -60 216 -166q78 -106 78 -244q0 -91 -59 -183t-150 -155q149 -40 235 -129z" />
    <glyph glyph-name="agrave" unicode="&#xe0;" horiz-adv-x="1550" 
d="M1362 903q78 -360 168 -883q-2 0 -90 -15t-219 -15q-227 0 -248 92l-31 170h-371l-43 -246q-51 -12 -149 -12q-131 0 -221 34q-92 35 -92 115q0 43 14 107h-47q-13 93 -13 145q0 114 54 162q44 21 80 31q80 323 177 602q97 280 165 348q76 76 307 76q111 0 233 -17
q124 -17 156 -30q93 -308 170 -664zM870 664l-92 538q-57 -196 -129 -547q73 4 221 9zM1077 1969q-52 90 -120 155t-117 65q-88 0 -183 -63q-93 -62 -151 -164l416 -285q90 11 148 49q58 39 58 91q0 63 -51 152z" />
    <glyph glyph-name="aacute" unicode="&#xe1;" horiz-adv-x="1550" 
d="M1362 903q78 -360 168 -883q-2 0 -90 -15t-219 -15q-227 0 -248 92l-31 170h-371l-43 -246q-51 -12 -149 -12q-131 0 -221 34q-92 35 -92 115q0 43 14 107h-47q-13 93 -13 145q0 114 54 162q44 21 80 31q80 323 177 602q97 280 165 348q76 76 307 76q111 0 233 -17
q124 -17 156 -30q93 -308 170 -664zM870 664l-92 538q-57 -196 -129 -547q73 4 221 9zM602 1701q-67 30 -96 77l250 417q163 -6 268 -60q104 -53 104 -132q0 -51 -69 -131q-68 -78 -162 -140q-93 -61 -152 -61q-75 0 -143 30z" />
    <glyph glyph-name="acircumflex" unicode="&#xe2;" horiz-adv-x="1550" 
d="M1362 903q78 -360 168 -883q-2 0 -90 -15t-219 -15q-227 0 -248 92l-31 170h-371l-43 -246q-51 -12 -149 -12q-131 0 -221 34q-92 35 -92 115q0 43 14 107h-47q-13 93 -13 145q0 114 54 162q44 21 80 31q80 323 177 602q97 280 165 348q76 76 307 76q111 0 233 -17
q124 -17 156 -30q93 -308 170 -664zM870 664l-92 538q-57 -196 -129 -547q73 4 221 9zM1038 2097q140 -82 314 -205q-29 -92 -102 -157q-72 -64 -146 -64q-58 0 -134 69q-79 71 -151 183l-254 -221q-86 23 -144 81q-56 56 -56 118q0 44 89 110q86 64 209 115q119 49 201 49
q40 0 174 -78z" />
    <glyph glyph-name="atilde" unicode="&#xe3;" horiz-adv-x="1550" 
d="M1362 903q78 -360 168 -883q-2 0 -90 -15t-219 -15q-227 0 -248 92l-31 170h-371l-43 -246q-51 -12 -149 -12q-131 0 -221 34q-92 35 -92 115q0 43 14 107h-47q-13 93 -13 145q0 114 54 162q44 21 80 31q80 323 177 602q97 280 165 348q76 76 307 76q111 0 233 -17
q124 -17 156 -30q93 -308 170 -664zM870 664l-92 538q-57 -196 -129 -547q73 4 221 9zM1208 1845q0 -73 -24 -116t-72 -43q-289 0 -643 -13q-43 90 -43 168q0 57 27 84q42 42 216 61q171 19 517 19q22 -81 22 -160z" />
    <glyph glyph-name="adieresis" unicode="&#xe4;" horiz-adv-x="1550" 
d="M1362 903q78 -360 168 -883q-2 0 -90 -15t-219 -15q-227 0 -248 92l-31 170h-371l-43 -246q-51 -12 -149 -12q-131 0 -221 34q-92 35 -92 115q0 43 14 107h-47q-13 93 -13 145q0 114 54 162q44 21 80 31q80 323 177 602q97 280 165 348q76 76 307 76q111 0 233 -17
q124 -17 156 -30q93 -308 170 -664zM870 664l-92 538q-57 -196 -129 -547q73 4 221 9zM352 1782q73 -53 183 -53q37 0 75 35q41 38 64 91q24 55 24 109q0 81 -65 127q-67 47 -178 47q-43 0 -84 -32q-42 -33 -66 -83q-24 -51 -24 -106q0 -83 71 -135zM1006 1782
q73 -53 182 -53q38 0 76 35q39 36 63 91q25 58 25 109q0 82 -66 128q-65 46 -180 46q-42 0 -83 -32t-65 -83t-24 -106q0 -83 72 -135z" />
    <glyph glyph-name="aring" unicode="&#xe5;" horiz-adv-x="1550" 
d="M1362 903q78 -360 168 -883q-2 0 -90 -15t-219 -15q-227 0 -248 92l-31 170h-371l-43 -246q-51 -12 -149 -12q-131 0 -221 34q-92 35 -92 115q0 43 14 107h-47q-13 93 -13 145q0 114 54 162q44 21 80 31q80 323 177 602q97 280 165 348q76 76 307 76q111 0 233 -17
q124 -17 156 -30q93 -308 170 -664zM870 664l-92 538q-57 -196 -129 -547q73 4 221 9zM989 2218q62 -38 97 -98q36 -62 36 -135q0 -150 -89 -231t-251 -81q-113 0 -193 74q-79 73 -79 182q0 149 94 237q95 89 252 89q72 0 133 -37zM884 1892q29 29 29 84q0 49 -19 72
q-20 25 -58 25q-49 0 -79 -33t-30 -90q0 -41 21 -65q20 -23 53 -23q53 0 83 30z" />
    <glyph glyph-name="ae" unicode="&#xe6;" horiz-adv-x="2097" 
d="M2039 370q21 -75 21 -139q0 -96 -45 -141q-60 -60 -194 -94q-137 -35 -308 -35q-169 0 -303 74q-133 73 -225 215h-424q-21 -143 -31 -246q-66 -10 -153 -10q-146 0 -230 40q-86 41 -86 109q0 32 11 107h-39q-13 65 -13 119q0 61 14 112q13 49 40 76q19 19 71 37
q78 304 182 600q103 293 154 344q57 57 236 57q138 0 336 -39q98 29 322 41q245 13 655 13q28 -128 28 -226q0 -122 -39 -193t-108 -71l-664 -4l-2 -151q74 10 223 10l308 -2q18 -83 18 -152q0 -83 -27 -133q-27 -49 -73 -49h-400q82 -190 316 -190q92 0 191 20
q103 21 175 51q45 -84 63 -150zM834 668q-29 176 -29 366q0 110 10 250q-98 -226 -182 -625q153 9 201 9z" />
    <glyph glyph-name="ccedilla" unicode="&#xe7;" horiz-adv-x="1372" 
d="M1206 82q-137 -80 -336 -92q-33 -25 -52 -52q-21 -30 -21 -55q58 -34 98 -90q39 -55 39 -104q0 -96 -77 -158q-76 -61 -198 -61q-44 0 -113 9q-77 10 -130 23q-19 65 -19 111q0 55 22 86t64 31q71 0 103 19t32 61q0 22 -17 42t-44 35q0 68 47 121q-244 57 -394 247
q-149 190 -149 495q0 265 125 465q125 201 322 306q196 105 405 105q219 0 349 -63q41 -208 41 -355q0 -107 -20 -172q-20 -63 -70 -94q-51 -31 -142 -31q-63 0 -131 14q-70 14 -98 27q7 151 8 246q-127 -21 -206 -130t-79 -267q0 -139 83 -231q82 -91 220 -91q200 0 367 76
q27 -28 69 -111q39 -77 39 -155q0 -127 -137 -207z" />
    <glyph glyph-name="egrave" unicode="&#xe8;" horiz-adv-x="1374" 
d="M1210 530q90 -180 90 -309q0 -141 -151 -201q-149 -59 -391 -59q-159 0 -309 59q-156 61 -261 203q-106 143 -106 375q0 292 84 526q-38 -2 -80 -2q0 91 22 234q21 137 66 170q52 52 320 72q272 20 813 20q6 -24 19 -100q11 -66 11 -142q0 -112 -33 -178
q-35 -70 -118 -70h-137h-426q-32 -120 -41 -167q81 7 188 8q152 2 246 2q14 -32 19 -73q5 -45 5 -103q0 -146 -90 -146h-389q18 -100 86 -148t172 -48q231 0 391 77zM1010 2010q-52 90 -120 155t-118 65q-88 0 -182 -63q-95 -63 -152 -164l416 -285q90 11 148 49
q59 39 59 91q0 64 -51 152z" />
    <glyph glyph-name="eacute" unicode="&#xe9;" horiz-adv-x="1374" 
d="M1210 530q90 -180 90 -309q0 -141 -151 -201q-149 -59 -391 -59q-159 0 -309 59q-156 61 -261 203q-106 143 -106 375q0 292 84 526q-38 -2 -80 -2q0 91 22 234q21 137 66 170q52 52 320 72q272 20 813 20q6 -24 19 -100q11 -66 11 -142q0 -112 -33 -178
q-35 -70 -118 -70h-137h-426q-32 -120 -41 -167q81 7 188 8q152 2 246 2q14 -32 19 -73q5 -45 5 -103q0 -146 -90 -146h-389q18 -100 86 -148t172 -48q231 0 391 77zM535 1742q-68 30 -97 77l250 417q163 -6 268 -60t105 -132q0 -50 -70 -131q-68 -78 -162 -140
q-93 -61 -151 -61q-76 0 -143 30z" />
    <glyph glyph-name="ecircumflex" unicode="&#xea;" horiz-adv-x="1374" 
d="M1210 530q90 -180 90 -309q0 -141 -151 -201q-149 -59 -391 -59q-159 0 -309 59q-156 61 -261 203q-106 143 -106 375q0 292 84 526q-38 -2 -80 -2q0 91 22 234q21 137 66 170q52 52 320 72q272 20 813 20q6 -24 19 -100q11 -66 11 -142q0 -112 -33 -178
q-35 -70 -118 -70h-137h-426q-32 -120 -41 -167q81 7 188 8q152 2 246 2q14 -32 19 -73q5 -45 5 -103q0 -146 -90 -146h-389q18 -100 86 -148t172 -48q231 0 391 77zM971 2138q135 -79 313 -205q-30 -93 -101 -157q-72 -64 -147 -64q-58 0 -134 69t-150 183l-254 -221
q-88 24 -145 81q-56 56 -56 118q0 44 89 110q86 64 209 115q119 49 202 49q41 0 174 -78z" />
    <glyph glyph-name="edieresis" unicode="&#xeb;" horiz-adv-x="1374" 
d="M1210 530q90 -180 90 -309q0 -141 -151 -201q-149 -59 -391 -59q-159 0 -309 59q-156 61 -261 203q-106 143 -106 375q0 292 84 526q-38 -2 -80 -2q0 91 22 234q21 137 66 170q52 52 320 72q272 20 813 20q6 -24 19 -100q11 -66 11 -142q0 -112 -33 -178
q-35 -70 -118 -70h-137h-426q-32 -120 -41 -167q81 7 188 8q152 2 246 2q14 -32 19 -73q5 -45 5 -103q0 -146 -90 -146h-389q18 -100 86 -148t172 -48q231 0 391 77zM285 1823q74 -54 182 -54q37 0 76 36t63 91q25 58 25 109q0 81 -66 127q-67 47 -178 47q-43 0 -84 -32
t-65 -83q-25 -53 -25 -106q0 -82 72 -135zM938 1823q74 -54 182 -54q37 0 76 36q41 38 64 91q24 56 24 109q0 82 -65 128t-181 46q-42 0 -83 -32q-39 -31 -64 -83q-25 -53 -25 -106q0 -82 72 -135z" />
    <glyph glyph-name="igrave" unicode="&#xec;" horiz-adv-x="796" 
d="M449 -16q-146 0 -234 33q-92 35 -92 120q-2 161 13 539q14 357 20 473l16 422q34 9 106 19q66 9 134 9q262 0 262 -165q6 -598 20 -1432q-147 -18 -245 -18zM680 1979q-52 90 -120 155q-69 66 -118 66q-86 0 -182 -64q-93 -62 -151 -164l415 -284q92 11 149 49
q58 39 58 90q0 63 -51 152z" />
    <glyph glyph-name="iacute" unicode="&#xed;" horiz-adv-x="796" 
d="M449 -16q-146 0 -234 33q-92 35 -92 120q-2 161 13 539q14 357 20 473l16 422q34 9 106 19q66 9 134 9q262 0 262 -165q6 -598 20 -1432q-147 -18 -245 -18zM205 1711q-67 30 -96 77l249 418q162 -6 269 -61q104 -53 104 -132q0 -51 -69 -131q-68 -78 -162 -140
q-93 -61 -152 -61q-76 0 -143 30z" />
    <glyph glyph-name="icircumflex" unicode="&#xee;" horiz-adv-x="796" 
d="M449 -16q-146 0 -234 33q-92 35 -92 120q-2 161 13 539q14 357 20 473l16 422q34 9 106 19q66 9 134 9q262 0 262 -165q6 -598 20 -1432q-147 -18 -245 -18zM641 2107q143 -83 313 -204q-30 -95 -101 -158q-72 -64 -146 -64q-59 0 -135 69t-150 183l-254 -221
q-86 23 -144 81q-57 57 -57 118q0 44 89 110q86 64 209 115q119 49 202 49q41 0 174 -78z" />
    <glyph glyph-name="idieresis" unicode="&#xef;" horiz-adv-x="796" 
d="M449 -16q-146 0 -234 33q-92 35 -92 120q-2 161 13 539q14 357 20 473l16 422q34 9 106 19q66 9 134 9q262 0 262 -165q6 -598 20 -1432q-147 -18 -245 -18zM-45 1792q73 -53 182 -53q37 0 76 36t63 91q25 58 25 108q0 81 -65 127q-67 47 -179 47q-44 0 -84 -31
q-41 -32 -65 -83q-25 -53 -25 -107q0 -83 72 -135zM608 1792q73 -53 183 -53q36 0 75 36q41 38 64 91q24 56 24 108q0 82 -65 128t-180 46q-43 0 -83 -31q-41 -32 -65 -83t-24 -107q0 -83 71 -135z" />
    <glyph glyph-name="eth" unicode="&#xf0;" horiz-adv-x="1675" 
d="M1210 1522q184 -105 294 -281t110 -383q0 -252 -95 -450q-94 -196 -292 -311q-195 -113 -490 -113q-153 0 -285 64q-133 64 -213 170q-79 104 -79 218q0 138 4 203l-180 4q-33 51 -33 111q0 59 35 94t194 47l13 152l-54 -27q-21 39 -39 126t-18 142q0 182 213 260t520 78
q212 0 395 -104zM1036 540q78 98 78 289q0 142 -83 242q-82 98 -255 98q-48 0 -117 -4q35 -35 35 -82q0 -82 -6 -184l148 -6q26 -81 26 -137q0 -57 -24 -90t-70 -33h-92v-27q0 -78 39 -121t110 -43q133 0 211 98z" />
    <glyph glyph-name="ntilde" unicode="&#xf1;" horiz-adv-x="1679" 
d="M1577 819l-2 -719v-94q-119 -35 -225 -35q-211 0 -340 129q-85 85 -191 264q-107 181 -201 377l19 -755q-75 -11 -176 -11q-140 0 -240 38q-98 37 -98 137q-2 136 18 626q22 546 37 785q132 22 225 22q186 0 269 -82q66 -66 187 -268q110 -184 245 -449l2 791
q111 18 205 18q260 0 260 -153q6 -224 6 -621zM1292 1886q0 -74 -24 -117t-72 -43q-316 0 -643 -12q-43 90 -43 168q0 57 27 84q41 40 216 60q180 20 517 20q22 -81 22 -160z" />
    <glyph glyph-name="ograve" unicode="&#xf2;" 
d="M416 73q-168 104 -261 292q-94 191 -94 436q0 205 92 394q91 187 263 305t401 118q230 0 400 -116q169 -115 258 -302q88 -185 88 -393q0 -233 -100 -427q-99 -191 -273 -301q-175 -110 -389 -110q-216 0 -385 104zM984 544q67 94 67 251q0 199 -69 298t-175 99
q-107 0 -171 -98q-65 -100 -65 -299q0 -159 64 -252q63 -92 172 -92q111 0 177 93zM1114 1990q-50 87 -120 154q-69 66 -117 66q-87 0 -183 -64q-93 -62 -151 -164l415 -284q92 11 149 49q58 39 58 90q0 65 -51 153z" />
    <glyph glyph-name="oacute" unicode="&#xf3;" 
d="M416 73q-168 104 -261 292q-94 191 -94 436q0 205 92 394q91 187 263 305t401 118q230 0 400 -116q169 -115 258 -302q88 -185 88 -393q0 -233 -100 -427q-99 -191 -273 -301q-175 -110 -389 -110q-216 0 -385 104zM984 544q67 94 67 251q0 199 -69 298t-175 99
q-107 0 -171 -98q-65 -100 -65 -299q0 -159 64 -252q63 -92 172 -92q111 0 177 93zM639 1721q-67 30 -96 77l250 418q163 -6 268 -60q104 -53 104 -133q0 -51 -69 -131q-68 -78 -162 -140q-91 -60 -152 -60q-78 0 -143 29z" />
    <glyph glyph-name="ocircumflex" unicode="&#xf4;" 
d="M416 73q-168 104 -261 292q-94 191 -94 436q0 205 92 394q91 187 263 305t401 118q230 0 400 -116q169 -115 258 -302q88 -185 88 -393q0 -233 -100 -427q-99 -191 -273 -301q-175 -110 -389 -110q-216 0 -385 104zM984 544q67 94 67 251q0 199 -69 298t-175 99
q-107 0 -171 -98q-65 -100 -65 -299q0 -159 64 -252q63 -92 172 -92q111 0 177 93zM1075 2118q140 -82 314 -205q-30 -93 -102 -158q-71 -63 -146 -63q-59 0 -134 68q-77 70 -151 184l-254 -222q-86 23 -144 81q-57 57 -57 118q0 45 89 111q83 62 209 114q119 49 202 49
q42 0 174 -77z" />
    <glyph glyph-name="otilde" unicode="&#xf5;" 
d="M416 73q-168 104 -261 292q-94 191 -94 436q0 205 92 394q91 187 263 305t401 118q230 0 400 -116q169 -115 258 -302q88 -185 88 -393q0 -233 -100 -427q-99 -191 -273 -301q-175 -110 -389 -110q-216 0 -385 104zM984 544q67 94 67 251q0 199 -69 298t-175 99
q-107 0 -171 -98q-65 -100 -65 -299q0 -159 64 -252q63 -92 172 -92q111 0 177 93zM1245 1866q0 -74 -24 -117t-72 -43q-316 0 -643 -12q-43 90 -43 168q0 58 26 84q40 40 217 60q171 19 517 19q22 -81 22 -159z" />
    <glyph glyph-name="odieresis" unicode="&#xf6;" 
d="M416 73q-168 104 -261 292q-94 191 -94 436q0 205 92 394q91 187 263 305t401 118q230 0 400 -116q169 -115 258 -302q88 -185 88 -393q0 -233 -100 -427q-99 -191 -273 -301q-175 -110 -389 -110q-216 0 -385 104zM984 544q67 94 67 251q0 199 -69 298t-175 99
q-107 0 -171 -98q-65 -100 -65 -299q0 -159 64 -252q63 -92 172 -92q111 0 177 93zM389 1802q73 -53 182 -53q37 0 76 36q41 38 64 91q24 56 24 109q0 80 -65 126q-68 48 -178 48q-43 0 -84 -32q-42 -33 -66 -83q-25 -53 -25 -107q0 -83 72 -135zM1042 1802q73 -53 183 -53
q36 0 75 36q41 38 64 91q25 58 25 109q0 81 -66 128q-65 46 -180 46q-42 0 -83 -32t-65 -83t-24 -107q0 -83 71 -135z" />
    <glyph glyph-name="divide" unicode="&#xf7;" horiz-adv-x="1298" 
d="M623 1120q122 0 245 45q54 127 54 230q0 98 -45 143q-68 68 -215 68q-102 0 -224 -39q-63 -150 -63 -264q0 -84 35 -119q64 -64 213 -64zM391 582l715 4q62 0 96 61q35 62 35 166q0 76 -23 180q-297 6 -509 6q-284 0 -411 -14q-136 -15 -173 -53q-29 -29 -44 -89
q-16 -64 -16 -138q0 -50 11 -125zM498 -14q57 -17 125 -17q115 0 245 45q54 127 54 230q0 100 -45 145q-32 32 -89 49t-124 17q-112 0 -226 -39q-63 -150 -63 -264q0 -82 35 -117q33 -33 88 -49z" />
    <glyph glyph-name="oslash" unicode="&#xf8;" 
d="M1484 414q-81 -180 -219 -291q-143 -115 -321 -148l2 -192q-70 -25 -125 -25q-67 0 -106 33t-39 92v88q-184 27 -324 138q-139 110 -215 287q-76 176 -76 399q0 211 85 385q85 175 236 288q152 114 337 138l6 190q55 19 96 19q49 0 77 -23t28 -66v-122q180 -26 327 -139
q145 -111 228 -285q82 -173 82 -381q0 -211 -79 -385zM585 599q38 -82 103 -122q4 194 19 684q-76 -39 -118 -136t-42 -239q0 -105 38 -187zM1039 606q38 81 38 180q0 130 -39 224t-108 139l8 -666q64 44 101 123z" />
    <glyph glyph-name="ugrave" unicode="&#xf9;" horiz-adv-x="1546" 
d="M280 132q-178 164 -178 456q0 256 18 536q18 287 46 457q115 23 225 23q126 0 198 -33q73 -33 73 -94q0 -72 -11 -250q-18 -347 -18 -539q0 -106 41 -167q40 -60 112 -60q76 0 119 62t43 173q0 546 -14 871q108 41 211 41q69 0 131 -20q59 -19 96 -56q42 -42 67 -291
q25 -246 25 -620q0 -190 -86 -339q-85 -148 -242 -231q-155 -82 -360 -82q-320 0 -496 163zM1044 1979q-53 92 -119 155q-69 66 -118 66q-86 0 -182 -64q-95 -63 -152 -164l416 -284q90 11 148 49q59 39 59 90q0 62 -52 152z" />
    <glyph glyph-name="uacute" unicode="&#xfa;" horiz-adv-x="1546" 
d="M280 132q-178 164 -178 456q0 256 18 536q18 287 46 457q115 23 225 23q126 0 198 -33q73 -33 73 -94q0 -72 -11 -250q-18 -347 -18 -539q0 -106 41 -167q40 -60 112 -60q76 0 119 62t43 173q0 546 -14 871q108 41 211 41q69 0 131 -20q59 -19 96 -56q42 -42 67 -291
q25 -246 25 -620q0 -190 -86 -339q-85 -148 -242 -231q-155 -82 -360 -82q-320 0 -496 163zM569 1711q-67 30 -96 77l250 418q161 -6 268 -61q105 -54 105 -132q0 -50 -70 -131q-68 -78 -162 -140q-93 -61 -151 -61q-77 0 -144 30z" />
    <glyph glyph-name="ucircumflex" unicode="&#xfb;" horiz-adv-x="1546" 
d="M280 132q-178 164 -178 456q0 256 18 536q18 287 46 457q115 23 225 23q126 0 198 -33q73 -33 73 -94q0 -72 -11 -250q-18 -347 -18 -539q0 -106 41 -167q40 -60 112 -60q76 0 119 62t43 173q0 546 -14 871q108 41 211 41q69 0 131 -20q59 -19 96 -56q42 -42 67 -291
q25 -246 25 -620q0 -190 -86 -339q-85 -148 -242 -231q-155 -82 -360 -82q-320 0 -496 163zM1006 2107q143 -83 313 -204q-30 -95 -101 -158q-72 -64 -147 -64q-57 0 -134 69q-79 71 -151 183l-254 -221q-86 23 -144 81q-56 56 -56 118q0 44 89 110q86 64 209 115
q119 49 201 49q41 0 175 -78z" />
    <glyph glyph-name="udieresis" unicode="&#xfc;" horiz-adv-x="1546" 
d="M280 132q-178 164 -178 456q0 256 18 536q18 287 46 457q115 23 225 23q126 0 198 -33q73 -33 73 -94q0 -72 -11 -250q-18 -347 -18 -539q0 -106 41 -167q40 -60 112 -60q76 0 119 62t43 173q0 546 -14 871q108 41 211 41q69 0 131 -20q59 -19 96 -56q42 -42 67 -291
q25 -246 25 -620q0 -190 -86 -339q-85 -148 -242 -231q-155 -82 -360 -82q-320 0 -496 163zM319 1792q73 -53 183 -53q37 0 76 36t63 91q25 58 25 108q0 80 -66 127q-67 47 -178 47q-44 0 -84 -31q-42 -33 -66 -83q-24 -51 -24 -107q0 -83 71 -135zM973 1792q73 -53 182 -53
q37 0 76 36t63 91q25 58 25 108q0 82 -66 128q-65 46 -180 46q-43 0 -83 -31q-39 -31 -64 -83q-25 -53 -25 -107q0 -83 72 -135z" />
    <glyph glyph-name="yacute" unicode="&#xfd;" horiz-adv-x="1505" 
d="M1348 1029q-132 -268 -351 -589q5 -172 15 -385l2 -55q-138 -23 -236 -23q-154 0 -243 43q-91 44 -91 119q0 96 27 369q-92 124 -209 410q-122 298 -221 636q148 35 260 35q133 0 219 -42t101 -117l137 -584q64 170 124 355q68 211 122 403q30 2 67 2q184 0 299 -50
t115 -129q0 -119 -137 -398zM580 1721q-68 30 -97 77l250 418q163 -6 268 -60t105 -133q0 -50 -70 -131q-68 -78 -162 -140q-91 -60 -151 -60q-78 0 -143 29z" />
    <glyph glyph-name="thorn" unicode="&#xfe;" horiz-adv-x="1531" 
d="M1381 541q-88 -157 -265 -261q-175 -103 -424 -114l2 -164q-147 -18 -245 -18q-146 0 -234 33q-92 35 -92 120q-2 149 22 735q-35 62 -54 129q-19 66 -19 127q0 91 45 136q47 40 45 39l10 268q34 9 106 19q66 9 134 9q112 0 182 -33q74 -35 80 -116q84 4 149 4
q207 0 354 -81t220 -214t73 -289q0 -171 -89 -329zM913 684q84 84 84 170q0 72 -61 118t-178 46q-29 0 -80 -4l8 -451q143 37 227 121z" />
    <glyph glyph-name="ydieresis" unicode="&#xff;" horiz-adv-x="1505" 
d="M1348 1029q-132 -268 -351 -589q5 -172 15 -385l2 -55q-138 -23 -236 -23q-154 0 -243 43q-91 44 -91 119q0 96 27 369q-92 124 -209 410q-122 298 -221 636q148 35 260 35q133 0 219 -42t101 -117l137 -584q64 170 124 355q68 211 122 403q30 2 67 2q184 0 299 -50
t115 -129q0 -119 -137 -398zM330 1802q73 -53 182 -53q37 0 76 36t63 91q25 58 25 109q0 79 -66 126q-68 48 -178 48q-43 0 -84 -32t-65 -83q-25 -53 -25 -107q0 -83 72 -135zM983 1802q73 -53 182 -53q37 0 76 36q41 38 64 91q24 56 24 109q0 82 -65 128t-181 46
q-42 0 -83 -32q-39 -31 -64 -83q-25 -53 -25 -107q0 -83 72 -135z" />
    <glyph glyph-name="Amacron" unicode="&#x100;" horiz-adv-x="1550" 
d="M1362 903q78 -360 168 -883q-2 0 -90 -15t-219 -15q-227 0 -248 92l-31 170h-371l-43 -246q-51 -12 -149 -12q-131 0 -221 34q-92 35 -92 115q0 43 14 107h-47q-13 93 -13 145q0 114 54 162q44 21 80 31q80 323 177 602q97 280 165 348q76 76 307 76q111 0 233 -17
q124 -17 156 -30q93 -308 170 -664zM870 664l-92 538q-57 -196 -129 -547q73 4 221 9zM506 1702q364 4 631 4q63 0 98 45q35 46 35 123q0 51 -23 131q-139 4 -266 4q-485 0 -553 -47q-27 -21 -42 -66t-15 -102q0 -45 10 -94q65 0 125 2z" />
    <glyph glyph-name="amacron" unicode="&#x101;" horiz-adv-x="1550" 
d="M1362 903q78 -360 168 -883q-2 0 -90 -15t-219 -15q-227 0 -248 92l-31 170h-371l-43 -246q-51 -12 -149 -12q-131 0 -221 34q-92 35 -92 115q0 43 14 107h-47q-13 93 -13 145q0 114 54 162q44 21 80 31q80 323 177 602q97 280 165 348q76 76 307 76q111 0 233 -17
q124 -17 156 -30q93 -308 170 -664zM870 664l-92 538q-57 -196 -129 -547q73 4 221 9zM506 1702q364 4 631 4q63 0 98 45q35 46 35 123q0 51 -23 131q-139 4 -266 4q-485 0 -553 -47q-27 -21 -42 -66t-15 -102q0 -45 10 -94q65 0 125 2z" />
    <glyph glyph-name="Abreve" unicode="&#x102;" horiz-adv-x="1550" 
d="M1362 903q78 -360 168 -883q-2 0 -90 -15t-219 -15q-227 0 -248 92l-31 170h-371l-43 -246q-51 -12 -149 -12q-131 0 -221 34q-92 35 -92 115q0 43 14 107h-47q-13 93 -13 145q0 114 54 162q44 21 80 31q80 323 177 602q97 280 165 348q76 76 307 76q111 0 233 -17
q124 -17 156 -30q93 -308 170 -664zM870 664l-92 538q-57 -196 -129 -547q73 4 221 9zM1254 2004q26 -44 26 -81q0 -39 -29 -68q-60 -63 -178 -102q-112 -37 -256 -37q-125 0 -254 38q-126 37 -180 91q-27 27 -27 70q0 52 37 113q36 58 107 122q65 -69 174 -117
q105 -46 203 -46q83 0 167 28q88 29 140 74q43 -38 70 -85z" />
    <glyph glyph-name="abreve" unicode="&#x103;" horiz-adv-x="1550" 
d="M1362 903q78 -360 168 -883q-2 0 -90 -15t-219 -15q-227 0 -248 92l-31 170h-371l-43 -246q-51 -12 -149 -12q-131 0 -221 34q-92 35 -92 115q0 43 14 107h-47q-13 93 -13 145q0 114 54 162q44 21 80 31q80 323 177 602q97 280 165 348q76 76 307 76q111 0 233 -17
q124 -17 156 -30q93 -308 170 -664zM870 664l-92 538q-57 -196 -129 -547q73 4 221 9zM1254 2004q26 -44 26 -81q0 -39 -29 -68q-60 -63 -178 -102q-112 -37 -256 -37q-125 0 -254 38q-126 37 -180 91q-27 27 -27 70q0 52 37 113q36 58 107 122q65 -69 174 -117
q105 -46 203 -46q83 0 167 28q88 29 140 74q43 -38 70 -85z" />
    <glyph glyph-name="Aogonek" unicode="&#x104;" horiz-adv-x="1550" 
d="M1264 -261q47 -20 116 -15q6 -105 -61 -171q-69 -67 -178 -67q-125 0 -202 71t-77 183q0 68 48 140q49 73 132 134q-61 24 -69 68l-31 170h-371l-43 -246q-51 -12 -149 -12q-131 0 -221 34q-92 35 -92 115q0 43 14 107h-47q-13 93 -13 145q0 114 54 162q44 21 80 31
q80 323 177 602q97 280 165 348q76 76 307 76q111 0 233 -17q124 -17 156 -30q93 -308 170 -664q78 -360 168 -883q-7 0 -48 -7q-42 -7 -112 -15q-66 -40 -110 -97q-43 -56 -43 -108q0 -34 47 -54zM870 664l-92 538q-57 -196 -129 -547q73 4 221 9z" />
    <glyph glyph-name="aogonek" unicode="&#x105;" horiz-adv-x="1550" 
d="M1264 -261q47 -20 116 -15q6 -105 -61 -171q-69 -67 -178 -67q-125 0 -202 71t-77 183q0 68 48 140q49 73 132 134q-61 24 -69 68l-31 170h-371l-43 -246q-51 -12 -149 -12q-131 0 -221 34q-92 35 -92 115q0 43 14 107h-47q-13 93 -13 145q0 114 54 162q44 21 80 31
q80 323 177 602q97 280 165 348q76 76 307 76q111 0 233 -17q124 -17 156 -30q93 -308 170 -664q78 -360 168 -883q-7 0 -48 -7q-42 -7 -112 -15q-66 -40 -110 -97q-43 -56 -43 -108q0 -34 47 -54zM870 664l-92 538q-57 -196 -129 -547q73 4 221 9z" />
    <glyph glyph-name="Cacute" unicode="&#x106;" horiz-adv-x="1372" 
d="M1304 444q39 -77 39 -155q0 -96 -75 -162q-76 -67 -200 -103t-265 -36q-208 0 -377 86q-167 85 -266 258q-99 172 -99 418q0 265 125 465q125 201 322 306q196 105 405 105q219 0 349 -63q41 -208 41 -355q0 -107 -20 -172q-20 -63 -70 -94q-51 -31 -142 -31
q-63 0 -131 14q-70 14 -98 27q7 151 8 246q-127 -21 -206 -130t-79 -267q0 -139 83 -231q82 -91 220 -91q200 0 367 76q27 -28 69 -111zM584 1721q-68 30 -97 77l250 418q164 -6 269 -60q104 -53 104 -133q0 -50 -70 -131q-69 -80 -161 -140t-152 -60q-78 0 -143 29z" />
    <glyph glyph-name="cacute" unicode="&#x107;" horiz-adv-x="1372" 
d="M1304 444q39 -77 39 -155q0 -96 -75 -162q-76 -67 -200 -103t-265 -36q-208 0 -377 86q-167 85 -266 258q-99 172 -99 418q0 265 125 465q125 201 322 306q196 105 405 105q219 0 349 -63q41 -208 41 -355q0 -107 -20 -172q-20 -63 -70 -94q-51 -31 -142 -31
q-63 0 -131 14q-70 14 -98 27q7 151 8 246q-127 -21 -206 -130t-79 -267q0 -139 83 -231q82 -91 220 -91q200 0 367 76q27 -28 69 -111zM584 1721q-68 30 -97 77l250 418q164 -6 269 -60q104 -53 104 -133q0 -50 -70 -131q-69 -80 -161 -140t-152 -60q-78 0 -143 29z" />
    <glyph glyph-name="Ccircumflex" unicode="&#x108;" horiz-adv-x="1372" 
d="M1304 444q39 -77 39 -155q0 -96 -75 -162q-76 -67 -200 -103t-265 -36q-208 0 -377 86q-167 85 -266 258q-99 172 -99 418q0 265 125 465q125 201 322 306q196 105 405 105q219 0 349 -63q41 -208 41 -355q0 -107 -20 -172q-20 -63 -70 -94q-51 -31 -142 -31
q-63 0 -131 14q-70 14 -98 27q7 151 8 246q-127 -21 -206 -130t-79 -267q0 -139 83 -231q82 -91 220 -91q200 0 367 76q27 -28 69 -111zM1020 2118q135 -79 313 -205q-30 -95 -101 -158q-70 -63 -147 -63q-59 0 -134 68t-150 184l-254 -222q-88 24 -145 81q-56 56 -56 118
q0 45 89 111q83 62 209 114q119 49 202 49q42 0 174 -77z" />
    <glyph glyph-name="ccircumflex" unicode="&#x109;" horiz-adv-x="1372" 
d="M1304 444q39 -77 39 -155q0 -96 -75 -162q-76 -67 -200 -103t-265 -36q-208 0 -377 86q-167 85 -266 258q-99 172 -99 418q0 265 125 465q125 201 322 306q196 105 405 105q219 0 349 -63q41 -208 41 -355q0 -107 -20 -172q-20 -63 -70 -94q-51 -31 -142 -31
q-63 0 -131 14q-70 14 -98 27q7 151 8 246q-127 -21 -206 -130t-79 -267q0 -139 83 -231q82 -91 220 -91q200 0 367 76q27 -28 69 -111zM1020 2118q135 -79 313 -205q-30 -95 -101 -158q-70 -63 -147 -63q-59 0 -134 68t-150 184l-254 -222q-88 24 -145 81q-56 56 -56 118
q0 45 89 111q83 62 209 114q119 49 202 49q42 0 174 -77z" />
    <glyph glyph-name="Cdotaccent" unicode="&#x10a;" horiz-adv-x="1372" 
d="M1304 444q39 -77 39 -155q0 -96 -75 -162q-76 -67 -200 -103t-265 -36q-208 0 -377 86q-167 85 -266 258q-99 172 -99 418q0 265 125 465q125 201 322 306q196 105 405 105q219 0 349 -63q41 -208 41 -355q0 -107 -20 -172q-20 -63 -70 -94q-51 -31 -142 -31
q-63 0 -131 14q-70 14 -98 27q7 151 8 246q-127 -21 -206 -130t-79 -267q0 -139 83 -231q82 -91 220 -91q200 0 367 76q27 -28 69 -111zM661 1802q73 -53 183 -53q37 0 76 36t63 91q25 58 25 109q0 81 -66 128q-65 46 -180 46q-42 0 -83 -32t-65 -83t-24 -107q0 -83 71 -135
z" />
    <glyph glyph-name="cdotaccent" unicode="&#x10b;" horiz-adv-x="1372" 
d="M1304 444q39 -77 39 -155q0 -96 -75 -162q-76 -67 -200 -103t-265 -36q-208 0 -377 86q-167 85 -266 258q-99 172 -99 418q0 265 125 465q125 201 322 306q196 105 405 105q219 0 349 -63q41 -208 41 -355q0 -107 -20 -172q-20 -63 -70 -94q-51 -31 -142 -31
q-63 0 -131 14q-70 14 -98 27q7 151 8 246q-127 -21 -206 -130t-79 -267q0 -139 83 -231q82 -91 220 -91q200 0 367 76q27 -28 69 -111zM661 1802q73 -53 183 -53q37 0 76 36t63 91q25 58 25 109q0 81 -66 128q-65 46 -180 46q-42 0 -83 -32t-65 -83t-24 -107q0 -83 71 -135
z" />
    <glyph glyph-name="Ccaron" unicode="&#x10c;" horiz-adv-x="1372" 
d="M1304 444q39 -77 39 -155q0 -96 -75 -162q-76 -67 -200 -103t-265 -36q-208 0 -377 86q-167 85 -266 258q-99 172 -99 418q0 265 125 465q125 201 322 306q196 105 405 105q219 0 349 -63q41 -208 41 -355q0 -107 -20 -172q-20 -63 -70 -94q-51 -31 -142 -31
q-63 0 -131 14q-70 14 -98 27q7 151 8 246q-127 -21 -206 -130t-79 -267q0 -139 83 -231q82 -91 220 -91q200 0 367 76q27 -28 69 -111zM1092 2198q77 -40 129 -109q51 -67 51 -131q0 -46 -91 -104q-90 -57 -219 -100q-127 -42 -225 -42q-39 0 -155 73q-111 70 -258 191
q21 89 84 146t139 57q57 0 122 -59q69 -62 124 -160z" />
    <glyph glyph-name="ccaron" unicode="&#x10d;" horiz-adv-x="1372" 
d="M1304 444q39 -77 39 -155q0 -96 -75 -162q-76 -67 -200 -103t-265 -36q-208 0 -377 86q-167 85 -266 258q-99 172 -99 418q0 265 125 465q125 201 322 306q196 105 405 105q219 0 349 -63q41 -208 41 -355q0 -107 -20 -172q-20 -63 -70 -94q-51 -31 -142 -31
q-63 0 -131 14q-70 14 -98 27q7 151 8 246q-127 -21 -206 -130t-79 -267q0 -139 83 -231q82 -91 220 -91q200 0 367 76q27 -28 69 -111zM1092 2198q77 -40 129 -109q51 -67 51 -131q0 -46 -91 -104q-90 -57 -219 -100q-127 -42 -225 -42q-39 0 -155 73q-111 70 -258 191
q21 89 84 146t139 57q57 0 122 -59q69 -62 124 -160z" />
    <glyph glyph-name="Dcaron" unicode="&#x10e;" horiz-adv-x="1675" 
d="M1210 1522q184 -105 294 -281t110 -383q0 -252 -95 -450q-94 -196 -292 -311q-195 -113 -490 -113q-153 0 -285 64q-133 64 -213 170q-79 104 -79 218q-2 212 33 611l-54 -27q-21 39 -39 126t-18 142q0 182 213 260t520 78q212 0 395 -104zM1036 540q78 98 78 289
q0 142 -83 242q-82 98 -255 98q-48 0 -117 -4q35 -35 35 -82q0 -101 -10 -241q-8 -187 -8 -236q0 -78 39 -121t110 -43q133 0 211 98zM1126 2189q78 -41 129 -108q52 -69 52 -131q0 -45 -92 -104q-90 -57 -219 -100q-128 -42 -224 -42q-40 0 -156 73q-111 70 -258 191
q21 89 84 146t140 57q55 0 121 -60q70 -63 124 -159z" />
    <glyph glyph-name="dcaron" unicode="&#x10f;" horiz-adv-x="1675" 
d="M1210 1522q184 -105 294 -281t110 -383q0 -252 -95 -450q-94 -196 -292 -311q-195 -113 -490 -113q-153 0 -285 64q-133 64 -213 170q-79 104 -79 218q-2 212 33 611l-54 -27q-21 39 -39 126t-18 142q0 182 213 260t520 78q212 0 395 -104zM1036 540q78 98 78 289
q0 142 -83 242q-82 98 -255 98q-48 0 -117 -4q35 -35 35 -82q0 -101 -10 -241q-8 -187 -8 -236q0 -78 39 -121t110 -43q133 0 211 98zM1126 2189q78 -41 129 -108q52 -69 52 -131q0 -45 -92 -104q-90 -57 -219 -100q-128 -42 -224 -42q-40 0 -156 73q-111 70 -258 191
q21 89 84 146t140 57q55 0 121 -60q70 -63 124 -159z" />
    <glyph glyph-name="Dcroat" unicode="&#x110;" horiz-adv-x="1675" 
d="M1210 1522q184 -105 294 -281t110 -383q0 -252 -95 -450q-94 -196 -292 -311q-195 -113 -490 -113q-153 0 -285 64q-133 64 -213 170q-79 104 -79 218q0 138 4 203l-180 4q-33 51 -33 111q0 59 35 94t194 47l13 152l-54 -27q-21 39 -39 126t-18 142q0 182 213 260t520 78
q212 0 395 -104zM1036 540q78 98 78 289q0 142 -83 242q-82 98 -255 98q-48 0 -117 -4q35 -35 35 -82q0 -82 -6 -184l148 -6q26 -81 26 -137q0 -57 -24 -90t-70 -33h-92v-27q0 -78 39 -121t110 -43q133 0 211 98z" />
    <glyph glyph-name="dcroat" unicode="&#x111;" horiz-adv-x="1675" 
d="M1210 1522q184 -105 294 -281t110 -383q0 -252 -95 -450q-94 -196 -292 -311q-195 -113 -490 -113q-153 0 -285 64q-133 64 -213 170q-79 104 -79 218q0 138 4 203l-180 4q-33 51 -33 111q0 59 35 94t194 47l13 152l-54 -27q-21 39 -39 126t-18 142q0 182 213 260t520 78
q212 0 395 -104zM1036 540q78 98 78 289q0 142 -83 242q-82 98 -255 98q-48 0 -117 -4q35 -35 35 -82q0 -82 -6 -184l148 -6q26 -81 26 -137q0 -57 -24 -90t-70 -33h-92v-27q0 -78 39 -121t110 -43q133 0 211 98z" />
    <glyph glyph-name="Emacron" unicode="&#x112;" horiz-adv-x="1374" 
d="M1210 530q90 -180 90 -309q0 -141 -151 -201q-149 -59 -391 -59q-159 0 -309 59q-156 61 -261 203q-106 143 -106 375q0 292 84 526q-38 -2 -80 -2q0 91 22 234q21 137 66 170q52 52 320 72q272 20 813 20q6 -24 19 -100q11 -66 11 -142q0 -112 -33 -178
q-35 -70 -118 -70h-137h-426q-32 -120 -41 -167q81 7 188 8q152 2 246 2q14 -32 19 -73q5 -45 5 -103q0 -146 -90 -146h-389q18 -100 86 -148t172 -48q231 0 391 77zM438 1743q364 4 631 4q63 0 98 45q35 46 35 123q0 55 -22 131q-139 4 -267 4q-485 0 -553 -47
q-27 -21 -42 -66t-15 -102q0 -45 10 -94q65 0 125 2z" />
    <glyph glyph-name="emacron" unicode="&#x113;" horiz-adv-x="1374" 
d="M1210 530q90 -180 90 -309q0 -141 -151 -201q-149 -59 -391 -59q-159 0 -309 59q-156 61 -261 203q-106 143 -106 375q0 292 84 526q-38 -2 -80 -2q0 91 22 234q21 137 66 170q52 52 320 72q272 20 813 20q6 -24 19 -100q11 -66 11 -142q0 -112 -33 -178
q-35 -70 -118 -70h-137h-426q-32 -120 -41 -167q81 7 188 8q152 2 246 2q14 -32 19 -73q5 -45 5 -103q0 -146 -90 -146h-389q18 -100 86 -148t172 -48q231 0 391 77zM438 1743q364 4 631 4q63 0 98 45q35 46 35 123q0 55 -22 131q-139 4 -267 4q-485 0 -553 -47
q-27 -21 -42 -66t-15 -102q0 -45 10 -94q65 0 125 2z" />
    <glyph glyph-name="Ebreve" unicode="&#x114;" horiz-adv-x="1374" 
d="M1210 530q90 -180 90 -309q0 -141 -151 -201q-149 -59 -391 -59q-159 0 -309 59q-156 61 -261 203q-106 143 -106 375q0 292 84 526q-38 -2 -80 -2q0 91 22 234q21 137 66 170q52 52 320 72q272 20 813 20q6 -24 19 -100q11 -66 11 -142q0 -112 -33 -178
q-35 -70 -118 -70h-137h-426q-32 -120 -41 -167q81 7 188 8q152 2 246 2q14 -32 19 -73q5 -45 5 -103q0 -146 -90 -146h-389q18 -100 86 -148t172 -48q231 0 391 77zM1187 2045q25 -43 25 -81q0 -40 -28 -68q-60 -63 -178 -102q-112 -37 -256 -37q-125 0 -254 38
q-128 37 -181 91q-26 26 -26 70q0 51 37 112q38 62 106 123q65 -69 174 -117q105 -46 203 -46q84 0 168 28q86 29 139 74q45 -40 71 -85z" />
    <glyph glyph-name="ebreve" unicode="&#x115;" horiz-adv-x="1374" 
d="M1210 530q90 -180 90 -309q0 -141 -151 -201q-149 -59 -391 -59q-159 0 -309 59q-156 61 -261 203q-106 143 -106 375q0 292 84 526q-38 -2 -80 -2q0 91 22 234q21 137 66 170q52 52 320 72q272 20 813 20q6 -24 19 -100q11 -66 11 -142q0 -112 -33 -178
q-35 -70 -118 -70h-137h-426q-32 -120 -41 -167q81 7 188 8q152 2 246 2q14 -32 19 -73q5 -45 5 -103q0 -146 -90 -146h-389q18 -100 86 -148t172 -48q231 0 391 77zM1187 2045q25 -43 25 -81q0 -40 -28 -68q-60 -63 -178 -102q-112 -37 -256 -37q-125 0 -254 38
q-128 37 -181 91q-26 26 -26 70q0 51 37 112q38 62 106 123q65 -69 174 -117q105 -46 203 -46q84 0 168 28q86 29 139 74q45 -40 71 -85z" />
    <glyph glyph-name="Edotaccent" unicode="&#x116;" horiz-adv-x="1374" 
d="M1210 530q90 -180 90 -309q0 -141 -151 -201q-149 -59 -391 -59q-159 0 -309 59q-156 61 -261 203q-106 143 -106 375q0 292 84 526q-38 -2 -80 -2q0 91 22 234q21 137 66 170q52 52 320 72q272 20 813 20q6 -24 19 -100q11 -66 11 -142q0 -112 -33 -178
q-35 -70 -118 -70h-137h-426q-32 -120 -41 -167q81 7 188 8q152 2 246 2q14 -32 19 -73q5 -45 5 -103q0 -146 -90 -146h-389q18 -100 86 -148t172 -48q231 0 391 77zM612 1823q74 -54 183 -54q36 0 75 36q41 38 64 91q24 56 24 109q0 82 -65 128t-180 46q-42 0 -83 -32
t-65 -83t-24 -106q0 -83 71 -135z" />
    <glyph glyph-name="edotaccent" unicode="&#x117;" horiz-adv-x="1374" 
d="M1210 530q90 -180 90 -309q0 -141 -151 -201q-149 -59 -391 -59q-159 0 -309 59q-156 61 -261 203q-106 143 -106 375q0 292 84 526q-38 -2 -80 -2q0 91 22 234q21 137 66 170q52 52 320 72q272 20 813 20q6 -24 19 -100q11 -66 11 -142q0 -112 -33 -178
q-35 -70 -118 -70h-137h-426q-32 -120 -41 -167q81 7 188 8q152 2 246 2q14 -32 19 -73q5 -45 5 -103q0 -146 -90 -146h-389q18 -100 86 -148t172 -48q231 0 391 77zM612 1823q74 -54 183 -54q36 0 75 36q41 38 64 91q24 56 24 109q0 82 -65 128t-180 46q-42 0 -83 -32
t-65 -83t-24 -106q0 -83 71 -135z" />
    <glyph glyph-name="Eogonek" unicode="&#x118;" horiz-adv-x="1374" 
d="M1210 530q90 -180 90 -309q0 -141 -170 -209q-50 -39 -81 -86q-31 -48 -31 -90q0 -34 47 -54t117 -15q6 -105 -62 -171q-69 -67 -178 -67q-125 0 -202 71q-76 70 -76 183q0 88 75 178q-153 5 -303 66q-151 62 -252 202q-102 141 -102 369q0 292 84 526q-38 -2 -80 -2
q0 91 22 234q21 137 66 170q52 52 320 72q272 20 813 20q6 -24 19 -100q11 -66 11 -142q0 -112 -33 -178q-35 -70 -118 -70h-137h-426q-32 -120 -41 -167q81 7 188 8q152 2 246 2q14 -32 19 -73q5 -45 5 -103q0 -146 -90 -146h-389q18 -100 86 -148t172 -48q231 0 391 77z
" />
    <glyph glyph-name="eogonek" unicode="&#x119;" horiz-adv-x="1374" 
d="M1210 530q90 -180 90 -309q0 -141 -170 -209q-50 -39 -81 -86q-31 -48 -31 -90q0 -34 47 -54t117 -15q6 -105 -62 -171q-69 -67 -178 -67q-125 0 -202 71q-76 70 -76 183q0 88 75 178q-153 5 -303 66q-151 62 -252 202q-102 141 -102 369q0 292 84 526q-38 -2 -80 -2
q0 91 22 234q21 137 66 170q52 52 320 72q272 20 813 20q6 -24 19 -100q11 -66 11 -142q0 -112 -33 -178q-35 -70 -118 -70h-137h-426q-32 -120 -41 -167q81 7 188 8q152 2 246 2q14 -32 19 -73q5 -45 5 -103q0 -146 -90 -146h-389q18 -100 86 -148t172 -48q231 0 391 77z
" />
    <glyph glyph-name="Ecaron" unicode="&#x11a;" horiz-adv-x="1374" 
d="M1210 530q90 -180 90 -309q0 -141 -151 -201q-149 -59 -391 -59q-159 0 -309 59q-156 61 -261 203q-106 143 -106 375q0 292 84 526q-38 -2 -80 -2q0 91 22 234q21 137 66 170q52 52 320 72q272 20 813 20q6 -24 19 -100q11 -66 11 -142q0 -112 -33 -178
q-35 -70 -118 -70h-137h-426q-32 -120 -41 -167q81 7 188 8q152 2 246 2q14 -32 19 -73q5 -45 5 -103q0 -146 -90 -146h-389q18 -100 86 -148t172 -48q231 0 391 77zM1042 2218q77 -40 129 -109t52 -131q0 -45 -91 -103q-89 -57 -220 -100q-127 -42 -224 -42q-42 0 -156 72
q-106 67 -258 192q21 88 84 145q64 58 140 58q56 0 122 -60q67 -61 123 -160z" />
    <glyph glyph-name="ecaron" unicode="&#x11b;" horiz-adv-x="1374" 
d="M1210 530q90 -180 90 -309q0 -141 -151 -201q-149 -59 -391 -59q-159 0 -309 59q-156 61 -261 203q-106 143 -106 375q0 292 84 526q-38 -2 -80 -2q0 91 22 234q21 137 66 170q52 52 320 72q272 20 813 20q6 -24 19 -100q11 -66 11 -142q0 -112 -33 -178
q-35 -70 -118 -70h-137h-426q-32 -120 -41 -167q81 7 188 8q152 2 246 2q14 -32 19 -73q5 -45 5 -103q0 -146 -90 -146h-389q18 -100 86 -148t172 -48q231 0 391 77zM1042 2218q77 -40 129 -109t52 -131q0 -45 -91 -103q-89 -57 -220 -100q-127 -42 -224 -42q-42 0 -156 72
q-106 67 -258 192q21 88 84 145q64 58 140 58q56 0 122 -60q67 -61 123 -160z" />
    <glyph glyph-name="Gcircumflex" unicode="&#x11c;" horiz-adv-x="1609" 
d="M1420 862q70 -69 119 -153q50 -86 50 -127q0 -88 -77 -231q-77 -144 -244 -254q-168 -111 -424 -111q-245 0 -421 97q-178 98 -269 265q-93 171 -93 381q0 276 114 481t317 315q202 109 462 109q109 0 214 -23q116 -25 157 -40q23 -57 45 -140q23 -87 23 -163
q0 -52 -15 -92q-16 -43 -43 -66q-67 -57 -250 -57q-102 0 -182 14q0 59 4 139q-143 -24 -226 -138q-83 -115 -83 -286q0 -145 81 -235t216 -90q84 0 165 31q79 30 154 94h-393q-22 103 -22 153q0 73 37 117q36 42 138 60t322 18q54 0 124 -68zM1067 2118q135 -79 313 -205
q-30 -95 -101 -158t-146 -63q-60 0 -135 68t-150 184l-254 -222q-86 23 -144 81q-57 57 -57 118q0 45 89 111q83 62 209 114q119 49 202 49q42 0 174 -77z" />
    <glyph glyph-name="gcircumflex" unicode="&#x11d;" horiz-adv-x="1609" 
d="M1420 862q70 -69 119 -153q50 -86 50 -127q0 -88 -77 -231q-77 -144 -244 -254q-168 -111 -424 -111q-245 0 -421 97q-178 98 -269 265q-93 171 -93 381q0 276 114 481t317 315q202 109 462 109q109 0 214 -23q116 -25 157 -40q23 -57 45 -140q23 -87 23 -163
q0 -52 -15 -92q-16 -43 -43 -66q-67 -57 -250 -57q-102 0 -182 14q0 59 4 139q-143 -24 -226 -138q-83 -115 -83 -286q0 -145 81 -235t216 -90q84 0 165 31q79 30 154 94h-393q-22 103 -22 153q0 73 37 117q36 42 138 60t322 18q54 0 124 -68zM1067 2118q135 -79 313 -205
q-30 -95 -101 -158t-146 -63q-60 0 -135 68t-150 184l-254 -222q-86 23 -144 81q-57 57 -57 118q0 45 89 111q83 62 209 114q119 49 202 49q42 0 174 -77z" />
    <glyph glyph-name="Gbreve" unicode="&#x11e;" horiz-adv-x="1609" 
d="M1420 862q70 -69 119 -153q50 -86 50 -127q0 -88 -77 -231q-77 -144 -244 -254q-168 -111 -424 -111q-245 0 -421 97q-178 98 -269 265q-93 171 -93 381q0 276 114 481t317 315q202 109 462 109q109 0 214 -23q116 -25 157 -40q23 -57 45 -140q23 -87 23 -163
q0 -52 -15 -92q-16 -43 -43 -66q-67 -57 -250 -57q-102 0 -182 14q0 59 4 139q-143 -24 -226 -138q-83 -115 -83 -286q0 -145 81 -235t216 -90q84 0 165 31q79 30 154 94h-393q-22 103 -22 153q0 73 37 117q36 42 138 60t322 18q54 0 124 -68zM1283 2024q26 -44 26 -80
q0 -39 -29 -68q-60 -63 -178 -102q-112 -37 -256 -37q-125 0 -254 38q-126 37 -180 91q-27 27 -27 69q0 52 37 113q38 62 106 123q67 -71 174 -118q105 -46 203 -46q81 0 168 29q88 29 139 73q45 -40 71 -85z" />
    <glyph glyph-name="gbreve" unicode="&#x11f;" horiz-adv-x="1609" 
d="M1420 862q70 -69 119 -153q50 -86 50 -127q0 -88 -77 -231q-77 -144 -244 -254q-168 -111 -424 -111q-245 0 -421 97q-178 98 -269 265q-93 171 -93 381q0 276 114 481t317 315q202 109 462 109q109 0 214 -23q116 -25 157 -40q23 -57 45 -140q23 -87 23 -163
q0 -52 -15 -92q-16 -43 -43 -66q-67 -57 -250 -57q-102 0 -182 14q0 59 4 139q-143 -24 -226 -138q-83 -115 -83 -286q0 -145 81 -235t216 -90q84 0 165 31q79 30 154 94h-393q-22 103 -22 153q0 73 37 117q36 42 138 60t322 18q54 0 124 -68zM1283 2024q26 -44 26 -80
q0 -39 -29 -68q-60 -63 -178 -102q-112 -37 -256 -37q-125 0 -254 38q-126 37 -180 91q-27 27 -27 69q0 52 37 113q38 62 106 123q67 -71 174 -118q105 -46 203 -46q81 0 168 29q88 29 139 73q45 -40 71 -85z" />
    <glyph glyph-name="Gdotaccent" unicode="&#x120;" horiz-adv-x="1609" 
d="M1420 862q70 -69 119 -153q50 -86 50 -127q0 -88 -77 -231q-77 -144 -244 -254q-168 -111 -424 -111q-245 0 -421 97q-178 98 -269 265q-93 171 -93 381q0 276 114 481t317 315q202 109 462 109q109 0 214 -23q116 -25 157 -40q23 -57 45 -140q23 -87 23 -163
q0 -52 -15 -92q-16 -43 -43 -66q-67 -57 -250 -57q-102 0 -182 14q0 59 4 139q-143 -24 -226 -138q-83 -115 -83 -286q0 -145 81 -235t216 -90q84 0 165 31q79 30 154 94h-393q-22 103 -22 153q0 73 37 117q36 42 138 60t322 18q54 0 124 -68zM709 1802q73 -53 182 -53
q37 0 76 36t63 91q25 58 25 109q0 81 -66 128q-65 46 -180 46q-42 0 -83 -32q-39 -31 -64 -83q-25 -53 -25 -107q0 -83 72 -135z" />
    <glyph glyph-name="gdotaccent" unicode="&#x121;" horiz-adv-x="1609" 
d="M1420 862q70 -69 119 -153q50 -86 50 -127q0 -88 -77 -231q-77 -144 -244 -254q-168 -111 -424 -111q-245 0 -421 97q-178 98 -269 265q-93 171 -93 381q0 276 114 481t317 315q202 109 462 109q109 0 214 -23q116 -25 157 -40q23 -57 45 -140q23 -87 23 -163
q0 -52 -15 -92q-16 -43 -43 -66q-67 -57 -250 -57q-102 0 -182 14q0 59 4 139q-143 -24 -226 -138q-83 -115 -83 -286q0 -145 81 -235t216 -90q84 0 165 31q79 30 154 94h-393q-22 103 -22 153q0 73 37 117q36 42 138 60t322 18q54 0 124 -68zM709 1802q73 -53 182 -53
q37 0 76 36t63 91q25 58 25 109q0 81 -66 128q-65 46 -180 46q-42 0 -83 -32q-39 -31 -64 -83q-25 -53 -25 -107q0 -83 72 -135z" />
    <glyph glyph-name="uni0122" unicode="&#x122;" horiz-adv-x="1609" 
d="M1420 862q70 -69 119 -153q50 -86 50 -127q0 -88 -77 -231q-77 -144 -244 -254q-168 -111 -424 -111q-245 0 -421 97q-178 98 -269 265q-93 171 -93 381q0 276 114 481t317 315q202 109 462 109q109 0 214 -23q116 -25 157 -40q23 -57 45 -140q23 -87 23 -163
q0 -52 -15 -92q-16 -43 -43 -66q-67 -57 -250 -57q-102 0 -182 14q0 59 4 139q-143 -24 -226 -138q-83 -115 -83 -286q0 -145 81 -235t216 -90q84 0 165 31q79 30 154 94h-393q-22 103 -22 153q0 73 37 117q36 42 138 60t322 18q54 0 124 -68zM1059 -313q0 -95 -31 -210
q-30 -111 -80 -188q-49 -75 -102 -75q-59 0 -117 29t-96 73q62 71 100 160q-109 1 -149 41q-31 31 -31 108q0 113 57 246q105 37 209 37q133 0 195 -62q45 -45 45 -159z" />
    <glyph glyph-name="uni0123" unicode="&#x123;" horiz-adv-x="1609" 
d="M1420 862q70 -69 119 -153q50 -86 50 -127q0 -88 -77 -231q-77 -144 -244 -254q-168 -111 -424 -111q-245 0 -421 97q-178 98 -269 265q-93 171 -93 381q0 276 114 481t317 315q202 109 462 109q109 0 214 -23q116 -25 157 -40q23 -57 45 -140q23 -87 23 -163
q0 -52 -15 -92q-16 -43 -43 -66q-67 -57 -250 -57q-102 0 -182 14q0 59 4 139q-143 -24 -226 -138q-83 -115 -83 -286q0 -145 81 -235t216 -90q84 0 165 31q79 30 154 94h-393q-22 103 -22 153q0 73 37 117q36 42 138 60t322 18q54 0 124 -68zM1090 1962q0 -108 -56 -238
q-103 -34 -198 -34q-62 0 -112 15t-79 44q-43 43 -43 156q0 93 30 201q30 109 78 182t97 73q55 0 114 -27q57 -26 91 -71q-65 -74 -97 -156q110 -2 144 -36q31 -34 31 -109z" />
    <glyph glyph-name="Hcircumflex" unicode="&#x124;" horiz-adv-x="1613" 
d="M1511 16q-137 -18 -241 -18q-295 0 -295 154l4 270h-289l-8 -406q-105 -16 -219 -16q-141 0 -234 37q-94 37 -94 127l4 110q0 1 1.5 24t2.5 37q0 6 1.5 36.5t2.5 50.5h-71q-21 144 -21 215q0 104 29 133q17 19 84 35l43 780q108 21 221 21q275 0 275 -156q0 -56 -2 -236
q0 -43 -2 -137t-3 -145q-2 -36 -2 -84q109 4 195 4l98 2l27 731q32 11 91 20q60 9 124 9q116 0 197 -38q79 -37 79 -126zM1028 2118q135 -79 313 -205q-30 -95 -101 -158q-70 -63 -146 -63q-60 0 -135 68t-150 184l-254 -222q-86 23 -144 81q-57 57 -57 118q0 45 89 111
q83 62 209 114q119 49 202 49q42 0 174 -77z" />
    <glyph glyph-name="hcircumflex" unicode="&#x125;" horiz-adv-x="1613" 
d="M1511 16q-137 -18 -241 -18q-295 0 -295 154l4 270h-289l-8 -406q-105 -16 -219 -16q-141 0 -234 37q-94 37 -94 127l4 110q0 1 1.5 24t2.5 37q0 6 1.5 36.5t2.5 50.5h-71q-21 144 -21 215q0 104 29 133q17 19 84 35l43 780q108 21 221 21q275 0 275 -156q0 -56 -2 -236
q0 -43 -2 -137t-3 -145q-2 -36 -2 -84q109 4 195 4l98 2l27 731q32 11 91 20q60 9 124 9q116 0 197 -38q79 -37 79 -126zM1028 2118q135 -79 313 -205q-30 -95 -101 -158q-70 -63 -146 -63q-60 0 -135 68t-150 184l-254 -222q-86 23 -144 81q-57 57 -57 118q0 45 89 111
q83 62 209 114q119 49 202 49q42 0 174 -77z" />
    <glyph glyph-name="Hbar" unicode="&#x126;" horiz-adv-x="1658" 
d="M1556 20q-126 -22 -225 -22q-145 0 -229 42t-84 118q0 63 2 145q-141 0 -289 2l-6 -285q-109 -20 -219 -20q-150 0 -238 45t-88 125l4 141h-96q-33 51 -33 111q0 59 35 94q14 14 107 29l8 170h-101q-32 49 -32 110q0 60 35 95q15 15 110 30l37 641q102 21 199 21
q135 0 216 -42t81 -116q0 -73 -7 -479q169 0 297 -2l23 618q112 27 215 27q128 0 202 -43t74 -121zM1026 565l6 142q-143 0 -293 2l-4 -142q165 0 291 -2z" />
    <glyph glyph-name="hbar" unicode="&#x127;" horiz-adv-x="1658" 
d="M1556 20q-126 -22 -225 -22q-145 0 -229 42t-84 118q0 63 2 145q-141 0 -289 2l-6 -285q-109 -20 -219 -20q-150 0 -238 45t-88 125l4 141h-96q-33 51 -33 111q0 59 35 94q14 14 107 29l8 170h-101q-32 49 -32 110q0 60 35 95q15 15 110 30l37 641q102 21 199 21
q135 0 216 -42t81 -116q0 -73 -7 -479q169 0 297 -2l23 618q112 27 215 27q128 0 202 -43t74 -121zM1026 565l6 142q-143 0 -293 2l-4 -142q165 0 291 -2z" />
    <glyph glyph-name="Itilde" unicode="&#x128;" horiz-adv-x="796" 
d="M449 -16q-146 0 -234 33q-92 35 -92 120q-2 161 13 539q14 357 20 473l16 422q34 9 106 19q66 9 134 9q262 0 262 -165q6 -598 20 -1432q-147 -18 -245 -18zM811 1855q0 -71 -25 -116q-24 -43 -71 -43q-289 0 -643 -13q-43 90 -43 168q0 58 26 84q42 42 216 61
q171 19 517 19q23 -84 23 -160z" />
    <glyph glyph-name="itilde" unicode="&#x129;" horiz-adv-x="796" 
d="M449 -16q-146 0 -234 33q-92 35 -92 120q-2 161 13 539q14 357 20 473l16 422q34 9 106 19q66 9 134 9q262 0 262 -165q6 -598 20 -1432q-147 -18 -245 -18zM811 1855q0 -71 -25 -116q-24 -43 -71 -43q-289 0 -643 -13q-43 90 -43 168q0 58 26 84q42 42 216 61
q171 19 517 19q23 -84 23 -160z" />
    <glyph glyph-name="Imacron" unicode="&#x12a;" horiz-adv-x="796" 
d="M449 -16q-146 0 -234 33q-92 35 -92 120q-2 161 13 539q14 357 20 473l16 422q34 9 106 19q66 9 134 9q262 0 262 -165q6 -598 20 -1432q-147 -18 -245 -18zM109 1712q364 4 630 4q64 0 99 45q34 44 34 123q0 55 -22 131q-139 4 -266 4q-485 0 -553 -47q-27 -21 -42 -65
q-16 -48 -16 -103q0 -41 11 -94q65 0 125 2z" />
    <glyph glyph-name="imacron" unicode="&#x12b;" horiz-adv-x="796" 
d="M449 -16q-146 0 -234 33q-92 35 -92 120q-2 161 13 539q14 357 20 473l16 422q34 9 106 19q66 9 134 9q262 0 262 -165q6 -598 20 -1432q-147 -18 -245 -18zM109 1712q364 4 630 4q64 0 99 45q34 44 34 123q0 55 -22 131q-139 4 -266 4q-485 0 -553 -47q-27 -21 -42 -65
q-16 -48 -16 -103q0 -41 11 -94q65 0 125 2z" />
    <glyph glyph-name="Ibreve" unicode="&#x12c;" horiz-adv-x="796" 
d="M449 -16q-146 0 -234 33q-92 35 -92 120q-2 161 13 539q14 357 20 473l16 422q34 9 106 19q66 9 134 9q262 0 262 -165q6 -598 20 -1432q-147 -18 -245 -18zM857 2014q26 -44 26 -81q0 -38 -29 -67q-62 -65 -178 -103q-112 -37 -256 -37q-125 0 -254 38q-126 37 -180 91
q-27 27 -27 70q0 52 37 113q38 62 106 123q67 -71 174 -118q105 -46 203 -46q84 0 168 28q86 29 139 74q45 -40 71 -85z" />
    <glyph glyph-name="Iogonek" unicode="&#x12e;" horiz-adv-x="796" 
d="M545 -259q47 -20 117 -15q6 -105 -62 -171q-69 -67 -178 -67q-125 0 -202 71t-77 183q0 65 40 130q42 69 112 124q-172 28 -172 141q-2 161 13 539q14 357 20 473l16 422q34 9 106 19q66 9 134 9q262 0 262 -165q6 -598 20 -1432l-51 -6q-63 -39 -105 -96
q-40 -55 -40 -105q0 -34 47 -54z" />
    <glyph glyph-name="iogonek" unicode="&#x12f;" horiz-adv-x="796" 
d="M545 -259q47 -20 117 -15q6 -105 -62 -171q-69 -67 -178 -67q-125 0 -202 71t-77 183q0 65 40 130q42 69 112 124q-172 28 -172 141q-2 161 13 539q14 357 20 473l16 422q34 9 106 19q66 9 134 9q262 0 262 -165q6 -598 20 -1432l-51 -6q-63 -39 -105 -96
q-40 -55 -40 -105q0 -34 47 -54z" />
    <glyph glyph-name="Idotaccent" unicode="&#x130;" horiz-adv-x="796" 
d="M449 -16q-146 0 -234 33q-92 35 -92 120q-2 161 13 539q14 357 20 473l16 422q34 9 106 19q66 9 134 9q262 0 262 -165q6 -598 20 -1432q-147 -18 -245 -18zM283 1792q73 -53 182 -53q37 0 76 36t63 91q25 58 25 108q0 82 -66 128q-65 46 -180 46q-43 0 -83 -31
q-39 -31 -64 -83q-25 -53 -25 -107q0 -83 72 -135z" />
    <glyph glyph-name="dotlessi" unicode="&#x131;" horiz-adv-x="796" 
d="M449 -16q-146 0 -234 33q-92 35 -92 120q-2 161 13 539q14 357 20 473l16 422q34 9 106 19q66 9 134 9q262 0 262 -165q6 -598 20 -1432q-147 -18 -245 -18z" />
    <glyph glyph-name="IJ" unicode="&#x132;" horiz-adv-x="2240" 
d="M449 -16q-146 0 -234 33q-92 35 -92 120q-2 161 13 539q14 357 20 473l16 422q34 9 106 19q66 9 134 9q262 0 262 -165q6 -598 20 -1432q-147 -18 -245 -18zM2014 1538q113 -62 216 -160q0 -500 -78 -808q-78 -309 -243 -454q-167 -147 -434 -147q-193 0 -334 69
q-140 69 -217 198q-76 128 -76 305q0 93 37 171q38 80 99 124q63 45 138 45q64 0 136 -21q75 -22 120 -51q-13 -31 -24 -92q-11 -58 -11 -105q0 -84 39 -128t113 -44q120 0 180 167q60 166 66 528l-688 -2q-11 53 -11 120q0 82 20 153q19 68 56 105q35 36 253 63
q229 28 452 28q74 0 191 -64z" />
    <glyph glyph-name="ij" unicode="&#x133;" horiz-adv-x="2240" 
d="M449 -16q-146 0 -234 33q-92 35 -92 120q-2 161 13 539q14 357 20 473l16 422q34 9 106 19q66 9 134 9q262 0 262 -165q6 -598 20 -1432q-147 -18 -245 -18zM2014 1538q113 -62 216 -160q0 -500 -78 -808q-78 -309 -243 -454q-167 -147 -434 -147q-193 0 -334 69
q-140 69 -217 198q-76 128 -76 305q0 93 37 171q38 80 99 124q63 45 138 45q64 0 136 -21q75 -22 120 -51q-13 -31 -24 -92q-11 -58 -11 -105q0 -84 39 -128t113 -44q120 0 180 167q60 166 66 528l-688 -2q-11 53 -11 120q0 82 20 153q19 68 56 105q35 36 253 63
q229 28 452 28q74 0 191 -64z" />
    <glyph glyph-name="Jcircumflex" unicode="&#x134;" horiz-adv-x="1443" 
d="M1218 1538q113 -62 216 -160q0 -500 -78 -808q-78 -307 -244 -454t-434 -147q-193 0 -334 69q-140 69 -217 198q-76 128 -76 305q0 93 37 171q38 80 99 124q63 45 139 45q64 0 136 -21q75 -22 120 -51q-14 -36 -25 -92q-10 -53 -10 -105q0 -84 39 -128t112 -44
q121 0 181 167q59 164 65 528l-688 -2q-10 49 -10 120q0 86 19 153t57 105q35 36 252 63q229 28 452 28q75 0 192 -64zM944 2097q135 -79 313 -205q-30 -93 -101 -157q-72 -64 -146 -64q-58 0 -134 69q-79 71 -151 183l-254 -221q-86 23 -144 81q-57 57 -57 118q0 44 89 110
q86 64 209 115q119 49 202 49q40 0 174 -78z" />
    <glyph glyph-name="jcircumflex" unicode="&#x135;" horiz-adv-x="1443" 
d="M1218 1538q113 -62 216 -160q0 -500 -78 -808q-78 -307 -244 -454t-434 -147q-193 0 -334 69q-140 69 -217 198q-76 128 -76 305q0 93 37 171q38 80 99 124q63 45 139 45q64 0 136 -21q75 -22 120 -51q-14 -36 -25 -92q-10 -53 -10 -105q0 -84 39 -128t112 -44
q121 0 181 167q59 164 65 528l-688 -2q-10 49 -10 120q0 86 19 153t57 105q35 36 252 63q229 28 452 28q75 0 192 -64zM944 2097q135 -79 313 -205q-30 -93 -101 -157q-72 -64 -146 -64q-58 0 -134 69q-79 71 -151 183l-254 -221q-86 23 -144 81q-57 57 -57 118q0 44 89 110
q86 64 209 115q119 49 202 49q40 0 174 -78z" />
    <glyph glyph-name="uni0136" unicode="&#x136;" horiz-adv-x="1542" 
d="M1532 377q-6 -80 -51 -173q-46 -95 -129 -160q-85 -67 -201 -67q-94 0 -231 145q-141 149 -240 322q0 -109 4 -237l2 -205q-159 -29 -268 -29q-128 0 -212 38q-83 38 -83 126q0 446 43 1434q146 24 240 24q258 0 258 -161q0 -186 6 -482l389 637q79 -24 162 -69
q94 -51 161 -115q70 -67 70 -133q0 -41 -50 -109q-39 -54 -153 -184q-128 -147 -243 -264q274 -191 526 -338zM1026 -313q0 -95 -31 -210q-30 -111 -80 -188q-49 -75 -102 -75q-59 0 -117 29t-96 73q62 71 100 160q-109 1 -149 41q-31 31 -31 108q0 110 58 246
q105 37 208 37q133 0 195 -62q45 -45 45 -159z" />
    <glyph glyph-name="uni0137" unicode="&#x137;" horiz-adv-x="1542" 
d="M1532 377q-6 -80 -51 -173q-46 -95 -129 -160q-85 -67 -201 -67q-94 0 -231 145q-141 149 -240 322q0 -109 4 -237l2 -205q-159 -29 -268 -29q-128 0 -212 38q-83 38 -83 126q0 446 43 1434q146 24 240 24q258 0 258 -161q0 -186 6 -482l389 637q79 -24 162 -69
q94 -51 161 -115q70 -67 70 -133q0 -41 -50 -109q-39 -54 -153 -184q-128 -147 -243 -264q274 -191 526 -338zM1026 -313q0 -95 -31 -210q-30 -111 -80 -188q-49 -75 -102 -75q-59 0 -117 29t-96 73q62 71 100 160q-109 1 -149 41q-31 31 -31 108q0 110 58 246
q105 37 208 37q133 0 195 -62q45 -45 45 -159z" />
    <glyph glyph-name="kgreenlandic" unicode="&#x138;" horiz-adv-x="1542" 
d="M1532 377q-6 -80 -51 -173q-46 -95 -129 -160q-85 -67 -201 -67q-94 0 -231 145q-141 149 -240 322q0 -109 4 -237l2 -205q-159 -29 -268 -29q-128 0 -212 38q-83 38 -83 126q0 446 43 1434q146 24 240 24q258 0 258 -161q0 -186 6 -482l389 637q79 -24 162 -69
q94 -51 161 -115q70 -67 70 -133q0 -41 -50 -109q-39 -54 -153 -184q-128 -147 -243 -264q274 -191 526 -338z" />
    <glyph glyph-name="Lacute" unicode="&#x139;" horiz-adv-x="1196" 
d="M1147 408q10 -73 10 -154q0 -115 -31 -192q-30 -74 -106 -74q-88 -2 -227 -2q-289 0 -365 18q-68 17 -142 69q-69 49 -117 104q-46 53 -46 79l2 1006q2 204 2 319q84 14 207 14q148 0 251 -41q101 -40 101 -145q2 -312 -55 -928q9 0 52 4t79 7q280 24 366 22
q10 -39 19 -106zM383 1742q-67 30 -96 77l250 417q163 -6 268 -60q104 -53 104 -132q0 -52 -69 -131q-68 -78 -162 -140q-93 -61 -152 -61q-76 0 -143 30z" />
    <glyph glyph-name="lacute" unicode="&#x13a;" horiz-adv-x="1196" 
d="M1147 408q10 -73 10 -154q0 -115 -31 -192q-30 -74 -106 -74q-88 -2 -227 -2q-289 0 -365 18q-68 17 -142 69q-69 49 -117 104q-46 53 -46 79l2 1006q2 204 2 319q84 14 207 14q148 0 251 -41q101 -40 101 -145q2 -312 -55 -928q9 0 52 4t79 7q280 24 366 22
q10 -39 19 -106zM383 1742q-67 30 -96 77l250 417q163 -6 268 -60q104 -53 104 -132q0 -52 -69 -131q-68 -78 -162 -140q-93 -61 -152 -61q-76 0 -143 30z" />
    <glyph glyph-name="uni013B" unicode="&#x13b;" horiz-adv-x="1196" 
d="M1147 408q10 -73 10 -154q0 -115 -31 -192q-30 -74 -106 -74q-88 -2 -227 -2q-289 0 -365 18q-68 17 -142 69q-69 49 -117 104q-46 53 -46 79l2 1006q2 204 2 319q84 14 207 14q148 0 251 -41q101 -40 101 -145q2 -312 -55 -928q9 0 52 4t79 7q280 24 366 22
q10 -39 19 -106zM852 -313q0 -95 -31 -210q-30 -111 -80 -188q-49 -75 -102 -75q-59 0 -117 29t-96 73q62 71 100 160q-109 1 -149 41q-31 31 -31 108q0 113 57 246q105 37 209 37q133 0 195 -62q45 -45 45 -159z" />
    <glyph glyph-name="uni013C" unicode="&#x13c;" horiz-adv-x="1196" 
d="M1147 408q10 -73 10 -154q0 -115 -31 -192q-30 -74 -106 -74q-88 -2 -227 -2q-289 0 -365 18q-68 17 -142 69q-69 49 -117 104q-46 53 -46 79l2 1006q2 204 2 319q84 14 207 14q148 0 251 -41q101 -40 101 -145q2 -312 -55 -928q9 0 52 4t79 7q280 24 366 22
q10 -39 19 -106zM852 -313q0 -95 -31 -210q-30 -111 -80 -188q-49 -75 -102 -75q-59 0 -117 29t-96 73q62 71 100 160q-109 1 -149 41q-31 31 -31 108q0 113 57 246q105 37 209 37q133 0 195 -62q45 -45 45 -159z" />
    <glyph glyph-name="Lcaron" unicode="&#x13d;" horiz-adv-x="1200" 
d="M1147 408q10 -73 10 -154q0 -115 -31 -192q-30 -74 -106 -74q-88 -2 -227 -2q-289 0 -365 18q-68 17 -142 69q-69 49 -117 104q-46 53 -46 79l2 1006q2 204 2 319q84 14 207 14q148 0 251 -41q101 -40 101 -145q2 -312 -55 -928q9 0 52 4t79 7q280 24 366 22
q10 -39 19 -106zM1294 1724q0 -102 -36 -224t-93 -206t-114 -84q-45 0 -105 21q-62 22 -106 53l6 236q-64 44 -64 108q0 52 13 138q12 81 30 143q113 39 213 39q143 0 211 -68q45 -45 45 -156z" />
    <glyph glyph-name="lcaron" unicode="&#x13e;" horiz-adv-x="1200" 
d="M1147 408q10 -73 10 -154q0 -115 -31 -192q-30 -74 -106 -74q-88 -2 -227 -2q-289 0 -365 18q-68 17 -142 69q-69 49 -117 104q-46 53 -46 79l2 1006q2 204 2 319q84 14 207 14q148 0 251 -41q101 -40 101 -145q2 -312 -55 -928q9 0 52 4t79 7q280 24 366 22
q10 -39 19 -106zM1294 1724q0 -102 -36 -224t-93 -206t-114 -84q-45 0 -105 21q-62 22 -106 53l6 236q-64 44 -64 108q0 52 13 138q12 81 30 143q113 39 213 39q143 0 211 -68q45 -45 45 -156z" />
    <glyph glyph-name="Ldot" unicode="&#x13f;" horiz-adv-x="1400" 
d="M1147 408q10 -73 10 -154q0 -115 -31 -192q-30 -74 -106 -74q-88 -2 -227 -2q-289 0 -365 18q-68 17 -142 69q-69 49 -117 104q-46 53 -46 79l2 1006q2 204 2 319q84 14 207 14q148 0 251 -41q101 -40 101 -145q2 -312 -55 -928q9 0 52 4t79 7q280 24 366 22
q10 -39 19 -106zM936 692q54 -16 125 -16q115 0 246 45q53 126 53 233q0 101 -45 146q-67 67 -213 67q-102 0 -225 -39q-64 -154 -64 -268q0 -84 35 -119q33 -33 88 -49z" />
    <glyph glyph-name="ldot" unicode="&#x140;" horiz-adv-x="1400" 
d="M1147 408q10 -73 10 -154q0 -115 -31 -192q-30 -74 -106 -74q-88 -2 -227 -2q-289 0 -365 18q-68 17 -142 69q-69 49 -117 104q-46 53 -46 79l2 1006q2 204 2 319q84 14 207 14q148 0 251 -41q101 -40 101 -145q2 -312 -55 -928q9 0 52 4t79 7q280 24 366 22
q10 -39 19 -106zM936 692q54 -16 125 -16q115 0 246 45q53 126 53 233q0 101 -45 146q-67 67 -213 67q-102 0 -225 -39q-64 -154 -64 -268q0 -84 35 -119q33 -33 88 -49z" />
    <glyph glyph-name="Lslash" unicode="&#x141;" horiz-adv-x="1359" 
d="M1311 408q10 -73 10 -154q0 -115 -31 -192q-30 -74 -106 -74q-88 -2 -228 -2q-288 0 -364 18q-68 17 -142 69q-69 49 -117 104q-46 53 -46 79v496q-103 0 -191 2q-33 51 -33 110t35 94q30 30 191 46l2 577q84 14 207 14q148 0 251 -41q101 -40 101 -145q0 -214 -14 -399
q59 0 147 -4l68 -2q26 -71 26 -136q0 -57 -25 -91t-71 -34h-164l-22 -262q9 0 52 4t79 7q280 24 366 22q10 -39 19 -106z" />
    <glyph glyph-name="lslash" unicode="&#x142;" horiz-adv-x="1359" 
d="M1311 408q10 -73 10 -154q0 -115 -31 -192q-30 -74 -106 -74q-88 -2 -228 -2q-288 0 -364 18q-68 17 -142 69q-69 49 -117 104q-46 53 -46 79v496q-103 0 -191 2q-33 51 -33 110t35 94q30 30 191 46l2 577q84 14 207 14q148 0 251 -41q101 -40 101 -145q0 -214 -14 -399
q59 0 147 -4l68 -2q26 -71 26 -136q0 -57 -25 -91t-71 -34h-164l-22 -262q9 0 52 4t79 7q280 24 366 22q10 -39 19 -106z" />
    <glyph glyph-name="Nacute" unicode="&#x143;" horiz-adv-x="1679" 
d="M1577 819l-2 -719v-94q-119 -35 -225 -35q-211 0 -340 129q-85 85 -191 264q-107 181 -201 377l19 -755q-75 -11 -176 -11q-140 0 -240 38q-98 37 -98 137q-2 136 18 626q22 546 37 785q132 22 225 22q186 0 269 -82q66 -66 187 -268q110 -184 245 -449l2 791
q111 18 205 18q260 0 260 -153q6 -224 6 -621zM686 1742q-67 30 -96 77l250 417q163 -6 268 -60q104 -53 104 -132q0 -52 -69 -131q-68 -78 -162 -140q-93 -61 -152 -61q-75 0 -143 30z" />
    <glyph glyph-name="nacute" unicode="&#x144;" horiz-adv-x="1679" 
d="M1577 819l-2 -719v-94q-119 -35 -225 -35q-211 0 -340 129q-85 85 -191 264q-107 181 -201 377l19 -755q-75 -11 -176 -11q-140 0 -240 38q-98 37 -98 137q-2 136 18 626q22 546 37 785q132 22 225 22q186 0 269 -82q66 -66 187 -268q110 -184 245 -449l2 791
q111 18 205 18q260 0 260 -153q6 -224 6 -621zM686 1742q-67 30 -96 77l250 417q163 -6 268 -60q104 -53 104 -132q0 -52 -69 -131q-68 -78 -162 -140q-93 -61 -152 -61q-75 0 -143 30z" />
    <glyph glyph-name="uni0145" unicode="&#x145;" horiz-adv-x="1679" 
d="M1577 819l-2 -719v-94q-119 -35 -225 -35q-211 0 -340 129q-85 85 -191 264q-107 181 -201 377l19 -755q-75 -11 -176 -11q-140 0 -240 38q-98 37 -98 137q-2 136 18 626q22 546 37 785q132 22 225 22q186 0 269 -82q66 -66 187 -268q110 -184 245 -449l2 791
q111 18 205 18q260 0 260 -153q6 -224 6 -621zM1094 -313q0 -95 -31 -210q-30 -111 -80 -188q-49 -75 -102 -75q-59 0 -117 29t-96 73q62 71 100 160q-110 1 -150 41q-30 30 -30 108q0 113 57 246q105 37 209 37q133 0 195 -62q45 -45 45 -159z" />
    <glyph glyph-name="uni0146" unicode="&#x146;" horiz-adv-x="1679" 
d="M1577 819l-2 -719v-94q-119 -35 -225 -35q-211 0 -340 129q-85 85 -191 264q-107 181 -201 377l19 -755q-75 -11 -176 -11q-140 0 -240 38q-98 37 -98 137q-2 136 18 626q22 546 37 785q132 22 225 22q186 0 269 -82q66 -66 187 -268q110 -184 245 -449l2 791
q111 18 205 18q260 0 260 -153q6 -224 6 -621zM1094 -313q0 -95 -31 -210q-30 -111 -80 -188q-49 -75 -102 -75q-59 0 -117 29t-96 73q62 71 100 160q-110 1 -150 41q-30 30 -30 108q0 113 57 246q105 37 209 37q133 0 195 -62q45 -45 45 -159z" />
    <glyph glyph-name="Ncaron" unicode="&#x147;" horiz-adv-x="1679" 
d="M1577 819l-2 -719v-94q-119 -35 -225 -35q-211 0 -340 129q-85 85 -191 264q-107 181 -201 377l19 -755q-75 -11 -176 -11q-140 0 -240 38q-98 37 -98 137q-2 136 18 626q22 546 37 785q132 22 225 22q186 0 269 -82q66 -66 187 -268q110 -184 245 -449l2 791
q111 18 205 18q260 0 260 -153q6 -224 6 -621zM1194 2218q77 -40 129 -109q51 -67 51 -131q0 -45 -91 -103q-90 -57 -219 -100q-128 -42 -224 -42q-42 0 -156 72q-106 67 -258 192q21 88 84 145q64 58 139 58q56 0 122 -60q69 -62 124 -160z" />
    <glyph glyph-name="ncaron" unicode="&#x148;" horiz-adv-x="1679" 
d="M1577 819l-2 -719v-94q-119 -35 -225 -35q-211 0 -340 129q-85 85 -191 264q-107 181 -201 377l19 -755q-75 -11 -176 -11q-140 0 -240 38q-98 37 -98 137q-2 136 18 626q22 546 37 785q132 22 225 22q186 0 269 -82q66 -66 187 -268q110 -184 245 -449l2 791
q111 18 205 18q260 0 260 -153q6 -224 6 -621zM1194 2218q77 -40 129 -109q51 -67 51 -131q0 -45 -91 -103q-90 -57 -219 -100q-128 -42 -224 -42q-42 0 -156 72q-106 67 -258 192q21 88 84 145q64 58 139 58q56 0 122 -60q69 -62 124 -160z" />
    <glyph glyph-name="Eng" unicode="&#x14a;" horiz-adv-x="1679" 
d="M1575 8v-2q-1 -208 -89 -338q-87 -129 -209 -183q-121 -54 -233 -54q-149 0 -230 63t-81 174q0 93 62 215q91 -30 163 -30q159 0 189 155q-79 35 -137 92q-85 85 -191 264q-107 181 -201 377l19 -755q-75 -11 -176 -11q-140 0 -240 38q-98 37 -98 137q-2 136 18 626
q22 546 37 785q132 22 225 22q186 0 269 -82q66 -66 187 -268q110 -184 245 -449l2 791q111 18 205 18q260 0 260 -153q6 -223 6 -613l-2 -716v-99v-4z" />
    <glyph glyph-name="eng" unicode="&#x14b;" horiz-adv-x="1679" 
d="M1575 8v-2q-1 -208 -89 -338q-87 -129 -209 -183q-121 -54 -233 -54q-149 0 -230 63t-81 174q0 93 62 215q91 -30 163 -30q159 0 189 155q-79 35 -137 92q-85 85 -191 264q-107 181 -201 377l19 -755q-75 -11 -176 -11q-140 0 -240 38q-98 37 -98 137q-2 136 18 626
q22 546 37 785q132 22 225 22q186 0 269 -82q66 -66 187 -268q110 -184 245 -449l2 791q111 18 205 18q260 0 260 -153q6 -223 6 -613l-2 -716v-99v-4z" />
    <glyph glyph-name="Omacron" unicode="&#x14c;" 
d="M416 73q-168 104 -261 292q-94 191 -94 436q0 205 92 394q91 187 263 305t401 118q230 0 400 -116q169 -115 258 -302q88 -185 88 -393q0 -233 -100 -427q-99 -191 -273 -301q-175 -110 -389 -110q-216 0 -385 104zM984 544q67 94 67 251q0 199 -69 298t-175 99
q-107 0 -171 -98q-65 -100 -65 -299q0 -159 64 -252q63 -92 172 -92q111 0 177 93zM543 1722q364 4 631 4q63 0 98 46t35 122q0 51 -23 131q-173 5 -266 5q-483 0 -553 -48q-27 -21 -42 -65q-15 -45 -15 -102q0 -46 10 -95q65 0 125 2z" />
    <glyph glyph-name="omacron" unicode="&#x14d;" 
d="M416 73q-168 104 -261 292q-94 191 -94 436q0 205 92 394q91 187 263 305t401 118q230 0 400 -116q169 -115 258 -302q88 -185 88 -393q0 -233 -100 -427q-99 -191 -273 -301q-175 -110 -389 -110q-216 0 -385 104zM984 544q67 94 67 251q0 199 -69 298t-175 99
q-107 0 -171 -98q-65 -100 -65 -299q0 -159 64 -252q63 -92 172 -92q111 0 177 93zM543 1722q364 4 631 4q63 0 98 46t35 122q0 51 -23 131q-173 5 -266 5q-483 0 -553 -48q-27 -21 -42 -65q-15 -45 -15 -102q0 -46 10 -95q65 0 125 2z" />
    <glyph glyph-name="Obreve" unicode="&#x14e;" 
d="M416 73q-168 104 -261 292q-94 191 -94 436q0 205 92 394q91 187 263 305t401 118q230 0 400 -116q169 -115 258 -302q88 -185 88 -393q0 -233 -100 -427q-99 -191 -273 -301q-175 -110 -389 -110q-216 0 -385 104zM984 544q67 94 67 251q0 199 -69 298t-175 99
q-107 0 -171 -98q-65 -100 -65 -299q0 -159 64 -252q63 -92 172 -92q111 0 177 93zM1291 2024q26 -44 26 -80q0 -39 -29 -68q-60 -63 -178 -102q-112 -37 -256 -37q-125 0 -254 38q-126 37 -180 91q-27 27 -27 69q0 52 37 113t107 123q67 -71 174 -118q105 -46 202 -46
q81 0 168 29q90 30 140 73q43 -38 70 -85z" />
    <glyph glyph-name="obreve" unicode="&#x14f;" 
d="M416 73q-168 104 -261 292q-94 191 -94 436q0 205 92 394q91 187 263 305t401 118q230 0 400 -116q169 -115 258 -302q88 -185 88 -393q0 -233 -100 -427q-99 -191 -273 -301q-175 -110 -389 -110q-216 0 -385 104zM984 544q67 94 67 251q0 199 -69 298t-175 99
q-107 0 -171 -98q-65 -100 -65 -299q0 -159 64 -252q63 -92 172 -92q111 0 177 93zM1291 2024q26 -44 26 -80q0 -39 -29 -68q-60 -63 -178 -102q-112 -37 -256 -37q-125 0 -254 38q-126 37 -180 91q-27 27 -27 69q0 52 37 113t107 123q67 -71 174 -118q105 -46 202 -46
q81 0 168 29q90 30 140 73q43 -38 70 -85z" />
    <glyph glyph-name="Ohungarumlaut" unicode="&#x150;" 
d="M416 73q-168 104 -261 292q-94 191 -94 436q0 205 92 394q91 187 263 305t401 118q230 0 400 -116q169 -115 258 -302q88 -185 88 -393q0 -233 -100 -427q-99 -191 -273 -301q-175 -110 -389 -110q-216 0 -385 104zM984 544q67 94 67 251q0 199 -69 298t-175 99
q-107 0 -171 -98q-65 -100 -65 -299q0 -159 64 -252q63 -92 172 -92q111 0 177 93zM639 1754q94 62 162 140q69 79 69 131q0 80 -104 133q-105 54 -268 60l-250 -418q29 -47 96 -77q65 -29 143 -29q61 0 152 60zM1227 1752q94 62 162 140q69 80 69 131q0 80 -104 133
q-105 54 -269 60l-249 -418q29 -47 96 -77q65 -29 143 -29q61 0 152 60z" />
    <glyph glyph-name="ohungarumlaut" unicode="&#x151;" 
d="M416 73q-168 104 -261 292q-94 191 -94 436q0 205 92 394q91 187 263 305t401 118q230 0 400 -116q169 -115 258 -302q88 -185 88 -393q0 -233 -100 -427q-99 -191 -273 -301q-175 -110 -389 -110q-216 0 -385 104zM984 544q67 94 67 251q0 199 -69 298t-175 99
q-107 0 -171 -98q-65 -100 -65 -299q0 -159 64 -252q63 -92 172 -92q111 0 177 93zM639 1754q94 62 162 140q69 79 69 131q0 80 -104 133q-105 54 -268 60l-250 -418q29 -47 96 -77q65 -29 143 -29q61 0 152 60zM1227 1752q94 62 162 140q69 80 69 131q0 80 -104 133
q-105 54 -269 60l-249 -418q29 -47 96 -77q65 -29 143 -29q61 0 152 60z" />
    <glyph glyph-name="OE" unicode="&#x152;" horiz-adv-x="2314" 
d="M2002 474q107 21 169 56q88 -169 88 -305q0 -92 -43 -135q-59 -59 -195 -94q-137 -35 -303 -35q-155 0 -281 49q-127 50 -218 140q-92 -86 -201 -130q-111 -45 -232 -45q-217 0 -381 104q-163 103 -253 292q-91 191 -91 438q0 227 101 415q100 187 273 295
q171 107 382 107q123 0 233 -45q109 -45 197 -127q16 43 37 64q36 36 130 56q99 21 286 28q205 8 551 8q26 -114 26 -224q0 -122 -39 -194t-108 -72l-555 -4q-24 -102 -31 -164q134 11 430 11q25 -98 25 -170q0 -73 -24 -113q-24 -41 -66 -41h-361q21 -102 75 -144t161 -42
q108 0 218 21zM985 551q66 91 66 250q0 187 -65 293q-64 104 -179 104q-113 0 -174 -104q-62 -106 -62 -293q0 -158 64 -251q63 -91 172 -91q112 0 178 92z" />
    <glyph glyph-name="oe" unicode="&#x153;" horiz-adv-x="2314" 
d="M2002 474q107 21 169 56q88 -169 88 -305q0 -92 -43 -135q-59 -59 -195 -94q-137 -35 -303 -35q-155 0 -281 49q-127 50 -218 140q-92 -86 -201 -130q-111 -45 -232 -45q-217 0 -381 104q-163 103 -253 292q-91 191 -91 438q0 227 101 415q100 187 273 295
q171 107 382 107q123 0 233 -45q109 -45 197 -127q16 43 37 64q36 36 130 56q99 21 286 28q205 8 551 8q26 -114 26 -224q0 -122 -39 -194t-108 -72l-555 -4q-24 -102 -31 -164q134 11 430 11q25 -98 25 -170q0 -73 -24 -113q-24 -41 -66 -41h-361q21 -102 75 -144t161 -42
q108 0 218 21zM985 551q66 91 66 250q0 187 -65 293q-64 104 -179 104q-113 0 -174 -104q-62 -106 -62 -293q0 -158 64 -251q63 -91 172 -91q112 0 178 92z" />
    <glyph glyph-name="Racute" unicode="&#x154;" horiz-adv-x="1562" 
d="M1542 371q-34 -118 -92 -206q-59 -91 -132 -142q-73 -52 -147 -52q-105 0 -223 129q-120 131 -205 336l-47 -2q-2 -208 -2 -438q-118 -16 -211 -16q-148 0 -231 35q-86 36 -86 98q0 189 13 430q14 261 34 489l-43 -22q-43 68 -66 142q-22 70 -22 136q0 92 45 137
q96 96 280 145q188 50 437 50q197 0 350 -74q152 -74 236 -207q83 -132 83 -307q0 -150 -92 -277q-91 -126 -254 -210zM700 1059q0 -154 -2 -324q149 33 241 113q91 79 91 184q0 68 -65 108t-179 40q-75 0 -153 -15q67 -40 67 -106zM571 1742q-67 30 -96 77l250 417
q163 -6 268 -60t105 -132q0 -50 -70 -131q-68 -78 -162 -140q-93 -61 -151 -61q-77 0 -144 30z" />
    <glyph glyph-name="racute" unicode="&#x155;" horiz-adv-x="1562" 
d="M1542 371q-34 -118 -92 -206q-59 -91 -132 -142q-73 -52 -147 -52q-105 0 -223 129q-120 131 -205 336l-47 -2q-2 -208 -2 -438q-118 -16 -211 -16q-148 0 -231 35q-86 36 -86 98q0 189 13 430q14 261 34 489l-43 -22q-43 68 -66 142q-22 70 -22 136q0 92 45 137
q96 96 280 145q188 50 437 50q197 0 350 -74q152 -74 236 -207q83 -132 83 -307q0 -150 -92 -277q-91 -126 -254 -210zM700 1059q0 -154 -2 -324q149 33 241 113q91 79 91 184q0 68 -65 108t-179 40q-75 0 -153 -15q67 -40 67 -106zM571 1742q-67 30 -96 77l250 417
q163 -6 268 -60t105 -132q0 -50 -70 -131q-68 -78 -162 -140q-93 -61 -151 -61q-77 0 -144 30z" />
    <glyph glyph-name="uni0156" unicode="&#x156;" horiz-adv-x="1562" 
d="M1542 371q-34 -118 -92 -206q-59 -91 -132 -142q-73 -52 -147 -52q-105 0 -223 129q-120 131 -205 336l-47 -2q-2 -208 -2 -438q-118 -16 -211 -16q-148 0 -231 35q-86 36 -86 98q0 189 13 430q14 261 34 489l-43 -22q-43 68 -66 142q-22 70 -22 136q0 92 45 137
q96 96 280 145q188 50 437 50q197 0 350 -74q152 -74 236 -207q83 -132 83 -307q0 -150 -92 -277q-91 -126 -254 -210zM700 1059q0 -154 -2 -324q149 33 241 113q91 79 91 184q0 68 -65 108t-179 40q-75 0 -153 -15q67 -40 67 -106zM1040 -313q0 -99 -30 -210t-80 -188
q-49 -75 -103 -75q-58 0 -116 29q-60 30 -97 73q64 74 101 160q-110 1 -150 41q-30 30 -30 108q0 113 57 246q105 37 209 37q132 0 194 -62q45 -45 45 -159z" />
    <glyph glyph-name="uni0157" unicode="&#x157;" horiz-adv-x="1562" 
d="M1542 371q-34 -118 -92 -206q-59 -91 -132 -142q-73 -52 -147 -52q-105 0 -223 129q-120 131 -205 336l-47 -2q-2 -208 -2 -438q-118 -16 -211 -16q-148 0 -231 35q-86 36 -86 98q0 189 13 430q14 261 34 489l-43 -22q-43 68 -66 142q-22 70 -22 136q0 92 45 137
q96 96 280 145q188 50 437 50q197 0 350 -74q152 -74 236 -207q83 -132 83 -307q0 -150 -92 -277q-91 -126 -254 -210zM700 1059q0 -154 -2 -324q149 33 241 113q91 79 91 184q0 68 -65 108t-179 40q-75 0 -153 -15q67 -40 67 -106zM1040 -313q0 -99 -30 -210t-80 -188
q-49 -75 -103 -75q-58 0 -116 29q-60 30 -97 73q64 74 101 160q-110 1 -150 41q-30 30 -30 108q0 113 57 246q105 37 209 37q132 0 194 -62q45 -45 45 -159z" />
    <glyph glyph-name="Rcaron" unicode="&#x158;" horiz-adv-x="1562" 
d="M1542 371q-34 -118 -92 -206q-59 -91 -132 -142q-73 -52 -147 -52q-105 0 -223 129q-120 131 -205 336l-47 -2q-2 -208 -2 -438q-118 -16 -211 -16q-148 0 -231 35q-86 36 -86 98q0 189 13 430q14 261 34 489l-43 -22q-43 68 -66 142q-22 70 -22 136q0 92 45 137
q96 96 280 145q188 50 437 50q197 0 350 -74q152 -74 236 -207q83 -132 83 -307q0 -150 -92 -277q-91 -126 -254 -210zM700 1059q0 -154 -2 -324q149 33 241 113q91 79 91 184q0 68 -65 108t-179 40q-75 0 -153 -15q67 -40 67 -106zM1079 2218q77 -40 129 -109t52 -131
q0 -44 -92 -103q-90 -57 -219 -100q-128 -42 -224 -42q-42 0 -156 72q-106 67 -258 192q21 88 84 145q64 58 140 58q55 0 121 -60q69 -62 124 -160z" />
    <glyph glyph-name="rcaron" unicode="&#x159;" horiz-adv-x="1562" 
d="M1542 371q-34 -118 -92 -206q-59 -91 -132 -142q-73 -52 -147 -52q-105 0 -223 129q-120 131 -205 336l-47 -2q-2 -208 -2 -438q-118 -16 -211 -16q-148 0 -231 35q-86 36 -86 98q0 189 13 430q14 261 34 489l-43 -22q-43 68 -66 142q-22 70 -22 136q0 92 45 137
q96 96 280 145q188 50 437 50q197 0 350 -74q152 -74 236 -207q83 -132 83 -307q0 -150 -92 -277q-91 -126 -254 -210zM700 1059q0 -154 -2 -324q149 33 241 113q91 79 91 184q0 68 -65 108t-179 40q-75 0 -153 -15q67 -40 67 -106zM1079 2218q77 -40 129 -109t52 -131
q0 -44 -92 -103q-90 -57 -219 -100q-128 -42 -224 -42q-42 0 -156 72q-106 67 -258 192q21 88 84 145q64 58 140 58q55 0 121 -60q69 -62 124 -160z" />
    <glyph glyph-name="Sacute" unicode="&#x15a;" horiz-adv-x="1290" 
d="M734 860q139 -94 364 -213q69 -37 106 -58q45 -25 45 -32q0 -180 -79 -313q-80 -134 -223 -204q-145 -71 -337 -71q-166 0 -305 40q-140 40 -207 104q-57 57 -57 163q0 122 76 256q76 -38 189 -64t204 -26q75 0 121 16q43 15 43 42q0 9 -35 30q-37 23 -113 62
q-200 103 -323 192q-125 90 -125 183q0 188 90 338q90 149 252 232q163 83 366 83q94 0 210 -26q115 -26 196 -64q35 -172 35 -301q0 -69 -13 -128q-12 -55 -32 -75q-61 -61 -193 -61q-99 0 -211 41v208q-89 -28 -136 -75q-50 -50 -50 -111q0 -72 142 -168zM461 1721
q-67 30 -96 77l249 418q164 -6 269 -60q104 -53 104 -133q0 -51 -69 -131q-68 -78 -162 -140q-92 -60 -152 -60q-78 0 -143 29z" />
    <glyph glyph-name="sacute" unicode="&#x15b;" horiz-adv-x="1290" 
d="M734 860q139 -94 364 -213q69 -37 106 -58q45 -25 45 -32q0 -180 -79 -313q-80 -134 -223 -204q-145 -71 -337 -71q-166 0 -305 40q-140 40 -207 104q-57 57 -57 163q0 122 76 256q76 -38 189 -64t204 -26q75 0 121 16q43 15 43 42q0 9 -35 30q-37 23 -113 62
q-200 103 -323 192q-125 90 -125 183q0 188 90 338q90 149 252 232q163 83 366 83q94 0 210 -26q115 -26 196 -64q35 -172 35 -301q0 -69 -13 -128q-12 -55 -32 -75q-61 -61 -193 -61q-99 0 -211 41v208q-89 -28 -136 -75q-50 -50 -50 -111q0 -72 142 -168zM461 1721
q-67 30 -96 77l249 418q164 -6 269 -60q104 -53 104 -133q0 -51 -69 -131q-68 -78 -162 -140q-92 -60 -152 -60q-78 0 -143 29z" />
    <glyph glyph-name="Scircumflex" unicode="&#x15c;" horiz-adv-x="1290" 
d="M734 860q139 -94 364 -213q69 -37 106 -58q45 -25 45 -32q0 -180 -79 -313q-80 -134 -223 -204q-145 -71 -337 -71q-166 0 -305 40q-140 40 -207 104q-57 57 -57 163q0 122 76 256q76 -38 189 -64t204 -26q75 0 121 16q43 15 43 42q0 9 -35 30q-37 23 -113 62
q-200 103 -323 192q-125 90 -125 183q0 188 90 338q90 149 252 232q163 83 366 83q94 0 210 -26q115 -26 196 -64q35 -172 35 -301q0 -69 -13 -128q-12 -55 -32 -75q-61 -61 -193 -61q-99 0 -211 41v208q-89 -28 -136 -75q-50 -50 -50 -111q0 -72 142 -168zM897 2118
q135 -79 313 -205q-30 -95 -101 -158t-146 -63q-60 0 -135 68t-150 184l-254 -222q-86 23 -144 81q-57 57 -57 118q0 45 89 111q83 62 209 114q119 49 202 49q42 0 174 -77z" />
    <glyph glyph-name="scircumflex" unicode="&#x15d;" horiz-adv-x="1290" 
d="M734 860q139 -94 364 -213q69 -37 106 -58q45 -25 45 -32q0 -180 -79 -313q-80 -134 -223 -204q-145 -71 -337 -71q-166 0 -305 40q-140 40 -207 104q-57 57 -57 163q0 122 76 256q76 -38 189 -64t204 -26q75 0 121 16q43 15 43 42q0 9 -35 30q-37 23 -113 62
q-200 103 -323 192q-125 90 -125 183q0 188 90 338q90 149 252 232q163 83 366 83q94 0 210 -26q115 -26 196 -64q35 -172 35 -301q0 -69 -13 -128q-12 -55 -32 -75q-61 -61 -193 -61q-99 0 -211 41v208q-89 -28 -136 -75q-50 -50 -50 -111q0 -72 142 -168zM897 2118
q135 -79 313 -205q-30 -95 -101 -158t-146 -63q-60 0 -135 68t-150 184l-254 -222q-86 23 -144 81q-57 57 -57 118q0 45 89 111q83 62 209 114q119 49 202 49q42 0 174 -77z" />
    <glyph glyph-name="Scedilla" unicode="&#x15e;" horiz-adv-x="1290" 
d="M734 -66q-19 -28 -19 -51q58 -34 98 -90q39 -55 39 -104q0 -96 -77 -158q-76 -61 -197 -61q-45 0 -114 9q-77 10 -130 23q-19 65 -19 111q0 55 22 86t64 31q71 0 103 19q33 20 33 61q0 21 -18 42q-17 20 -44 35q0 46 23 86q-130 12 -238 50q-106 37 -162 90
q-57 57 -57 163q0 122 76 256q76 -38 189 -64t204 -26q75 0 121 16q43 15 43 42q0 9 -35 30q-37 23 -113 62q-200 103 -323 192q-125 90 -125 183q0 188 90 338q90 149 252 232q163 83 366 83q94 0 210 -26q115 -26 196 -64q35 -172 35 -301q0 -69 -13 -128q-12 -55 -32 -75
q-61 -61 -193 -61q-99 0 -211 41v208q-89 -28 -136 -75q-50 -50 -50 -111q0 -72 142 -168q139 -94 364 -213q69 -37 106 -58q45 -25 45 -32q0 -230 -124 -379q-123 -148 -343 -192q-27 -21 -48 -52z" />
    <glyph glyph-name="scedilla" unicode="&#x15f;" horiz-adv-x="1290" 
d="M734 -66q-19 -28 -19 -51q58 -34 98 -90q39 -55 39 -104q0 -96 -77 -158q-76 -61 -197 -61q-45 0 -114 9q-77 10 -130 23q-19 65 -19 111q0 55 22 86t64 31q71 0 103 19q33 20 33 61q0 21 -18 42q-17 20 -44 35q0 46 23 86q-130 12 -238 50q-106 37 -162 90
q-57 57 -57 163q0 122 76 256q76 -38 189 -64t204 -26q75 0 121 16q43 15 43 42q0 9 -35 30q-37 23 -113 62q-200 103 -323 192q-125 90 -125 183q0 188 90 338q90 149 252 232q163 83 366 83q94 0 210 -26q115 -26 196 -64q35 -172 35 -301q0 -69 -13 -128q-12 -55 -32 -75
q-61 -61 -193 -61q-99 0 -211 41v208q-89 -28 -136 -75q-50 -50 -50 -111q0 -72 142 -168q139 -94 364 -213q69 -37 106 -58q45 -25 45 -32q0 -230 -124 -379q-123 -148 -343 -192q-27 -21 -48 -52z" />
    <glyph glyph-name="Scaron" unicode="&#x160;" horiz-adv-x="1290" 
d="M734 860q139 -94 364 -213q69 -37 106 -58q45 -25 45 -32q0 -180 -79 -313q-80 -134 -223 -204q-145 -71 -337 -71q-166 0 -305 40q-140 40 -207 104q-57 57 -57 163q0 122 76 256q76 -38 189 -64t204 -26q75 0 121 16q43 15 43 42q0 9 -35 30q-37 23 -113 62
q-200 103 -323 192q-125 90 -125 183q0 188 90 338q90 149 252 232q163 83 366 83q94 0 210 -26q115 -26 196 -64q35 -172 35 -301q0 -69 -13 -128q-12 -55 -32 -75q-61 -61 -193 -61q-99 0 -211 41v208q-89 -28 -136 -75q-50 -50 -50 -111q0 -72 142 -168zM969 2198
q77 -40 129 -109q51 -67 51 -131q0 -46 -91 -104q-90 -57 -219 -100q-127 -42 -225 -42q-39 0 -155 73q-111 70 -258 191q21 89 84 146t139 57q57 0 122 -59q69 -62 124 -160z" />
    <glyph glyph-name="scaron" unicode="&#x161;" horiz-adv-x="1290" 
d="M734 860q139 -94 364 -213q69 -37 106 -58q45 -25 45 -32q0 -180 -79 -313q-80 -134 -223 -204q-145 -71 -337 -71q-166 0 -305 40q-140 40 -207 104q-57 57 -57 163q0 122 76 256q76 -38 189 -64t204 -26q75 0 121 16q43 15 43 42q0 9 -35 30q-37 23 -113 62
q-200 103 -323 192q-125 90 -125 183q0 188 90 338q90 149 252 232q163 83 366 83q94 0 210 -26q115 -26 196 -64q35 -172 35 -301q0 -69 -13 -128q-12 -55 -32 -75q-61 -61 -193 -61q-99 0 -211 41v208q-89 -28 -136 -75q-50 -50 -50 -111q0 -72 142 -168zM969 2198
q77 -40 129 -109q51 -67 51 -131q0 -46 -91 -104q-90 -57 -219 -100q-127 -42 -225 -42q-39 0 -155 73q-111 70 -258 191q21 89 84 146t139 57q57 0 122 -59q69 -62 124 -160z" />
    <glyph glyph-name="uni0162" unicode="&#x162;" horiz-adv-x="1148" 
d="M1118 1382q0 -124 -39 -196t-108 -72h-183q31 -39 31 -86l-4 -1026l-76 -12q-33 -25 -52 -52q-21 -30 -21 -55q58 -34 98 -90q39 -55 39 -104q0 -96 -77 -158q-76 -61 -198 -61q-44 0 -113 9q-77 10 -130 23q-19 65 -19 111q0 55 22 86t64 31q71 0 103 19t32 61
q0 22 -17 42t-44 35q0 55 33 105q-87 17 -133 54q-47 38 -47 93q0 137 12 410q9 214 31 563l-281 -2q-4 135 17 251q21 112 61 152q51 51 271 72t702 21q26 -114 26 -224z" />
    <glyph glyph-name="uni0163" unicode="&#x163;" horiz-adv-x="1148" 
d="M1118 1382q0 -124 -39 -196t-108 -72h-183q31 -39 31 -86l-4 -1026l-76 -12q-33 -25 -52 -52q-21 -30 -21 -55q58 -34 98 -90q39 -55 39 -104q0 -96 -77 -158q-76 -61 -198 -61q-44 0 -113 9q-77 10 -130 23q-19 65 -19 111q0 55 22 86t64 31q71 0 103 19t32 61
q0 22 -17 42t-44 35q0 55 33 105q-87 17 -133 54q-47 38 -47 93q0 137 12 410q9 214 31 563l-281 -2q-4 135 17 251q21 112 61 152q51 51 271 72t702 21q26 -114 26 -224z" />
    <glyph glyph-name="Tcaron" unicode="&#x164;" horiz-adv-x="1148" 
d="M1118 1382q0 -124 -39 -196t-108 -72h-183q31 -39 31 -86l-4 -1026q-126 -22 -223 -22q-148 0 -230 41q-83 41 -83 118q0 137 12 410q9 214 31 563l-281 -2q-4 135 17 251q21 112 61 152q51 51 271 72t702 21q26 -114 26 -224zM868 2218q77 -40 129 -109t52 -131
q0 -44 -92 -103q-90 -57 -219 -100q-128 -42 -224 -42q-42 0 -156 72q-106 67 -258 192q21 88 84 145q64 58 140 58q55 0 121 -60q69 -62 124 -160z" />
    <glyph glyph-name="tcaron" unicode="&#x165;" horiz-adv-x="1148" 
d="M1118 1382q0 -124 -39 -196t-108 -72h-183q31 -39 31 -86l-4 -1026q-126 -22 -223 -22q-148 0 -230 41q-83 41 -83 118q0 137 12 410q9 214 31 563l-281 -2q-4 135 17 251q21 112 61 152q51 51 271 72t702 21q26 -114 26 -224zM868 2218q77 -40 129 -109t52 -131
q0 -44 -92 -103q-90 -57 -219 -100q-128 -42 -224 -42q-42 0 -156 72q-106 67 -258 192q21 88 84 145q64 58 140 58q55 0 121 -60q69 -62 124 -160z" />
    <glyph glyph-name="Tbar" unicode="&#x166;" horiz-adv-x="1148" 
d="M1118 1382q0 -124 -39 -196t-108 -72h-183q31 -39 31 -86v-270q98 0 207 -4q18 -76 18 -138q0 -58 -16 -90t-49 -32l-162 2l-2 -494q-126 -22 -223 -22q-146 0 -230 42q-83 42 -83 117q0 125 10 365h-131q-23 57 -23 108q0 63 25 97q21 27 141 39q9 189 21 364l-281 -2
q-4 135 17 251q21 112 61 152q51 51 271 72t702 21q26 -114 26 -224z" />
    <glyph glyph-name="tbar" unicode="&#x167;" horiz-adv-x="1148" 
d="M1118 1382q0 -124 -39 -196t-108 -72h-183q31 -39 31 -86v-270q98 0 207 -4q18 -76 18 -138q0 -58 -16 -90t-49 -32l-162 2l-2 -494q-126 -22 -223 -22q-146 0 -230 42q-83 42 -83 117q0 125 10 365h-131q-23 57 -23 108q0 63 25 97q21 27 141 39q9 189 21 364l-281 -2
q-4 135 17 251q21 112 61 152q51 51 271 72t702 21q26 -114 26 -224z" />
    <glyph glyph-name="Utilde" unicode="&#x168;" horiz-adv-x="1546" 
d="M280 132q-178 164 -178 456q0 256 18 536q18 287 46 457q115 23 225 23q126 0 198 -33q73 -33 73 -94q0 -72 -11 -250q-18 -347 -18 -539q0 -106 41 -167q40 -60 112 -60q76 0 119 62t43 173q0 546 -14 871q108 41 211 41q69 0 131 -20q59 -19 96 -56q42 -42 67 -291
q25 -246 25 -620q0 -190 -86 -339q-85 -148 -242 -231q-155 -82 -360 -82q-320 0 -496 163zM1176 1855q0 -71 -25 -116q-24 -43 -72 -43q-289 0 -643 -13q-43 90 -43 168q0 57 27 84q42 42 216 61q171 19 517 19q23 -84 23 -160z" />
    <glyph glyph-name="utilde" unicode="&#x169;" horiz-adv-x="1546" 
d="M280 132q-178 164 -178 456q0 256 18 536q18 287 46 457q115 23 225 23q126 0 198 -33q73 -33 73 -94q0 -72 -11 -250q-18 -347 -18 -539q0 -106 41 -167q40 -60 112 -60q76 0 119 62t43 173q0 546 -14 871q108 41 211 41q69 0 131 -20q59 -19 96 -56q42 -42 67 -291
q25 -246 25 -620q0 -190 -86 -339q-85 -148 -242 -231q-155 -82 -360 -82q-320 0 -496 163zM1176 1855q0 -71 -25 -116q-24 -43 -72 -43q-289 0 -643 -13q-43 90 -43 168q0 57 27 84q42 42 216 61q171 19 517 19q23 -84 23 -160z" />
    <glyph glyph-name="Umacron" unicode="&#x16a;" horiz-adv-x="1546" 
d="M280 132q-178 164 -178 456q0 256 18 536q18 287 46 457q115 23 225 23q126 0 198 -33q73 -33 73 -94q0 -72 -11 -250q-18 -347 -18 -539q0 -106 41 -167q40 -60 112 -60q76 0 119 62t43 173q0 546 -14 871q108 41 211 41q69 0 131 -20q59 -19 96 -56q42 -42 67 -291
q25 -246 25 -620q0 -190 -86 -339q-85 -148 -242 -231q-155 -82 -360 -82q-320 0 -496 163zM473 1712q364 4 631 4q64 0 98 45q35 46 35 123q0 51 -23 131q-139 4 -266 4q-485 0 -553 -47q-27 -21 -42 -65q-15 -45 -15 -103q0 -45 10 -94q65 0 125 2z" />
    <glyph glyph-name="umacron" unicode="&#x16b;" horiz-adv-x="1546" 
d="M280 132q-178 164 -178 456q0 256 18 536q18 287 46 457q115 23 225 23q126 0 198 -33q73 -33 73 -94q0 -72 -11 -250q-18 -347 -18 -539q0 -106 41 -167q40 -60 112 -60q76 0 119 62t43 173q0 546 -14 871q108 41 211 41q69 0 131 -20q59 -19 96 -56q42 -42 67 -291
q25 -246 25 -620q0 -190 -86 -339q-85 -148 -242 -231q-155 -82 -360 -82q-320 0 -496 163zM473 1712q364 4 631 4q64 0 98 45q35 46 35 123q0 51 -23 131q-139 4 -266 4q-485 0 -553 -47q-27 -21 -42 -65q-15 -45 -15 -103q0 -45 10 -94q65 0 125 2z" />
    <glyph glyph-name="Ubreve" unicode="&#x16c;" horiz-adv-x="1546" 
d="M280 132q-178 164 -178 456q0 256 18 536q18 287 46 457q115 23 225 23q126 0 198 -33q73 -33 73 -94q0 -72 -11 -250q-18 -347 -18 -539q0 -106 41 -167q40 -60 112 -60q76 0 119 62t43 173q0 546 -14 871q108 41 211 41q69 0 131 -20q59 -19 96 -56q42 -42 67 -291
q25 -246 25 -620q0 -190 -86 -339q-85 -148 -242 -231q-155 -82 -360 -82q-320 0 -496 163zM1222 2014q25 -43 25 -81q0 -39 -28 -67q-61 -64 -179 -103q-112 -37 -256 -37q-125 0 -254 38q-126 37 -180 91q-26 26 -26 70q0 54 36 113q37 61 107 123q67 -71 174 -118
q105 -46 203 -46q84 0 168 28q86 29 139 74q45 -40 71 -85z" />
    <glyph glyph-name="ubreve" unicode="&#x16d;" horiz-adv-x="1546" 
d="M280 132q-178 164 -178 456q0 256 18 536q18 287 46 457q115 23 225 23q126 0 198 -33q73 -33 73 -94q0 -72 -11 -250q-18 -347 -18 -539q0 -106 41 -167q40 -60 112 -60q76 0 119 62t43 173q0 546 -14 871q108 41 211 41q69 0 131 -20q59 -19 96 -56q42 -42 67 -291
q25 -246 25 -620q0 -190 -86 -339q-85 -148 -242 -231q-155 -82 -360 -82q-320 0 -496 163zM1222 2014q25 -43 25 -81q0 -39 -28 -67q-61 -64 -179 -103q-112 -37 -256 -37q-125 0 -254 38q-126 37 -180 91q-26 26 -26 70q0 54 36 113q37 61 107 123q67 -71 174 -118
q105 -46 203 -46q84 0 168 28q86 29 139 74q45 -40 71 -85z" />
    <glyph glyph-name="Uring" unicode="&#x16e;" horiz-adv-x="1546" 
d="M280 132q-178 164 -178 456q0 256 18 536q18 287 46 457q115 23 225 23q126 0 198 -33q73 -33 73 -94q0 -72 -11 -250q-18 -347 -18 -539q0 -106 41 -167q40 -60 112 -60q76 0 119 62t43 173q0 546 -14 871q108 41 211 41q69 0 131 -20q59 -19 96 -56q42 -42 67 -291
q25 -246 25 -620q0 -190 -86 -339q-85 -148 -242 -231q-155 -82 -360 -82q-320 0 -496 163zM956 2228q63 -39 98 -98q36 -62 36 -135q0 -149 -90 -231q-88 -81 -250 -81q-114 0 -194 74q-79 73 -79 182q0 149 94 237q95 89 252 89q72 0 133 -37zM851 1903q30 30 30 84
q0 46 -20 71t-58 25q-49 0 -79 -33t-30 -90q0 -41 21 -65q20 -23 53 -23q52 0 83 31z" />
    <glyph glyph-name="uring" unicode="&#x16f;" horiz-adv-x="1546" 
d="M280 132q-178 164 -178 456q0 256 18 536q18 287 46 457q115 23 225 23q126 0 198 -33q73 -33 73 -94q0 -72 -11 -250q-18 -347 -18 -539q0 -106 41 -167q40 -60 112 -60q76 0 119 62t43 173q0 546 -14 871q108 41 211 41q69 0 131 -20q59 -19 96 -56q42 -42 67 -291
q25 -246 25 -620q0 -190 -86 -339q-85 -148 -242 -231q-155 -82 -360 -82q-320 0 -496 163zM956 2228q63 -39 98 -98q36 -62 36 -135q0 -149 -90 -231q-88 -81 -250 -81q-114 0 -194 74q-79 73 -79 182q0 149 94 237q95 89 252 89q72 0 133 -37zM851 1903q30 30 30 84
q0 46 -20 71t-58 25q-49 0 -79 -33t-30 -90q0 -41 21 -65q20 -23 53 -23q52 0 83 31z" />
    <glyph glyph-name="Uhungarumlaut" unicode="&#x170;" horiz-adv-x="1546" 
d="M280 132q-178 164 -178 456q0 256 18 536q18 287 46 457q115 23 225 23q126 0 198 -33q73 -33 73 -94q0 -72 -11 -250q-18 -347 -18 -539q0 -106 41 -167q40 -60 112 -60q76 0 119 62t43 173q0 546 -14 871q108 41 211 41q69 0 131 -20q59 -19 96 -56q42 -42 67 -291
q25 -246 25 -620q0 -190 -86 -339q-85 -148 -242 -231q-155 -82 -360 -82q-320 0 -496 163zM569 1744q94 62 162 140q70 81 70 131q0 78 -105 132q-107 55 -268 61l-250 -418q29 -47 96 -77q68 -30 144 -30q58 0 151 61zM1157 1742q94 62 162 140q70 81 70 131
q0 78 -105 132q-107 55 -268 61l-250 -418q29 -47 96 -77q68 -30 144 -30q58 0 151 61z" />
    <glyph glyph-name="uhungarumlaut" unicode="&#x171;" horiz-adv-x="1546" 
d="M280 132q-178 164 -178 456q0 256 18 536q18 287 46 457q115 23 225 23q126 0 198 -33q73 -33 73 -94q0 -72 -11 -250q-18 -347 -18 -539q0 -106 41 -167q40 -60 112 -60q76 0 119 62t43 173q0 546 -14 871q108 41 211 41q69 0 131 -20q59 -19 96 -56q42 -42 67 -291
q25 -246 25 -620q0 -190 -86 -339q-85 -148 -242 -231q-155 -82 -360 -82q-320 0 -496 163zM569 1744q94 62 162 140q70 81 70 131q0 78 -105 132q-107 55 -268 61l-250 -418q29 -47 96 -77q68 -30 144 -30q58 0 151 61zM1157 1742q94 62 162 140q70 81 70 131
q0 78 -105 132q-107 55 -268 61l-250 -418q29 -47 96 -77q68 -30 144 -30q58 0 151 61z" />
    <glyph glyph-name="Uogonek" unicode="&#x172;" horiz-adv-x="1546" 
d="M946 -82q-37 -52 -37 -98q0 -34 47 -54q49 -20 117 -16q6 -105 -61 -171q-68 -66 -178 -66q-126 0 -202 70q-77 71 -77 184q0 101 102 208q-262 28 -409 189q-146 160 -146 424q0 256 18 536q18 287 46 457q115 23 225 23q126 0 198 -33q73 -33 73 -94q0 -72 -11 -250
q-18 -347 -18 -539q0 -106 41 -167q40 -60 112 -60q76 0 119 62t43 173q0 546 -14 871q108 41 211 41q69 0 131 -20q59 -19 96 -56q42 -42 67 -291q25 -246 25 -620q0 -223 -112 -381q-114 -161 -310 -228q-56 -38 -96 -94z" />
    <glyph glyph-name="uogonek" unicode="&#x173;" horiz-adv-x="1546" 
d="M946 -82q-37 -52 -37 -98q0 -34 47 -54q49 -20 117 -16q6 -105 -61 -171q-68 -66 -178 -66q-126 0 -202 70q-77 71 -77 184q0 101 102 208q-262 28 -409 189q-146 160 -146 424q0 256 18 536q18 287 46 457q115 23 225 23q126 0 198 -33q73 -33 73 -94q0 -72 -11 -250
q-18 -347 -18 -539q0 -106 41 -167q40 -60 112 -60q76 0 119 62t43 173q0 546 -14 871q108 41 211 41q69 0 131 -20q59 -19 96 -56q42 -42 67 -291q25 -246 25 -620q0 -223 -112 -381q-114 -161 -310 -228q-56 -38 -96 -94z" />
    <glyph glyph-name="Wcircumflex" unicode="&#x174;" horiz-adv-x="2301" 
d="M1858 1606q185 0 299 -50q111 -49 104 -127q-23 -264 -154 -671q-129 -403 -303 -752q-106 -20 -229 -20q-128 0 -225 25q-98 25 -146 73q-16 16 -45 120q-30 111 -59 259q-79 -239 -180 -457q-102 -24 -203 -24q-113 0 -204 28q-92 28 -148 84q-44 44 -113 303
q-72 271 -130 594q-60 335 -81 576q141 30 258 30q138 0 222 -41t91 -118q55 -497 127 -942q65 205 118 472q56 284 85 552q69 14 150 14q134 0 219 -50q84 -50 92 -136q23 -223 57 -428q37 -223 78 -422q71 214 137 503q68 301 113 603q32 2 70 2zM1372 2097
q140 -82 314 -205q-29 -92 -102 -157q-72 -64 -146 -64q-58 0 -134 69q-79 71 -151 183l-254 -221q-86 23 -144 81q-57 57 -57 118q0 44 89 110q86 64 209 115q119 49 202 49q40 0 174 -78z" />
    <glyph glyph-name="wcircumflex" unicode="&#x175;" horiz-adv-x="2301" 
d="M1858 1606q185 0 299 -50q111 -49 104 -127q-23 -264 -154 -671q-129 -403 -303 -752q-106 -20 -229 -20q-128 0 -225 25q-98 25 -146 73q-16 16 -45 120q-30 111 -59 259q-79 -239 -180 -457q-102 -24 -203 -24q-113 0 -204 28q-92 28 -148 84q-44 44 -113 303
q-72 271 -130 594q-60 335 -81 576q141 30 258 30q138 0 222 -41t91 -118q55 -497 127 -942q65 205 118 472q56 284 85 552q69 14 150 14q134 0 219 -50q84 -50 92 -136q23 -223 57 -428q37 -223 78 -422q71 214 137 503q68 301 113 603q32 2 70 2zM1372 2097
q140 -82 314 -205q-29 -92 -102 -157q-72 -64 -146 -64q-58 0 -134 69q-79 71 -151 183l-254 -221q-86 23 -144 81q-57 57 -57 118q0 44 89 110q86 64 209 115q119 49 202 49q40 0 174 -78z" />
    <glyph glyph-name="Ycircumflex" unicode="&#x176;" horiz-adv-x="1505" 
d="M1348 1029q-132 -268 -351 -589q5 -172 15 -385l2 -55q-138 -23 -236 -23q-154 0 -243 43q-91 44 -91 119q0 96 27 369q-92 124 -209 410q-122 298 -221 636q148 35 260 35q133 0 219 -42t101 -117l137 -584q64 170 124 355q68 211 122 403q30 2 67 2q184 0 299 -50
t115 -129q0 -119 -137 -398zM1016 2118q135 -79 313 -205q-30 -95 -101 -158q-70 -63 -147 -63q-59 0 -134 68t-150 184l-254 -222q-88 24 -145 81q-56 56 -56 118q0 45 89 111q83 62 209 114q119 49 202 49q42 0 174 -77z" />
    <glyph glyph-name="ycircumflex" unicode="&#x177;" horiz-adv-x="1505" 
d="M1348 1029q-132 -268 -351 -589q5 -172 15 -385l2 -55q-138 -23 -236 -23q-154 0 -243 43q-91 44 -91 119q0 96 27 369q-92 124 -209 410q-122 298 -221 636q148 35 260 35q133 0 219 -42t101 -117l137 -584q64 170 124 355q68 211 122 403q30 2 67 2q184 0 299 -50
t115 -129q0 -119 -137 -398zM1016 2118q135 -79 313 -205q-30 -95 -101 -158q-70 -63 -147 -63q-59 0 -134 68t-150 184l-254 -222q-88 24 -145 81q-56 56 -56 118q0 45 89 111q83 62 209 114q119 49 202 49q42 0 174 -77z" />
    <glyph glyph-name="Ydieresis" unicode="&#x178;" horiz-adv-x="1505" 
d="M1348 1029q-132 -268 -351 -589q5 -172 15 -385l2 -55q-138 -23 -236 -23q-154 0 -243 43q-91 44 -91 119q0 96 27 369q-92 124 -209 410q-122 298 -221 636q148 35 260 35q133 0 219 -42t101 -117l137 -584q64 170 124 355q68 211 122 403q30 2 67 2q184 0 299 -50
t115 -129q0 -119 -137 -398zM330 1802q73 -53 182 -53q37 0 76 36t63 91q25 58 25 109q0 79 -66 126q-68 48 -178 48q-43 0 -84 -32t-65 -83q-25 -53 -25 -107q0 -83 72 -135zM983 1802q73 -53 182 -53q37 0 76 36q41 38 64 91q24 56 24 109q0 82 -65 128t-181 46
q-42 0 -83 -32q-39 -31 -64 -83q-25 -53 -25 -107q0 -83 72 -135z" />
    <glyph glyph-name="Zacute" unicode="&#x179;" horiz-adv-x="1368" 
d="M1276 510q20 -90 20 -182q0 -148 -57 -236t-158 -88h-632q-95 0 -180 51q-83 50 -145 144q-61 92 -83 209q35 86 225 261q181 166 488 421l-633 -15q-19 105 -19 185q0 143 52 232q51 87 141 87h647q87 0 178 -73t149 -186t58 -224q-250 -285 -575 -615zM469 1721
q-67 30 -96 77l250 418q163 -6 268 -60q104 -53 104 -133q0 -51 -69 -131q-68 -78 -162 -140q-92 -60 -152 -60q-78 0 -143 29z" />
    <glyph glyph-name="zacute" unicode="&#x17a;" horiz-adv-x="1368" 
d="M1276 510q20 -90 20 -182q0 -148 -57 -236t-158 -88h-632q-95 0 -180 51q-83 50 -145 144q-61 92 -83 209q35 86 225 261q181 166 488 421l-633 -15q-19 105 -19 185q0 143 52 232q51 87 141 87h647q87 0 178 -73t149 -186t58 -224q-250 -285 -575 -615zM469 1721
q-67 30 -96 77l250 418q163 -6 268 -60q104 -53 104 -133q0 -51 -69 -131q-68 -78 -162 -140q-92 -60 -152 -60q-78 0 -143 29z" />
    <glyph glyph-name="Zdotaccent" unicode="&#x17b;" horiz-adv-x="1368" 
d="M1276 510q20 -90 20 -182q0 -148 -57 -236t-158 -88h-632q-95 0 -180 51q-83 50 -145 144q-61 92 -83 209q35 86 225 261q181 166 488 421l-633 -15q-19 105 -19 185q0 143 52 232q51 87 141 87h647q87 0 178 -73t149 -186t58 -224q-250 -285 -575 -615zM547 1802
q73 -53 182 -53q37 0 76 36t63 91q25 58 25 109q0 81 -66 128q-65 46 -180 46q-42 0 -83 -32q-39 -31 -64 -83q-25 -53 -25 -107q0 -83 72 -135z" />
    <glyph glyph-name="zdotaccent" unicode="&#x17c;" horiz-adv-x="1368" 
d="M1276 510q20 -90 20 -182q0 -148 -57 -236t-158 -88h-632q-95 0 -180 51q-83 50 -145 144q-61 92 -83 209q35 86 225 261q181 166 488 421l-633 -15q-19 105 -19 185q0 143 52 232q51 87 141 87h647q87 0 178 -73t149 -186t58 -224q-250 -285 -575 -615zM547 1802
q73 -53 182 -53q37 0 76 36t63 91q25 58 25 109q0 81 -66 128q-65 46 -180 46q-42 0 -83 -32q-39 -31 -64 -83q-25 -53 -25 -107q0 -83 72 -135z" />
    <glyph glyph-name="Zcaron" unicode="&#x17d;" horiz-adv-x="1368" 
d="M1276 510q20 -90 20 -182q0 -148 -57 -236t-158 -88h-632q-95 0 -180 51q-83 50 -145 144q-61 92 -83 209q35 86 225 261q181 166 488 421l-633 -15q-19 105 -19 185q0 143 52 232q51 87 141 87h647q87 0 178 -73t149 -186t58 -224q-250 -285 -575 -615zM977 2198
q77 -40 129 -109q51 -67 51 -131q0 -46 -91 -104q-90 -57 -219 -100q-127 -42 -224 -42q-40 0 -156 73q-111 70 -258 191q21 89 84 146t139 57q57 0 122 -59q69 -62 124 -160z" />
    <glyph glyph-name="zcaron" unicode="&#x17e;" horiz-adv-x="1368" 
d="M1276 510q20 -90 20 -182q0 -148 -57 -236t-158 -88h-632q-95 0 -180 51q-83 50 -145 144q-61 92 -83 209q35 86 225 261q181 166 488 421l-633 -15q-19 105 -19 185q0 143 52 232q51 87 141 87h647q87 0 178 -73t149 -186t58 -224q-250 -285 -575 -615zM977 2198
q77 -40 129 -109q51 -67 51 -131q0 -46 -91 -104q-90 -57 -219 -100q-127 -42 -224 -42q-40 0 -156 73q-111 70 -258 191q21 89 84 146t139 57q57 0 122 -59q69 -62 124 -160z" />
    <glyph glyph-name="uni01EA" unicode="&#x1ea;" 
d="M1000 -65q-29 -45 -29 -87q0 -34 47 -54t117 -15q6 -105 -62 -171q-69 -67 -178 -67q-125 0 -202 71t-77 183q0 90 78 180q-185 23 -332 134q-142 107 -222 286q-79 177 -79 406q0 205 92 394q91 187 263 305t401 118q230 0 400 -116q169 -115 258 -302q88 -185 88 -393
q0 -273 -132 -485q-131 -210 -352 -299q-47 -39 -79 -88zM635 543q63 -92 172 -92q111 0 177 93q67 94 67 251q0 199 -69 298t-175 99q-107 0 -171 -98q-65 -100 -65 -299q0 -159 64 -252z" />
    <glyph glyph-name="uni01EB" unicode="&#x1eb;" 
d="M1000 -65q-29 -45 -29 -87q0 -34 47 -54t117 -15q6 -105 -62 -171q-69 -67 -178 -67q-125 0 -202 71t-77 183q0 90 78 180q-185 23 -332 134q-142 107 -222 286q-79 177 -79 406q0 205 92 394q91 187 263 305t401 118q230 0 400 -116q169 -115 258 -302q88 -185 88 -393
q0 -273 -132 -485q-131 -210 -352 -299q-47 -39 -79 -88zM635 543q63 -92 172 -92q111 0 177 93q67 94 67 251q0 199 -69 298t-175 99q-107 0 -171 -98q-65 -100 -65 -299q0 -159 64 -252z" />
    <glyph glyph-name="AEacute" unicode="&#x1fc;" horiz-adv-x="2097" 
d="M2039 370q21 -75 21 -139q0 -96 -45 -141q-60 -60 -194 -94q-137 -35 -308 -35q-169 0 -303 74q-133 73 -225 215h-424q-21 -143 -31 -246q-66 -10 -153 -10q-146 0 -230 40q-86 41 -86 109q0 32 11 107h-39q-13 65 -13 119q0 61 14 112q13 49 40 76q19 19 71 37
q78 304 182 600q103 293 154 344q57 57 236 57q138 0 336 -39q98 29 322 41q245 13 655 13q28 -128 28 -226q0 -122 -39 -193t-108 -71l-664 -4l-2 -151q74 10 223 10l308 -2q18 -83 18 -152q0 -83 -27 -133q-27 -49 -73 -49h-400q82 -190 316 -190q92 0 191 20
q103 21 175 51q45 -84 63 -150zM834 668q-29 176 -29 366q0 110 10 250q-98 -226 -182 -625q153 9 201 9zM938 1742q-67 30 -96 77l250 417q163 -6 268 -60q104 -53 104 -132q0 -52 -69 -131q-68 -78 -162 -140q-93 -61 -152 -61q-75 0 -143 30z" />
    <glyph glyph-name="aeacute" unicode="&#x1fd;" horiz-adv-x="2097" 
d="M2039 370q21 -75 21 -139q0 -96 -45 -141q-60 -60 -194 -94q-137 -35 -308 -35q-169 0 -303 74q-133 73 -225 215h-424q-21 -143 -31 -246q-66 -10 -153 -10q-146 0 -230 40q-86 41 -86 109q0 32 11 107h-39q-13 65 -13 119q0 61 14 112q13 49 40 76q19 19 71 37
q78 304 182 600q103 293 154 344q57 57 236 57q138 0 336 -39q98 29 322 41q245 13 655 13q28 -128 28 -226q0 -122 -39 -193t-108 -71l-664 -4l-2 -151q74 10 223 10l308 -2q18 -83 18 -152q0 -83 -27 -133q-27 -49 -73 -49h-400q82 -190 316 -190q92 0 191 20
q103 21 175 51q45 -84 63 -150zM834 668q-29 176 -29 366q0 110 10 250q-98 -226 -182 -625q153 9 201 9zM938 1742q-67 30 -96 77l250 417q163 -6 268 -60q104 -53 104 -132q0 -52 -69 -131q-68 -78 -162 -140q-93 -61 -152 -61q-75 0 -143 30z" />
    <glyph glyph-name="Oslashacute" unicode="&#x1fe;" 
d="M1484 414q-81 -180 -219 -291q-143 -115 -321 -148l2 -192q-70 -25 -125 -25q-67 0 -106 33t-39 92v88q-184 27 -324 138q-139 110 -215 287q-76 176 -76 399q0 211 85 385q85 175 236 288q152 114 337 138l6 190q55 19 96 19q49 0 77 -23t28 -66v-122q180 -26 327 -139
q145 -111 228 -285q82 -173 82 -381q0 -211 -79 -385zM585 599q38 -82 103 -122q4 194 19 684q-76 -39 -118 -136t-42 -239q0 -105 38 -187zM1039 606q38 81 38 180q0 130 -39 224t-108 139l8 -666q64 44 101 123zM600 1910q-67 30 -96 77l250 417q163 -6 268 -60
q104 -53 104 -132q0 -52 -69 -131q-70 -81 -162 -141q-91 -60 -152 -60q-75 0 -143 30z" />
    <glyph glyph-name="oslashacute" unicode="&#x1ff;" 
d="M1484 414q-81 -180 -219 -291q-143 -115 -321 -148l2 -192q-70 -25 -125 -25q-67 0 -106 33t-39 92v88q-184 27 -324 138q-139 110 -215 287q-76 176 -76 399q0 211 85 385q85 175 236 288q152 114 337 138l6 190q55 19 96 19q49 0 77 -23t28 -66v-122q180 -26 327 -139
q145 -111 228 -285q82 -173 82 -381q0 -211 -79 -385zM585 599q38 -82 103 -122q4 194 19 684q-76 -39 -118 -136t-42 -239q0 -105 38 -187zM1039 606q38 81 38 180q0 130 -39 224t-108 139l8 -666q64 44 101 123zM600 1910q-67 30 -96 77l250 417q163 -6 268 -60
q104 -53 104 -132q0 -52 -69 -131q-70 -81 -162 -141q-91 -60 -152 -60q-75 0 -143 30z" />
    <glyph glyph-name="uni0218" unicode="&#x218;" horiz-adv-x="1290" 
d="M734 860q139 -94 364 -213q69 -37 106 -58q45 -25 45 -32q0 -180 -79 -313q-80 -134 -223 -204q-145 -71 -337 -71q-166 0 -305 40q-140 40 -207 104q-57 57 -57 163q0 122 76 256q76 -38 189 -64t204 -26q75 0 121 16q43 15 43 42q0 9 -35 30q-37 23 -113 62
q-200 103 -323 192q-125 90 -125 183q0 188 90 338q90 149 252 232q163 83 366 83q94 0 210 -26q115 -26 196 -64q35 -172 35 -301q0 -69 -13 -128q-12 -55 -32 -75q-61 -61 -193 -61q-99 0 -211 41v208q-89 -28 -136 -75q-50 -50 -50 -111q0 -72 142 -168zM838 -313
q0 -95 -31 -210q-30 -111 -80 -188q-49 -75 -102 -75q-59 0 -117 29t-96 73q62 71 100 160q-110 1 -150 41q-30 30 -30 108q0 113 57 246q105 37 209 37q133 0 195 -62q45 -45 45 -159z" />
    <glyph glyph-name="uni0219" unicode="&#x219;" horiz-adv-x="1290" 
d="M734 860q139 -94 364 -213q69 -37 106 -58q45 -25 45 -32q0 -180 -79 -313q-80 -134 -223 -204q-145 -71 -337 -71q-166 0 -305 40q-140 40 -207 104q-57 57 -57 163q0 122 76 256q76 -38 189 -64t204 -26q75 0 121 16q43 15 43 42q0 9 -35 30q-37 23 -113 62
q-200 103 -323 192q-125 90 -125 183q0 188 90 338q90 149 252 232q163 83 366 83q94 0 210 -26q115 -26 196 -64q35 -172 35 -301q0 -69 -13 -128q-12 -55 -32 -75q-61 -61 -193 -61q-99 0 -211 41v208q-89 -28 -136 -75q-50 -50 -50 -111q0 -72 142 -168zM838 -313
q0 -95 -31 -210q-30 -111 -80 -188q-49 -75 -102 -75q-59 0 -117 29t-96 73q62 71 100 160q-110 1 -150 41q-30 30 -30 108q0 113 57 246q105 37 209 37q133 0 195 -62q45 -45 45 -159z" />
    <glyph glyph-name="uni021A" unicode="&#x21a;" horiz-adv-x="1148" 
d="M1118 1382q0 -124 -39 -196t-108 -72h-183q31 -39 31 -86l-4 -1026q-126 -22 -223 -22q-148 0 -230 41q-83 41 -83 118q0 137 12 410q9 214 31 563l-281 -2q-4 135 17 251q21 112 61 152q51 51 271 72t702 21q26 -114 26 -224zM788 -313q0 -99 -30 -210t-80 -188
q-49 -75 -103 -75q-58 0 -116 29q-60 30 -97 73q64 74 101 160q-110 1 -150 41q-30 30 -30 108q0 113 57 246q105 37 209 37q132 0 194 -62q45 -45 45 -159z" />
    <glyph glyph-name="uni021B" unicode="&#x21b;" horiz-adv-x="1148" 
d="M1118 1382q0 -124 -39 -196t-108 -72h-183q31 -39 31 -86l-4 -1026q-126 -22 -223 -22q-148 0 -230 41q-83 41 -83 118q0 137 12 410q9 214 31 563l-281 -2q-4 135 17 251q21 112 61 152q51 51 271 72t702 21q26 -114 26 -224zM788 -313q0 -99 -30 -210t-80 -188
q-49 -75 -103 -75q-58 0 -116 29q-60 30 -97 73q64 74 101 160q-110 1 -150 41q-30 30 -30 108q0 113 57 246q105 37 209 37q132 0 194 -62q45 -45 45 -159z" />
    <glyph glyph-name="uni0237" unicode="&#x237;" horiz-adv-x="1443" 
d="M1218 1538q113 -62 216 -160q0 -500 -78 -808q-78 -307 -244 -454t-434 -147q-193 0 -334 69q-140 69 -217 198q-76 128 -76 305q0 93 37 171q38 80 99 124q63 45 139 45q64 0 136 -21q75 -22 120 -51q-14 -36 -25 -92q-10 -53 -10 -105q0 -84 39 -128t112 -44
q121 0 181 167q59 164 65 528l-688 -2q-10 49 -10 120q0 86 19 153t57 105q35 36 252 63q229 28 452 28q75 0 192 -64z" />
    <glyph glyph-name="gravecomb" unicode="&#x300;" horiz-adv-x="0" 
d="M-537 1601q-52 90 -119 154q-69 66 -118 66q-86 0 -182 -64q-95 -63 -152 -164l416 -284q90 11 148 49q59 39 59 90q0 63 -52 153z" />
    <glyph glyph-name="acutecomb" unicode="&#x301;" horiz-adv-x="0" 
d="M-782 1332q-68 30 -97 77l250 418q162 -6 269 -61q104 -53 104 -132q0 -50 -70 -131q-69 -80 -161 -140t-152 -60q-78 0 -143 29z" />
    <glyph glyph-name="uni0302" unicode="&#x302;" horiz-adv-x="0" 
d="M-465 1729q135 -79 313 -205q-30 -95 -101 -158q-70 -63 -146 -63q-60 0 -135 68q-76 69 -150 183l-254 -221q-86 23 -144 81q-57 57 -57 118q0 44 89 110q86 64 209 115q119 49 202 49q42 0 174 -77z" />
    <glyph glyph-name="tildecomb" unicode="&#x303;" horiz-adv-x="0" 
d="M-467 1477q0 -72 -25 -117q-24 -43 -71 -43q-316 0 -643 -12q-43 90 -43 168q0 57 26 83q42 42 216 61q171 19 518 19q22 -81 22 -159z" />
    <glyph glyph-name="uni0304" unicode="&#x304;" horiz-adv-x="0" 
d="M-944 1333q364 4 631 4q63 0 98 45q35 46 35 123q0 51 -23 131q-139 4 -266 4q-485 0 -553 -47q-27 -21 -42 -65q-15 -45 -15 -103q0 -45 10 -94q65 0 125 2z" />
    <glyph glyph-name="uni0306" unicode="&#x306;" horiz-adv-x="0" 
d="M-267 1635q25 -43 25 -81q0 -39 -28 -67q-61 -64 -179 -103q-109 -36 -256 -36q-127 0 -253 37t-181 92q-26 26 -26 69q0 52 37 113q38 62 106 123q67 -71 174 -118q105 -46 203 -46q81 0 168 29q88 29 139 73q45 -40 71 -85z" />
    <glyph glyph-name="uni0307" unicode="&#x307;" horiz-adv-x="0" 
d="M-883 1413q73 -53 183 -53q36 0 75 36q41 38 64 91q24 55 24 108q0 82 -65 128t-180 46q-43 0 -83 -31q-41 -32 -65 -83t-24 -107q0 -83 71 -135z" />
    <glyph glyph-name="uni0308" unicode="&#x308;" horiz-adv-x="0" 
d="M-1208 1413q73 -53 182 -53q37 0 76 36t63 91q25 58 25 108q0 81 -66 127q-67 47 -178 47q-44 0 -84 -31q-41 -32 -65 -83q-25 -53 -25 -107q0 -82 72 -135zM-555 1413q73 -53 182 -53q37 0 76 36q41 38 64 91q24 55 24 108q0 82 -65 128t-181 46q-43 0 -83 -31
q-39 -31 -64 -83q-25 -53 -25 -107q0 -82 72 -135z" />
    <glyph glyph-name="uni030A" unicode="&#x30a;" horiz-adv-x="0" 
d="M-524 1849q62 -38 97 -98q36 -61 36 -135q0 -150 -89 -231q-87 -80 -251 -80q-115 0 -194 73t-79 183q0 147 95 236t252 89q72 0 133 -37zM-630 1524q30 30 30 84q0 46 -20 71t-58 25q-49 0 -79 -33q-29 -32 -29 -90q0 -41 20 -64q21 -24 53 -24q52 0 83 31z" />
    <glyph glyph-name="uni030B" unicode="&#x30b;" horiz-adv-x="0" 
d="M-911 1365q92 60 161 140q70 81 70 131q0 79 -104 132q-107 55 -269 61l-250 -418q29 -47 97 -77q65 -29 143 -29q61 0 152 60zM-324 1363q94 62 162 140q70 81 70 131q0 78 -105 132q-107 55 -268 61l-250 -418q29 -47 97 -77q65 -29 143 -29q59 0 151 60z" />
    <glyph glyph-name="uni030C" unicode="&#x30c;" horiz-adv-x="0" 
d="M-356 1808q78 -40 129 -108t51 -131q0 -46 -91 -104q-90 -57 -219 -100q-127 -42 -225 -42q-39 0 -155 73q-111 70 -258 191q21 89 84 146t139 57q57 0 122 -59q69 -62 124 -160z" />
    <glyph glyph-name="uni0312" unicode="&#x312;" horiz-adv-x="0" 
d="M-471 1573q0 -110 -55 -238q-107 -35 -199 -35q-59 0 -112 16q-49 15 -78 44q-43 43 -43 156q0 97 29 201q30 107 78 181t97 74q56 0 114 -27q57 -26 91 -71q-63 -72 -96 -156q107 -1 143 -37q31 -34 31 -108z" />
    <glyph glyph-name="uni0326" unicode="&#x326;" horiz-adv-x="0" 
d="M-520 -313q0 -95 -31 -210q-30 -111 -80 -188q-49 -75 -102 -75q-59 0 -117 29t-96 73q62 71 100 160q-109 1 -149 41q-31 31 -31 108q0 113 57 246q105 37 209 37q133 0 195 -62q45 -45 45 -159z" />
    <glyph glyph-name="uni0327" unicode="&#x327;" horiz-adv-x="0" 
d="M-517 -469q-76 -61 -198 -61q-44 0 -113 9q-77 10 -130 23q-19 65 -19 111q0 55 22 86t64 31q71 0 103 19t32 61q0 22 -17 42t-44 35q0 68 47 121t119 68l147 -86q-33 -25 -52 -52q-22 -31 -22 -55q60 -35 99 -90t39 -104q0 -96 -77 -158z" />
    <glyph glyph-name="uni0328" unicode="&#x328;" horiz-adv-x="0" 
d="M-830 -466q-77 71 -77 183q0 103 99 205q100 103 251 160l182 -92q-77 -40 -128 -103q-50 -62 -50 -116q0 -35 47 -55t117 -15q6 -105 -62 -171q-69 -67 -178 -67q-124 0 -201 71z" />
    <glyph glyph-name="Wgrave" unicode="&#x1e80;" horiz-adv-x="2301" 
d="M1858 1606q185 0 299 -50q111 -49 104 -127q-23 -264 -154 -671q-129 -403 -303 -752q-106 -20 -229 -20q-128 0 -225 25q-98 25 -146 73q-16 16 -45 120q-30 111 -59 259q-79 -239 -180 -457q-102 -24 -203 -24q-113 0 -204 28q-92 28 -148 84q-44 44 -113 303
q-72 271 -130 594q-60 335 -81 576q141 30 258 30q138 0 222 -41t91 -118q55 -497 127 -942q65 205 118 472q56 284 85 552q69 14 150 14q134 0 219 -50q84 -50 92 -136q23 -223 57 -428q37 -223 78 -422q71 214 137 503q68 301 113 603q32 2 70 2zM1411 1969
q-52 90 -120 155t-117 65q-88 0 -183 -63q-93 -62 -151 -164l415 -285q92 11 149 49q58 39 58 91q0 63 -51 152z" />
    <glyph glyph-name="wgrave" unicode="&#x1e81;" horiz-adv-x="2301" 
d="M1858 1606q185 0 299 -50q111 -49 104 -127q-23 -264 -154 -671q-129 -403 -303 -752q-106 -20 -229 -20q-128 0 -225 25q-98 25 -146 73q-16 16 -45 120q-30 111 -59 259q-79 -239 -180 -457q-102 -24 -203 -24q-113 0 -204 28q-92 28 -148 84q-44 44 -113 303
q-72 271 -130 594q-60 335 -81 576q141 30 258 30q138 0 222 -41t91 -118q55 -497 127 -942q65 205 118 472q56 284 85 552q69 14 150 14q134 0 219 -50q84 -50 92 -136q23 -223 57 -428q37 -223 78 -422q71 214 137 503q68 301 113 603q32 2 70 2zM1411 1969
q-52 90 -120 155t-117 65q-88 0 -183 -63q-93 -62 -151 -164l415 -285q92 11 149 49q58 39 58 91q0 63 -51 152z" />
    <glyph glyph-name="Wacute" unicode="&#x1e82;" horiz-adv-x="2301" 
d="M1858 1606q185 0 299 -50q111 -49 104 -127q-23 -264 -154 -671q-129 -403 -303 -752q-106 -20 -229 -20q-128 0 -225 25q-98 25 -146 73q-16 16 -45 120q-30 111 -59 259q-79 -239 -180 -457q-102 -24 -203 -24q-113 0 -204 28q-92 28 -148 84q-44 44 -113 303
q-72 271 -130 594q-60 335 -81 576q141 30 258 30q138 0 222 -41t91 -118q55 -497 127 -942q65 205 118 472q56 284 85 552q69 14 150 14q134 0 219 -50q84 -50 92 -136q23 -223 57 -428q37 -223 78 -422q71 214 137 503q68 301 113 603q32 2 70 2zM936 1701q-67 30 -96 77
l250 417q163 -6 268 -60q104 -53 104 -132q0 -51 -69 -131q-68 -78 -162 -140q-93 -61 -152 -61q-75 0 -143 30z" />
    <glyph glyph-name="wacute" unicode="&#x1e83;" horiz-adv-x="2301" 
d="M1858 1606q185 0 299 -50q111 -49 104 -127q-23 -264 -154 -671q-129 -403 -303 -752q-106 -20 -229 -20q-128 0 -225 25q-98 25 -146 73q-16 16 -45 120q-30 111 -59 259q-79 -239 -180 -457q-102 -24 -203 -24q-113 0 -204 28q-92 28 -148 84q-44 44 -113 303
q-72 271 -130 594q-60 335 -81 576q141 30 258 30q138 0 222 -41t91 -118q55 -497 127 -942q65 205 118 472q56 284 85 552q69 14 150 14q134 0 219 -50q84 -50 92 -136q23 -223 57 -428q37 -223 78 -422q71 214 137 503q68 301 113 603q32 2 70 2zM936 1701q-67 30 -96 77
l250 417q163 -6 268 -60q104 -53 104 -132q0 -51 -69 -131q-68 -78 -162 -140q-93 -61 -152 -61q-75 0 -143 30z" />
    <glyph glyph-name="Wdieresis" unicode="&#x1e84;" horiz-adv-x="2301" 
d="M1858 1606q185 0 299 -50q111 -49 104 -127q-23 -264 -154 -671q-129 -403 -303 -752q-106 -20 -229 -20q-128 0 -225 25q-98 25 -146 73q-16 16 -45 120q-30 111 -59 259q-79 -239 -180 -457q-102 -24 -203 -24q-113 0 -204 28q-92 28 -148 84q-44 44 -113 303
q-72 271 -130 594q-60 335 -81 576q141 30 258 30q138 0 222 -41t91 -118q55 -497 127 -942q65 205 118 472q56 284 85 552q69 14 150 14q134 0 219 -50q84 -50 92 -136q23 -223 57 -428q37 -223 78 -422q71 214 137 503q68 301 113 603q32 2 70 2zM686 1782q73 -53 182 -53
q38 0 76 35q41 38 64 91q24 55 24 109q0 81 -65 127q-67 47 -179 47q-42 0 -83 -32q-42 -33 -66 -83q-25 -53 -25 -106q0 -83 72 -135zM1339 1782q73 -53 183 -53q37 0 75 35q41 38 64 91q24 55 24 109q0 82 -65 128t-180 46q-42 0 -83 -32t-65 -83t-24 -106q0 -83 71 -135z
" />
    <glyph glyph-name="wdieresis" unicode="&#x1e85;" horiz-adv-x="2301" 
d="M1858 1606q185 0 299 -50q111 -49 104 -127q-23 -264 -154 -671q-129 -403 -303 -752q-106 -20 -229 -20q-128 0 -225 25q-98 25 -146 73q-16 16 -45 120q-30 111 -59 259q-79 -239 -180 -457q-102 -24 -203 -24q-113 0 -204 28q-92 28 -148 84q-44 44 -113 303
q-72 271 -130 594q-60 335 -81 576q141 30 258 30q138 0 222 -41t91 -118q55 -497 127 -942q65 205 118 472q56 284 85 552q69 14 150 14q134 0 219 -50q84 -50 92 -136q23 -223 57 -428q37 -223 78 -422q71 214 137 503q68 301 113 603q32 2 70 2zM686 1782q73 -53 182 -53
q38 0 76 35q41 38 64 91q24 55 24 109q0 81 -65 127q-67 47 -179 47q-42 0 -83 -32q-42 -33 -66 -83q-25 -53 -25 -106q0 -83 72 -135zM1339 1782q73 -53 183 -53q37 0 75 35q41 38 64 91q24 55 24 109q0 82 -65 128t-180 46q-42 0 -83 -32t-65 -83t-24 -106q0 -83 71 -135z
" />
    <glyph glyph-name="Ygrave" unicode="&#x1ef2;" horiz-adv-x="1505" 
d="M1348 1029q-132 -268 -351 -589q5 -172 15 -385l2 -55q-138 -23 -236 -23q-154 0 -243 43q-91 44 -91 119q0 96 27 369q-92 124 -209 410q-122 298 -221 636q148 35 260 35q133 0 219 -42t101 -117l137 -584q64 170 124 355q68 211 122 403q30 2 67 2q184 0 299 -50
t115 -129q0 -119 -137 -398zM1055 1990q-50 87 -120 154q-69 66 -118 66q-86 0 -182 -64q-95 -63 -152 -164l416 -284q92 11 149 49q58 39 58 90q0 65 -51 153z" />
    <glyph glyph-name="ygrave" unicode="&#x1ef3;" horiz-adv-x="1505" 
d="M1348 1029q-132 -268 -351 -589q5 -172 15 -385l2 -55q-138 -23 -236 -23q-154 0 -243 43q-91 44 -91 119q0 96 27 369q-92 124 -209 410q-122 298 -221 636q148 35 260 35q133 0 219 -42t101 -117l137 -584q64 170 124 355q68 211 122 403q30 2 67 2q184 0 299 -50
t115 -129q0 -119 -137 -398zM1055 1990q-50 87 -120 154q-69 66 -118 66q-86 0 -182 -64q-95 -63 -152 -164l416 -284q92 11 149 49q58 39 58 90q0 65 -51 153z" />
    <glyph glyph-name="endash" unicode="&#x2013;" horiz-adv-x="1288" 
d="M585 492q392 2 509 2q64 0 98 62q35 64 35 171q0 75 -23 184q-141 4 -321 4q-306 0 -509 -14q-219 -15 -255 -51q-27 -29 -42 -91q-16 -67 -16 -143q0 -54 11 -129q58 0 231 2t282 3z" />
    <glyph glyph-name="emdash" unicode="&#x2014;" horiz-adv-x="1492" 
d="M1298 494q65 0 99 62q35 64 35 171q0 75 -23 184q-141 4 -360 4q-372 0 -624 -14q-270 -15 -306 -51q-27 -29 -42 -91q-16 -67 -16 -143q0 -54 11 -129z" />
    <glyph glyph-name="quoteleft" unicode="&#x2018;" horiz-adv-x="673" 
d="M612 1313q0 -85 -34 -119q-21 -21 -59 -30q-35 -8 -105 -13q40 -93 110 -174q-41 -49 -103 -79q-66 -32 -128 -32q-59 0 -111 82q-53 83 -87 203t-34 227q0 127 50 174q68 68 215 68q101 0 223 -39q63 -151 63 -268z" />
    <glyph glyph-name="quoteright" unicode="&#x2019;" horiz-adv-x="673" 
d="M612 1378q0 -111 -33 -227q-34 -120 -87 -203q-52 -82 -111 -82q-62 0 -128 32q-62 30 -103 79q70 81 110 174q-70 5 -105 13q-38 9 -59 30q-35 35 -35 119q0 114 64 268q122 39 223 39q147 0 215 -68q49 -46 49 -174z" />
    <glyph glyph-name="quotesinglbase" unicode="&#x201a;" horiz-adv-x="634" 
d="M573 238q0 -107 -35 -225q-35 -120 -94 -206q-56 -83 -114 -83q-48 0 -105 20q-62 22 -106 53l6 236q-64 44 -64 108q0 53 13 139q12 78 30 142q112 39 213 39q143 0 211 -68q45 -45 45 -155z" />
    <glyph glyph-name="quotedblleft" unicode="&#x201c;" horiz-adv-x="1267" 
d="M326 1620q101 0 223 -39q63 -151 63 -268q0 -85 -34 -119q-21 -21 -59 -30q-35 -8 -105 -13q40 -93 110 -174q-41 -49 -103 -79q-66 -32 -128 -32q-59 0 -111 82q-53 83 -87 203t-34 227q0 127 50 174q68 68 215 68zM1206 1313q0 -84 -35 -119q-21 -21 -58 -30
q-35 -8 -105 -13q40 -93 110 -174q-41 -49 -103 -79q-66 -32 -128 -32q-59 0 -111 82q-53 83 -87 203t-34 227q0 127 50 174q68 68 215 68q102 0 223 -39q63 -151 63 -268z" />
    <glyph glyph-name="quotedblright" unicode="&#x201d;" horiz-adv-x="1267" 
d="M612 1378q0 -111 -33 -227q-34 -120 -87 -203q-52 -82 -111 -82q-62 0 -128 32q-62 30 -103 79q70 81 110 174q-70 5 -105 13q-38 9 -59 30q-35 35 -35 119q0 114 64 268q122 39 223 39q147 0 215 -68q49 -46 49 -174zM1206 1378q0 -107 -34 -227t-87 -203
q-52 -82 -110 -82q-62 0 -128 32q-64 31 -104 79q72 83 111 174q-70 5 -105 13q-38 9 -59 30q-35 35 -35 119q0 114 64 268q121 39 223 39q147 0 215 -68q49 -46 49 -174z" />
    <glyph glyph-name="quotedblbase" unicode="&#x201e;" horiz-adv-x="1245" 
d="M1184 238q0 -103 -36 -225t-93 -206q-56 -83 -115 -83q-47 0 -104 20q-64 22 -107 53l6 236q-63 43 -63 108q0 59 12 139q11 71 31 142q113 39 213 39q143 0 211 -68q45 -45 45 -155zM573 238q0 -107 -35 -225q-35 -120 -94 -206q-56 -83 -114 -83q-48 0 -105 20
q-62 22 -106 53l6 236q-64 44 -64 108q0 53 13 139q12 78 30 142q112 39 213 39q143 0 211 -68q45 -45 45 -155z" />
    <glyph glyph-name="dagger" unicode="&#x2020;" horiz-adv-x="1255" 
d="M1235 1278q0 -64 -25 -103q-24 -38 -69 -38q-125 0 -269 2l17 -1291q-125 -28 -242 -28q-111 0 -175 30t-64 89q0 189 34 1202l-346 4q-33 67 -33 139t35 107q38 38 355 49q7 267 14 422q116 28 205 28q90 0 142 -28t52 -80q0 -132 2 -340q105 0 244 -4l96 -2
q27 -86 27 -158z" />
    <glyph glyph-name="daggerdbl" unicode="&#x2021;" horiz-adv-x="1255" 
d="M1208 555q27 -85 27 -158q0 -64 -25 -103q-24 -38 -69 -38h-258l6 -408q-125 -28 -242 -28q-111 0 -175 30t-64 89q0 87 6 321l-318 4q-33 68 -33 139q0 72 35 107q34 34 324 49l20 582l-346 4q-33 67 -33 139t35 107q38 38 355 49q7 267 14 422q116 28 205 28
q90 0 142 -28t52 -80q0 -132 2 -340q105 0 244 -4l96 -2q27 -86 27 -158q0 -64 -25 -103q-24 -38 -69 -38q-125 0 -269 2l7 -578z" />
    <glyph glyph-name="bullet" unicode="&#x2022;" horiz-adv-x="768" 
d="M199 521q96 -72 225 -72q80 0 141 44q60 43 90 114q31 73 31 149q0 90 -49 154q-50 65 -126 98q-74 32 -159 32q-66 0 -123 -42q-59 -43 -92 -110q-35 -70 -35 -140q0 -154 97 -227z" />
    <glyph glyph-name="ellipsis" unicode="&#x2026;" horiz-adv-x="2097" 
d="M905 -14q57 -17 125 -17q116 0 246 45q53 126 53 234q0 100 -45 145q-68 68 -213 68q-102 0 -225 -39q-64 -154 -64 -268q0 -84 35 -119q33 -33 88 -49zM1612 -14q57 -17 125 -17q115 0 245 45q54 128 54 234q0 100 -45 145q-68 68 -213 68q-103 0 -226 -39
q-63 -151 -63 -268q0 -84 35 -119q32 -33 88 -49zM184 -14q57 -17 125 -17q115 0 246 45q53 126 53 234q0 100 -45 145q-68 68 -213 68q-102 0 -225 -39q-64 -154 -64 -268q0 -84 35 -119q32 -33 88 -49z" />
    <glyph glyph-name="perthousand" unicode="&#x2030;" horiz-adv-x="2289" 
d="M1330 1465q81 -48 81 -117q0 -38 -29 -84q-10 -14 -64 -95.5t-171.5 -257t-243.5 -364.5q-302 -447 -420 -627q-140 46 -223 126q-82 79 -82 165q0 41 23 82q78 144 413 592q-91 -27 -188 -27q-173 0 -279 100t-106 263q0 105 43 187q45 85 119 130q77 47 172 47
q137 0 222 -88t85 -227q0 -112 -66 -174q94 28 181 91q86 63 184 173l129 164q138 -10 220 -59zM321 1138q31 -39 82 -55q-18 29 -12 66q29 8 47 42q19 36 19 79q0 45 -24 78q-23 32 -54 32q-38 0 -63 -43t-25 -104q0 -57 30 -95zM1399 582q70 -43 113 -117q42 -73 42 -162
q0 -146 -86 -237t-227 -91t-227 91t-86 237q0 89 42 162q43 74 113 117q71 43 158 43t158 -43zM2098 583q70 -42 111 -116q40 -73 40 -164q0 -149 -84 -238q-85 -90 -223 -90q-141 0 -226 90q-84 88 -84 238q0 90 41 164q40 73 112 116q71 42 157 42t156 -42zM1304 217
q25 38 25 94q0 63 -23 99t-65 36t-65 -36q-25 -39 -25 -99q0 -55 27 -94t63 -39q37 0 63 39zM2004 216q26 38 26 95q0 61 -24 99q-23 36 -64 36q-42 0 -65 -36q-24 -38 -24 -99q0 -57 26 -95t63 -38q36 0 62 38z" />
    <glyph glyph-name="guilsinglleft" unicode="&#x2039;" horiz-adv-x="901" 
d="M406 743l475 -651q-73 -62 -156 -93q-84 -32 -156 -32q-116 0 -190 74q-34 34 -132 221q-104 199 -227 459q80 307 159 536q80 233 114 267q57 57 145 57q73 0 153 -41q77 -39 152 -119z" />
    <glyph glyph-name="guilsinglright" unicode="&#x203a;" horiz-adv-x="866" 
d="M643 1275q92 -194 203 -462q-91 -312 -175 -538q-85 -230 -120 -265q-57 -57 -145 -57q-73 0 -153 41q-78 40 -151 119l359 682l-441 647q74 62 156 93q84 32 156 32q116 0 190 -74q33 -33 121 -218z" />
    <glyph glyph-name="fraction" unicode="&#x2044;" horiz-adv-x="1048" 
d="M996 1651q73 -52 73 -131q0 -50 -236 -509q-237 -461 -591 -1107q-113 21 -188 84q-74 62 -74 141q0 62 204 440q227 421 625 1133q115 0 187 -51z" />
    <glyph glyph-name="Euro" unicode="&#x20ac;" horiz-adv-x="1503" 
d="M1182 461q115 23 170 55q88 -169 88 -305q0 -92 -43 -135q-59 -59 -195 -94q-137 -35 -303 -35q-190 0 -340 75q-149 75 -237 210q-90 138 -97 313h-157q-5 27 -5 37q0 33 11 64t26 46q13 13 127 25q0 3 1 11l2 16t1 16q1 14 9 61q-82 -2 -174 -2q-5 27 -5 37q0 33 11 64
q12 33 26 49q16 16 174 28q11 54 31 103h-76q0 131 25 250q24 114 63 153q51 51 307 72q243 20 824 20q27 -122 27 -227q0 -120 -38 -191t-108 -71l-594 -2q19 -32 19 -68q0 -8 -2 -16q208 4 366 4q14 -52 14 -100t-15 -73q-15 -26 -42 -26q-166 0 -368 -2q-5 -29 -9 -88
q156 2 398 2q14 -48 14 -98q0 -45 -15 -72q-14 -26 -42 -26h-314q68 -103 221 -103q109 0 224 23z" />
    <glyph glyph-name="trademark" unicode="&#x2122;" horiz-adv-x="1054" 
d="M401 1501q0 -71 -39 -71h-71q8 -8 8 -25l-2 -285q-33 -6 -64 -6q-43 0 -65 11q-25 13 -25 32q0 58 17 270h-99q0 90 23 113q27 27 188 27q63 0 123 -2q6 -33 6 -64zM956 1405q19 -119 37 -289q-15 -4 -51 -4q-75 0 -106 31q-12 12 -19 79q-9 80 -10 173
q-35 -127 -62 -267q-18 -8 -43 -8q-38 0 -61 23q-8 8 -26 80q-15 60 -35 170q-19 -137 -29 -277q-29 -4 -47 -4q-51 0 -79 17q-30 18 -30 49q0 32 24 143q28 131 56 238q44 4 70 4q83 0 104 -21t49 -166q28 84 64 183q24 2 51 2q34 0 74 -6q29 -4 41 -13q7 -7 28 -137z" />
    <glyph glyph-name="minus" unicode="&#x2212;" horiz-adv-x="1298" 
d="M1106 406q62 0 96 67q35 68 35 182q0 84 -23 199q-297 6 -509 6q-284 0 -411 -14q-136 -15 -173 -53q-29 -27 -44 -94q-16 -70 -16 -154q0 -58 11 -144z" />
    <glyph glyph-name="notequal" unicode="&#x2260;" horiz-adv-x="1298" 
d="M1147 563h67q23 -115 23 -198q0 -117 -35 -185q-34 -67 -98 -67q-215 0 -479 -2q-42 -162 -97 -355q-20 -2 -41 -2q-93 0 -145 37q-53 38 -53 96q0 26 4 37q22 83 55 187q-132 -2 -276 -2q-11 86 -11 143q0 85 16 155q15 67 42 95q30 29 120 44q85 14 250 19l62 187
q-299 -4 -479 -4q-11 86 -11 143q0 85 16 155q15 67 42 95q36 36 172 51q130 14 407 16l64 187l20 63q83 6 131 -20q50 -27 50 -74q0 -7 -5 -25l-36 -133l292 -4q23 -115 23 -196q0 -117 -35 -185q-34 -67 -98 -67q-139 0 -305 -2l-19 -66l-32 -119q134 0 399 -4z" />
    <glyph glyph-name="uniF8FF" unicode="&#xf8ff;" horiz-adv-x="1679" 
d="M823 1323q-29 38 -145 172l-29 33l17 14q131 -96 170 -108h8q39 12 170 108l18 -14q-127 -143 -176 -205h-33zM521 85q-146 85 -231 231t-85 319t85 316q87 146 231 230q146 85 319 85q172 0 318 -85t232 -230q85 -143 85 -316t-85 -319q-84 -145 -231 -231
q-145 -85 -319 -85q-173 0 -319 85zM1025 258q77 68 77 174q0 86 -54 141q-55 57 -159 119q-92 58 -139 104q-45 44 -45 107q0 58 39 93q40 36 102 36q70 0 111 -48q40 -47 73 -173l19 2q0 151 20 258l-18 4q-1 -13 -17 -24t-35 -11q-9 0 -63 9q-59 10 -92 10
q-101 0 -169 -55q-69 -55 -69 -140q0 -88 52 -144t155 -120q96 -62 139 -107q45 -47 45 -114q0 -73 -42 -116q-42 -44 -109 -44q-82 0 -135 61q-54 62 -54 150q0 56 23 107l-16 8q-39 -30 -61 -72q-21 -41 -21 -88q0 -83 69 -139q70 -56 176 -56q121 0 198 68z" />
    <glyph glyph-name="zero.numr" horiz-adv-x="626" 
d="M97 894q-77 89 -77 249q0 99 38 181q36 79 105 127q65 46 150 46q86 0 151 -46q67 -47 104 -127q38 -82 38 -181q0 -160 -77 -249t-216 -89t-216 89zM252 1275q-21 -42 -21 -124q0 -143 82 -143q84 0 84 143q0 166 -84 166q-40 0 -61 -42z" />
    <glyph glyph-name="one.numr" horiz-adv-x="372" 
d="M133 1493q36 4 57 4q65 0 103 -19q39 -20 39 -53l-2 -579q-69 -10 -117 -10q-55 0 -88 12t-33 33q0 57 21 327q-65 16 -103 54z" />
    <glyph glyph-name="two.numr" horiz-adv-x="534" 
d="M217 1150q-75 -72 -197 -151q0 -27 23 -79t45 -74q16 -16 89 -20q83 -5 255 -5q26 0 41 26q14 24 14 68q0 45 -16 105q-53 0 -182 -6q90 66 149 136q56 67 56 116q0 55 -36 109t-91 88t-111 34q-148 0 -203 -55q-14 -14 -14 -45q0 -52 41 -129q24 13 74 27q44 12 77 12
q64 0 64 -43q0 -39 -78 -114z" />
    <glyph glyph-name="three.numr" horiz-adv-x="557" 
d="M486 1097q30 -42 30 -83q0 -90 -72 -149q-71 -58 -182 -58q-69 0 -119 17q-54 19 -82 48q-20 20 -20 56q0 48 41 112q22 -17 69 -34q42 -15 82 -15q44 0 71 15q28 16 28 36t-28 31q-26 10 -87 10q-15 0 -22 24q-9 29 -9 62q0 23 2 45q55 6 91 23q34 16 34 35q0 37 -73 37
q-22 0 -71 -9q-43 -8 -71 -22q-43 55 -43 111q0 30 19 49q26 26 82 43q54 16 123 16q56 0 110 -31q53 -30 85 -81q32 -50 32 -105q0 -25 -27 -55q-32 -35 -67 -60q44 -27 74 -68z" />
    <glyph glyph-name="four.numr" horiz-adv-x="540" 
d="M500 838q-64 -11 -103 -11q-53 0 -89 14q-34 13 -34 38q0 32 7 104q-64 1 -118 8q-50 6 -59 15q-19 20 -57 72q-37 52 -37 63q0 38 144 356q99 -10 154 -41q55 -30 38 -65q-52 -109 -141 -250l98 8l19 104q22 2 47 2q59 0 94 -15t35 -42z" />
    <glyph glyph-name="five.numr" horiz-adv-x="512" 
d="M429 1190q63 -52 63 -141q0 -94 -70 -158t-174 -64q-139 0 -209 70q-19 19 -19 51q0 56 43 111q27 -20 73 -34q42 -13 81 -13q40 0 63 13t23 36q0 17 -22 29t-54 12q-39 0 -65 -10q-53 30 -89 68t-36 63q0 39 21 138q21 98 32 109q12 12 103 20q84 7 237 7q10 -41 10 -96
q0 -53 -14 -81q-15 -30 -41 -30q-69 0 -168 4l-2 -55q29 4 51 4q99 0 163 -53z" />
    <glyph glyph-name="six.numr" horiz-adv-x="546" 
d="M473 1181q53 -50 53 -128q0 -105 -71 -170q-72 -66 -187 -66q-110 0 -179 81t-69 210q0 111 43 198q44 90 118 140q75 51 167 51q45 0 75 -46q31 -47 32 -116q-86 -2 -151 -41q-64 -39 -87 -102q43 39 119 39q84 0 137 -50zM333 1015q19 18 19 42q0 21 -21 36t-52 15
q-40 0 -70 -12q5 -49 23 -73q20 -26 53 -26q29 0 48 18z" />
    <glyph glyph-name="seven.numr" horiz-adv-x="516" 
d="M407 1457q33 -35 62 -89q27 -51 27 -86q-74 -74 -136 -196q-62 -123 -86 -240q-96 0 -159 30q-64 30 -64 76q0 67 61 157q62 91 162 175q-120 2 -237 2q-17 62 -17 100q0 53 21 74q28 23 112 29q85 6 193 6q25 0 61 -38z" />
    <glyph glyph-name="eight.numr" horiz-adv-x="536" 
d="M516 1006q0 -90 -70 -145q-69 -54 -186 -54q-108 0 -173 56q-67 58 -67 147q0 46 31 89q29 40 78 64q-63 60 -63 129q0 95 56 150t150 55q93 0 151 -55t58 -142q0 -38 -21 -77t-54 -66q110 -76 110 -151zM242 1334q-13 -13 -13 -29q0 -29 56 -70q32 38 32 70q0 18 -11 29
q-12 12 -32 12t-32 -12zM292 985q13 12 13 33q0 12 -14 25t-43 34q-33 -29 -33 -57q0 -21 13 -34t30 -13q20 0 34 12z" />
    <glyph glyph-name="nine.numr" horiz-adv-x="546" 
d="M457 1416q69 -81 69 -210q0 -106 -45 -197q-46 -93 -123 -145q-79 -53 -170 -53q-57 0 -90 45q-32 44 -26 115q87 0 152 37q69 39 98 98q-41 -35 -111 -35q-82 0 -136 51q-55 52 -55 129q0 111 70 179q68 67 184 67q114 0 183 -81zM215 1220q19 -16 49 -16q35 0 74 15
q-4 50 -24 77t-52 27q-26 0 -46 -18q-19 -18 -19 -43q0 -27 18 -42z" />
    <glyph glyph-name="zero.numr.ss01" horiz-adv-x="626" 
d="M97 894q-77 89 -77 249q0 99 38 181q36 79 105 127q65 46 150 46q86 0 151 -46q67 -47 104 -127q38 -82 38 -181q0 -160 -77 -249t-216 -89t-216 89zM252 1275q-21 -42 -21 -124q0 -143 82 -143q84 0 84 143q0 166 -84 166q-40 0 -61 -42zM594 561q0 -69 -12 -109
t-37 -40l-490 -2q-20 79 -20 161q0 66 14 91q24 53 330 53q90 0 203 -4q12 -83 12 -150z" />
    <glyph glyph-name="one.numr.ss01" horiz-adv-x="544" 
d="M188 1208q-64 16 -102 54l123 231q36 4 57 4q65 0 103 -19q39 -20 39 -53l-2 -579q-69 -10 -117 -10q-55 0 -88 12t-33 33q0 70 20 327zM504 561q0 -70 -10 -109q-10 -40 -31 -40l-412 -2q-16 77 -16 165q0 66 10 87q23 53 279 53q75 0 170 -4q10 -87 10 -150z" />
    <glyph glyph-name="two.numr.ss01" horiz-adv-x="534" 
d="M217 1150q-75 -72 -197 -151q0 -27 23 -79t45 -74q16 -16 89 -20q83 -5 255 -5q26 0 41 26q14 24 14 68q0 45 -16 105q-53 0 -182 -6q90 66 149 136q56 67 56 116q0 55 -36 109t-91 88t-111 34q-148 0 -203 -55q-14 -14 -14 -45q0 -52 41 -129q24 13 74 27q44 12 77 12
q64 0 64 -43q0 -39 -78 -114zM489 559q0 -68 -10 -107q-10 -40 -26 -40l-402 -2q-16 77 -16 165q0 66 10 87q21 53 270 53q73 0 164 -4q10 -69 10 -152z" />
    <glyph glyph-name="three.numr.ss01" horiz-adv-x="557" 
d="M304 1006q28 16 28 36t-28 31q-26 10 -87 10q-15 0 -22 24q-9 29 -9 62q0 23 2 45q55 6 91 23q34 16 34 35q0 37 -73 37q-22 0 -71 -9q-43 -8 -71 -22q-43 55 -43 111q0 30 19 49q26 26 82 43q54 16 123 16q56 0 110 -31q53 -30 85 -81q32 -50 32 -105q0 -25 -27 -55
q-32 -35 -67 -60q44 -27 74 -68q30 -42 30 -83q0 -90 -72 -149q-71 -58 -182 -58q-69 0 -119 17q-54 19 -82 48q-20 20 -20 56q0 48 41 112q22 -17 69 -34q42 -15 82 -15q44 0 71 15zM526 561q0 -72 -11 -109q-12 -40 -32 -40l-430 -2q-18 88 -18 163q0 62 12 89
q23 53 291 53q79 0 178 -4q10 -66 10 -150z" />
    <glyph glyph-name="four.numr.ss01" horiz-adv-x="540" 
d="M163 991q-50 6 -59 15q-19 20 -57 72q-37 52 -37 63q0 38 144 356q99 -10 154 -41q55 -30 38 -65q-52 -109 -141 -250l98 8l19 104q22 2 47 2q59 0 94 -15t35 -42l2 -360q-64 -11 -103 -11q-53 0 -89 14q-34 13 -34 38q0 32 7 104q-64 1 -118 8zM514 561q0 -70 -10 -109
q-10 -40 -31 -40l-420 -2q-18 88 -18 163q0 62 12 89q23 53 283 53q79 0 174 -4q10 -66 10 -150z" />
    <glyph glyph-name="five.numr.ss01" horiz-adv-x="512" 
d="M280 1025q23 13 23 36q0 17 -22 29t-54 12q-39 0 -65 -10q-53 30 -89 68t-36 63q0 39 21 138q21 98 32 109q12 12 103 20q84 7 237 7q10 -41 10 -96q0 -53 -14 -81q-15 -30 -41 -30q-69 0 -168 4l-2 -55q29 4 51 4q99 0 163 -53q63 -52 63 -141q0 -94 -70 -158t-174 -64
q-139 0 -209 70q-19 19 -19 51q0 56 43 111q27 -20 73 -34q42 -13 81 -13q40 0 63 13zM311 715q71 0 162 -4q10 -87 10 -152q0 -68 -10 -107q-10 -40 -29 -40l-393 -2q-16 77 -16 165q0 66 10 87q21 53 266 53z" />
    <glyph glyph-name="six.numr.ss01" horiz-adv-x="546" 
d="M89 898q-69 81 -69 210q0 111 43 198q44 90 118 140q75 51 167 51q45 0 75 -46q31 -47 32 -116q-86 -2 -151 -41q-64 -39 -87 -102q43 39 119 39q84 0 137 -50t53 -128q0 -105 -71 -170q-72 -66 -187 -66q-110 0 -179 81zM331 1093q-21 15 -52 15q-40 0 -70 -12
q5 -49 23 -73q20 -26 53 -26q29 0 48 18t19 42q0 21 -21 36zM332 715q75 0 174 -4q10 -87 10 -148q0 -74 -11 -111q-12 -40 -32 -40l-420 -2q-18 88 -18 163q0 62 12 89q23 53 285 53z" />
    <glyph glyph-name="seven.numr.ss01" horiz-adv-x="516" 
d="M37 1286q-17 62 -17 100q0 53 21 74q28 23 112 29q85 6 193 6q25 0 61 -38q33 -35 62 -89q27 -51 27 -86q-74 -74 -136 -196q-62 -123 -86 -240q-96 0 -159 30q-64 30 -64 76q0 67 61 157q62 91 162 175q-120 2 -237 2zM311 715q73 0 164 -4q10 -87 10 -152
q0 -68 -10 -107q-10 -40 -29 -40l-395 -2q-16 77 -16 165q0 66 10 87q21 53 266 53z" />
    <glyph glyph-name="eight.numr.ss01" horiz-adv-x="536" 
d="M51 1099q29 40 78 64q-63 60 -63 129q0 95 56 150t150 55q93 0 151 -55t58 -142q0 -38 -21 -77t-54 -66q110 -76 110 -151q0 -90 -70 -145q-69 -54 -186 -54q-108 0 -173 56q-67 58 -67 147q0 46 31 89zM242 1334q-13 -13 -13 -29q0 -29 56 -70q32 38 32 70q0 18 -11 29
q-12 12 -32 12t-32 -12zM291 1043q-14 13 -43 34q-33 -29 -33 -57q0 -21 13 -34t30 -13q20 0 34 12q13 12 13 33q0 12 -14 25zM328 715q77 0 172 -4q10 -66 10 -150q0 -70 -10 -109q-10 -40 -31 -40l-416 -2q-18 88 -18 163q0 62 12 89q21 53 281 53z" />
    <glyph glyph-name="nine.numr.ss01" horiz-adv-x="546" 
d="M75 1122q-55 52 -55 129q0 111 70 179q68 67 184 67q114 0 183 -81t69 -210q0 -106 -45 -197q-46 -93 -123 -145q-79 -53 -170 -53q-57 0 -90 45q-32 44 -26 115q87 0 152 37q69 39 98 98q-41 -35 -111 -35q-82 0 -136 51zM216 1305q-19 -18 -19 -43q0 -27 18 -42
q19 -16 49 -16q35 0 74 15q-4 50 -24 77t-52 27q-26 0 -46 -18zM332 715q75 0 174 -4q10 -87 10 -148q0 -74 -11 -111q-12 -40 -32 -40l-420 -2q-18 88 -18 163q0 62 12 89q23 53 285 53z" />
    <glyph glyph-name="quotedblleft.ss01" horiz-adv-x="1099" 
d="M744 1132q-63 63 -107 150q-45 88 -45 158q0 84 94 136t238 46l123 -498q-40 -25 -91 -40q-53 -15 -100 -15q-49 0 -112 63zM225 1138q-61 67 -109 164q-46 93 -46 164q0 70 96 114t246 42l125 -498q-32 -25 -87 -40q-57 -15 -114 -15q-48 0 -111 69z" />
    <glyph glyph-name="quotedblright.ss01" horiz-adv-x="1099" 
d="M366 1132q63 63 107 150q45 88 45 158q0 84 -94 136t-238 46l-125 -498q40 -25 91 -40q52 -15 100 -15q51 0 114 63zM883 1138q64 70 109 162q46 93 46 166q0 70 -96 114t-246 42l-125 -498q32 -25 87 -40q57 -15 114 -15q48 0 111 69z" />
    </font>
</defs>
</svg>
